{
.appVersion = "3436";
.formatVersion = 3;
customParameters = (
{
name = "meta Table";
value = (
{
data = Latn;
tag = dlng;
},
{
data = Latn;
tag = slng;
}
);
},
{
name = vendorID;
value = NONE;
},
{
name = panose;
value = (
0,
0,
0,
0,
0,
0,
0,
0,
0,
0
);
},
{
name = unicodeRanges;
value = (
0,
1,
2,
3,
5,
6,
29,
31,
33,
35,
38
);
},
{
name = fsType;
value = (
);
},
{
name = glyphOrder;
value = (
.notdef,
space,
uni0024,
uni0025,
uni0026,
uni002B,
uni003C,
uni003D,
uni003E,
uni0040,
uni005E,
uni007C,
uni007E,
uni00A2,
uni00A3,
uni00A5,
uni00A7,
uni00A9,
uni00AE,
uni00B0,
uni00B6,
uni00D7,
uni00F7,
uni20AC,
uni2122,
uni2212,
uni0021,
uni0022,
uni0023,
uni0027,
uni0028,
uni0029,
uni002A,
uni002C,
uni002D,
uni002E,
uni002F,
uni003A,
uni003B,
uni003F,
uni005B,
uni005C,
uni005D,
uni005F,
uni007B,
uni007D,
uni00A1,
uni00AB,
uni00B7,
uni00BB,
uni00BF,
uni2013,
uni2014,
uni2018,
uni2019,
uni201A,
uni201C,
uni201D,
uni201E,
uni2022,
uni2026,
uni2039,
uni203A,
uni0030,
uni0031,
uni0032,
uni0033,
uni0034,
uni0035,
uni0036,
uni0037,
uni0038,
uni0039,
uni0060,
uni00A8,
uni00AF,
uni00B4,
uni00B8,
uni02C6,
uni02C7,
uni02D9,
uni02DA,
uni02DB,
uni02DC,
uni02DD,
uni0300,
uni0301,
uni0302,
uni0303,
uni0304,
uni0307,
uni0308,
uni030A,
uni030B,
uni030C,
uni0326,
uni0327,
uni0328,
uni0041,
uni0042,
uni0043,
uni0044,
uni0045,
uni0046,
uni0047,
uni0048,
uni0049,
uni004A,
uni004B,
uni004C,
uni004D,
uni004E,
uni004F,
uni0050,
uni0051,
uni0052,
uni0053,
uni0054,
uni0055,
uni0056,
uni0057,
uni0058,
uni0059,
uni005A,
uni0061,
uni0062,
uni0063,
uni0064,
uni0065,
uni0066,
uni0067,
uni0068,
uni0069,
uni006A,
uni006B,
uni006C,
uni006D,
uni006E,
uni006F,
uni0070,
uni0071,
uni0072,
uni0073,
uni0074,
uni0075,
uni0076,
uni0077,
uni0078,
uni0079,
uni007A,
uni00AA,
uni00BA,
uni00C0,
uni00C1,
uni00C2,
uni00C3,
uni00C4,
uni00C5,
uni00C6,
uni00C7,
uni00C8,
uni00C9,
uni00CA,
uni00CB,
uni00CC,
uni00CD,
uni00CE,
uni00CF,
uni00D0,
uni00D1,
uni00D2,
uni00D3,
uni00D4,
uni00D5,
uni00D6,
uni00D8,
uni00D9,

glyphs = (
{
glyphname = .notdef;
lastChange = "2026-06-24 21:12:53 +0000";
layers = (
{
layerId = m01;
shapes = (
{
closed = 1;
nodes = (
(450,0,l),
(450,700,l),
(50,700,l),
(50,0,l)
);
}
);
width = 500;
}
);
note = .notdef;
},
{
glyphname = uni0024;
lastChange = "2026-06-24 21:12:53 +0000";
layers = (
{
layerId = m01;
shapes = (
{
closed = 1;
nodes = (
(152,-34,l),
(177,-32,l),
(180,-9,o),
(181,7,o),
(181,19,qs),
(182,40,l),
(205,59,o),
(226,76,o),
(235,86,o),
(242,93,qs),
(260,113,o),
(269,136,o),
(267,162,qs),
(266,180,o),
(259,210,o),
(239,245,o),
(196,298,o),
(159,340,qs),
(144,359,o),
(125,395,o),
(125,406,qs),
(125,416,o),
(139,445,o),
(149,446,qs),
(159,448,o),
(169,426,o),
(173,394,o),
(175,367,o),
(177,365,q),
(178,361,o),
(213,350,o),
(222,350,qs),
(231,350,o),
(247,370,o),
(257,398,qs),
(264,415,o),
(268,438,o),
(254,460,o),
(215,493,o),
(178,521,q),
(178,597,l),
(150,597,ls),
(122,597,o),
(120,593,q),
(118,591,o),
(117,572,o),
(116,553,o),
(116,553,q),
(114,517,l),
(87,500,o),
(48,468,o),
(30,427,o),
(35,395,qs),
(40,362,o),
(73,306,o),
(110,267,qs),
(142,232,o),
(169,189,o),
(175,160,o),
(175,146,qs),
(175,110,o),
(151,110,qs),
(139,110,o),
(131,138,o),
(131,157,qs),
(131,172,o),
(127,201,o),
(108,220,o),
(85,220,qs),
(69,220,o),
(62,215,qs),
(56,210,o),
(33,166,o),
(28,148,qs),
(23,132,o),
(47,97,o),
(84,66,o),
(115,40,o),
(117,32,qs),
(118,27,o),
(120,-4,o),
(123,-32,o),
(125,-34,q)
);
}
);
width = 289;
}
);
note = uni0024;
unicode = 36;
},
{
glyphname = uni0025;
lastChange = "2026-06-24 21:12:53 +0000";
layers = (
{
layerId = m01;
shapes = (
{
closed = 1;
nodes = (
(114,-24,o),
(127,-16,o),
(133,4,q),
(133,6,o),
(157,71,o),
(196,176,o),
(242,299,o),
(287,422,o),
(324,525,o),
(346,589,o),
(345,590,qs),
(343,592,o),
(323,594,o),
(304,593,o),
(303,591,q),
(303,591,o),
(279,525,o),
(239,418,o),
(191,289,o),
(143,160,o),
(102,51,o),
(77,-16,o),
(77,-17,qs),
(77,-18,o),
(84,-19,qs)
);
},
{
closed = 1;
nodes = (
(331,-37,o),
(366,-24,o),
(393,0,o),
(395,13,qs),
(395,14,o),
(396,23,o),
(397,68,o),
(398,122,qs),
(398,190,ls),
(398,211,o),
(397,219,qs),
(395,235,o),
(370,261,o),
(341,276,o),
(335,276,qs),
(324,276,o),
(288,259,o),
(259,232,o),
(257,218,qs),
(256,213,o),
(255,184,o),
(255,152,o),
(255,143,qs),
(255,114,o),
(256,58,o),
(257,20,o),
(258,18,qs),
(261,7,o),
(292,-27,o),
(317,-33,qs)
);
},
{
closed = 1;
nodes = (
(329,11,o),
(319,15,o),
(317,18,qs),
(316,20,o),
(315,54,o),
(314,100,o),
(314,141,o),
(314,151,qs),
(314,190,o),
(316,222,o),
(323,225,o),
(332,220,qs),
(337,217,o),
(338,175,o),
(338,118,qs),
(338,100,o),
(338,54,o),
(336,18,o),
(334,16,qs)
);
},
{
closed = 1;
nodes = (
(108,288,o),
(127,297,qs),
(146,305,o),
(162,330,o),
(166,388,o),
(166,446,qs),
(166,497,o),
(164,543,o),
(156,561,o),
(147,572,qs),
(125,595,o),
(83,599,o),
(48,579,o),
(27,552,o),
(26,544,qs),
(24,530,o),
(24,442,qs),
(24,400,o),
(25,351,o),
(27,340,qs),
(28,326,o),
(65,288,o),
(93,288,qs)
);
},
{
closed = 1;
nodes = (
(86,337,o),
(85,365,o),
(84,451,o),
(84,538,q),
(86,542,o),
(96,542,qs),
(107,542,l),
(107,509,ls),
(107,493,o),
(106,460,o),
(105,398,o),
(103,338,q),
(99,337,o),
(89,335,o),
(87,336,qs)
);
}
);
width = 423;
}
);
note = uni0025;
unicode = 37;
},
{
glyphname = uni0026;
lastChange = "2026-06-24 21:18:46 +0000";
layers = (
{
layerId = m01;
shapes = (
{
closed = 1;
nodes = (
(373,-23,o),
(418,-12,o),
(431,-9,o),
(432,-8,qs),
(435,-5,o),
(406,34,o),
(376,88,qs),
(357,120,o),
(340,152,o),
(335,168,o),
(335,176,qs),
(335,180,o),
(338,216,o),
(342,252,o),
(344,255,qs),
(346,258,o),
(395,281,o),
(403,285,qs),
(414,290,o),
(451,301,o),
(453,305,q),
(455,307,o),
(450,336,o),
(443,366,o),
(439,369,q),
(436,374,o),
(406,372,o),
(400,367,qs),
(392,361,o),
(285,308,o),
(286,262,o),
(286,247,o),
(286,239,qs),
(286,220,o),
(285,220,qs),
(283,220,o),
(271,234,o),
(240,282,o),
(207,333,qs),
(182,370,o),
(159,406,o),
(152,427,o),
(149,443,qs),
(140,484,o),
(158,519,o),
(189,524,o),
(216,512,o),
(216,507,qs),
(216,504,o),
(213,493,qs),
(203,462,o),
(211,435,o),
(217,426,qs),
(233,402,o),
(266,396,o),
(297,416,o),
(321,448,o),
(335,478,o),
(335,485,qs),
(335,496,o),
(308,538,o),
(260,580,o),
(195,602,o),
(157,594,qs),
(151,593,o),
(113,575,o),
(71,540,o),
(45,485,o),
(54,406,o),
(87,354,qs),
(130,289,o),
(127,285,qs),
(120,278,o),
(104,265,o),
(104,265,q),
(72,240,o),
(57,218,qs),
(37,190,o),
(27,109,o),
(39,81,qs),
(46,67,o),
(87,24,o),
(104,13,qs),
(141,-9,o),
(204,-11,o),
(254,8,o),
(286,28,o),
(291,28,qs),
(294,28,o),
(304,6,o),
(318,-23,o),
(327,-34,q)
);
},
{
closed = 1;
nodes = (
(203,67,o),
(161,77,o),
(140,111,o),
(135,155,o),
(143,197,o),
(150,209,qs),
(159,224,o),
(170,227,o),
(177,216,qs),
(178,214,o),
(201,177,o),
(229,130,o),
(251,93,o),
(251,91,qs),
(251,87,o),
(236,81,qs)
);
}
);
width = 471;
}
);
note = uni0026;
unicode = 38;
},
{
glyphname = uni002B;
lastChange = "2026-06-24 21:12:53 +0000";
layers = (
{
layerId = m01;
shapes = (
{
closed = 1;
nodes = (
(252,15,l),
(252,52,l),
(252,52,o),
(252,76,o),
(253,108,o),
(253,133,o),
(253,135,qs),
(254,180,l),
(328,180,ls),
(372,180,o),
(390,182,qs),
(404,183,o),
(413,196,o),
(413,221,qs),
(413,249,l),
(366,248,o),
(319,247,o),
(298,247,o),
(291,247,qs),
(273,247,o),
(264,248,o),
(254,250,q),
(253,333,o),
(252,415,q),
(243,415,o),
(215,416,o),
(194,417,o),
(194,417,q),
(183,417,o),
(183,416,qs),
(183,334,l),
(182,252,l),
(104,250,o),
(26,249,q),
(25,214,o),
(24,180,q),
(102,180,ls),
(150,180,o),
(180,178,o),
(180,175,q),
(181,173,o),
(181,149,qs),
(181,93,l),
(182,15,l)
);
}
);
width = 438;
}
);
note = uni002B;
unicode = 43;
},
{
glyphname = uni003C;
lastChange = "2026-06-24 21:12:53 +0000";
layers = (
{
layerId = m01;
shapes = (
{
closed = 1;
nodes = (
(249,19,o),
(261,38,o),
(271,60,o),
(268,64,qs),
(266,68,o),
(229,101,o),
(175,144,o),
(123,186,o),
(87,216,o),
(87,218,qs),
(87,220,o),
(120,246,o),
(170,285,o),
(223,326,o),
(266,358,o),
(274,365,q),
(261,394,o),
(257,404,o),
(257,405,qs),
(257,409,o),
(254,414,qs),
(252,417,o),
(247,416,o),
(240,410,qs),
(230,402,o),
(198,377,o),
(167,351,o),
(145,333,o),
(145,333,q),
(105,301,o),
(59,263,o),
(33,237,o),
(24,224,q),
(31,209,ls),
(38,195,o),
(84,149,o),
(145,97,o),
(202,50,o),
(240,19,o),
(240,18,q),
(243,13,o),
(247,17,qs)
);
}
);
width = 299;
}
);
note = uni003C;
unicode = 60;
},
{
glyphname = uni003D;
lastChange = "2026-06-24 21:12:53 +0000";
layers = (
{
layerId = m01;
shapes = (
{
closed = 1;
nodes = (
(420,21,o),
(426,55,o),
(432,95,o),
(435,125,o),
(433,126,qs),
(432,127,o),
(391,129,o),
(331,130,o),
(271,131,o),
(231,131,o),
(230,131,qs),
(31,133,l),
(27,103,o),
(24,71,o),
(25,43,o),
(27,18,q),
(125,18,o),
(321,16,o),
(419,15,q)
);
},
{
closed = 1;
nodes = (
(428,347,o),
(434,394,o),
(434,409,o),
(433,410,qs),
(432,411,o),
(391,413,o),
(331,414,o),
(271,415,o),
(231,415,o),
(230,415,qs),
(31,417,l),
(27,387,o),
(24,355,o),
(25,327,o),
(27,302,q),
(125,302,o),
(321,300,o),
(419,299,q)
);
}
);
width = 458;
}
);
note = uni003D;
unicode = 61;
},
{
glyphname = uni003E;
lastChange = "2026-06-24 21:12:53 +0000";
layers = (
{
layerId = m01;
shapes = (
{
closed = 1;
nodes = (
(58,18,o),
(85,40,o),
(119,69,o),
(146,92,o),
(147,92,q),
(187,127,o),
(234,169,o),
(258,195,o),
(269,213,o),
(274,224,q),
(268,233,ls),
(265,238,o),
(229,270,o),
(175,315,o),
(113,366,o),
(85,390,qs),
(62,408,o),
(41,420,o),
(41,405,qs),
(41,404,o),
(37,394,o),
(24,365,q),
(48,345,o),
(112,297,o),
(172,252,o),
(211,220,o),
(211,217,qs),
(211,216,o),
(175,187,o),
(123,144,o),
(69,100,o),
(32,68,o),
(30,64,qs),
(28,60,o),
(39,33,o),
(54,12,o),
(58,18,q)
);
}
);
width = 298;
}
);
note = uni003E;
unicode = 62;
},
{
glyphname = uni0040;
lastChange = "2026-06-24 21:12:53 +0000";
layers = (
{
layerId = m01;
shapes = (
{
closed = 1;
nodes = (
(214,-34,o),
(254,-10,o),
(287,11,qs),
(331,38,o),
(376,68,o),
(395,85,o),
(397,93,qs),
(398,97,o),
(399,138,o),
(400,194,o),
(400,248,o),
(400,284,o),
(400,285,qs),
(400,467,l),
(391,477,o),
(347,509,o),
(293,545,o),
(242,577,o),
(209,597,o),
(208,597,qs),
(207,597,o),
(164,569,o),
(101,527,o),
(41,484,o),
(24,468,q),
(24,283,ls),
(24,221,o),
(25,134,o),
(26,111,qs),
(26,96,o),
(31,82,o),
(47,70,qs),
(51,67,o),
(86,44,o),
(133,14,o),
(178,-15,o),
(209,-34,o),
(209,-34,q)
);
},
{
closed = 1;
nodes = (
(207,20,o),
(170,42,o),
(127,71,o),
(94,94,o),
(94,94,q),
(81,105,o),
(70,119,o),
(67,148,o),
(67,180,qs),
(67,283,ls),
(67,326,o),
(68,400,o),
(69,445,o),
(69,446,qs),
(70,450,o),
(98,471,o),
(138,498,o),
(178,523,o),
(206,540,o),
(206,540,q),
(208,540,o),
(257,513,o),
(325,468,o),
(355,440,q),
(356,356,o),
(357,264,o),
(358,224,o),
(358,215,o),
(358,214,qs),
(358,127,l),
(356,112,o),
(348,104,qs),
(345,101,o),
(305,75,o),
(254,43,o),
(215,20,o),
(212,20,qs)
);
},
{
closed = 1;
nodes = (
(191,115,o),
(211,136,o),
(215,149,qs),
(223,171,o),
(235,150,qs),
(242,139,o),
(252,128,qs),
(267,113,o),
(307,119,o),
(337,143,o),
(337,153,qs),
(337,161,o),
(323,173,qs),
(306,187,o),
(298,230,o),
(298,276,qs),
(298,323,o),
(302,363,o),
(307,379,o),
(307,390,qs),
(307,395,o),
(303,401,q),
(303,401,o),
(277,425,o),
(242,455,o),
(209,478,o),
(203,478,qs),
(195,477,o),
(165,457,o),
(132,428,o),
(108,402,o),
(108,396,qs),
(108,393,o),
(112,384,qs),
(124,356,o),
(141,333,o),
(156,328,o),
(164,328,qs),
(177,328,o),
(187,339,o),
(188,356,qs),
(188,393,o),
(197,401,o),
(223,391,q),
(222,353,o),
(221,316,q),
(221,316,o),
(201,309,o),
(198,308,qs),
(175,301,o),
(136,285,o),
(127,269,qs),
(124,265,o),
(118,236,o),
(114,202,o),
(114,190,qs),
(114,177,o),
(119,169,q),
(120,166,o),
(141,140,o),
(170,115,o),
(182,115,qs)
);
},
{
closed = 1;
nodes = (
(202,175,o),
(190,193,o),
(188,230,o),
(193,265,o),
(196,271,qs),
(200,279,o),
(225,289,o),
(226,274,qs),
(226,264,o),
(227,250,qs),
(227,245,o),
(227,219,o),
(222,193,o),
(215,186,qs)
);
}
);
width = 425;
}
);
note = uni0040;
unicode = 64;
},
{
glyphname = uni005E;
lastChange = "2026-06-24 21:12:53 +0000";
layers = (
{
layerId = m01;
shapes = (
{
closed = 1;
nodes = (
(428,229,o),
(451,261,o),
(478,308,o),
(502,355,o),
(518,387,o),
(518,387,q),
(518,389,o),
(499,405,o),
(474,424,o),
(454,438,o),
(454,438,q),
(446,444,o),
(412,471,o),
(378,501,o),
(371,511,qs),
(359,527,o),
(319,563,o),
(281,588,o),
(271,588,qs),
(261,588,o),
(243,580,o),
(202,545,o),
(160,506,qs),
(136,483,o),
(76,430,o),
(60,418,qs),
(37,401,o),
(24,383,o),
(27,377,qs),
(28,375,o),
(50,326,o),
(91,260,o),
(117,234,q),
(149,257,o),
(184,295,o),
(200,314,qs),
(224,344,o),
(252,372,o),
(275,369,o),
(292,354,qs),
(304,343,o),
(344,302,o),
(387,259,o),
(419,229,o),
(422,229,qs)
);
},
{
closed = 1;
nodes = (
(316,222,o),
(322,224,qs),
(327,226,o),
(305,242,o),
(284,242,qs),
(263,242,o),
(241,226,o),
(247,224,qs),
(252,222,o),
(284,222,qs)
);
}
);
width = 541;
}
);
note = uni005E;
unicode = 94;
},
{
glyphname = uni007C;
lastChange = "2026-06-24 21:12:53 +0000";
layers = (
{
layerId = m01;
shapes = (
{
closed = 1;
nodes = (
(62,-34,l),
(62,529,ls),
(63,568,o),
(63,582,qs),
(62,593,o),
(57,597,o),
(41,597,qs),
(27,597,o),
(26,595,q),
(25,595,o),
(25,562,o),
(24,511,o),
(24,458,o),
(24,439,qs),
(24,113,ls),
(24,45,o),
(25,-30,o),
(28,-33,q),
(32,-34,o),
(47,-34,qs)
);
}
);
width = 87;
}
);
note = uni007C;
unicode = 124;
},
{
glyphname = uni007E;
lastChange = "2026-06-24 21:12:53 +0000";
layers = (
{
layerId = m01;
shapes = (
{
closed = 1;
nodes = (
(141,33,o),
(148,37,qs),
(154,41,o),
(168,70,o),
(179,104,o),
(181,116,qs),
(186,149,o),
(210,164,o),
(236,155,qs),
(261,146,o),
(313,111,o),
(364,73,o),
(416,47,o),
(441,47,qs),
(476,47,o),
(544,89,o),
(602,158,o),
(643,239,o),
(659,316,o),
(642,376,o),
(614,389,qs),
(595,398,o),
(567,399,o),
(551,391,qs),
(539,384,o),
(515,346,o),
(491,302,o),
(469,271,o),
(458,271,qs),
(454,271,o),
(424,284,o),
(387,301,o),
(360,314,o),
(360,314,q),
(303,342,o),
(228,368,o),
(168,354,o),
(133,325,qs),
(80,282,o),
(31,197,o),
(24,123,o),
(49,66,o),
(95,33,o),
(122,33,qs)
);
}
);
width = 674;
}
);
note = uni007E;
unicode = 126;
},
{
glyphname = uni00A2;
lastChange = "2026-06-24 21:12:53 +0000";
layers = (
{
layerId = m01;
shapes = (
{
closed = 1;
nodes = (
(188,-34,o),
(191,-33,q),
(196,-29,o),
(200,-4,o),
(201,20,o),
(201,20,q),
(201,36,o),
(205,44,q),
(206,49,o),
(228,70,o),
(249,88,o),
(249,88,q),
(307,136,o),
(307,153,qs),
(307,157,o),
(293,188,o),
(272,227,o),
(251,258,o),
(244,261,qs),
(235,264,o),
(197,250,o),
(190,234,q),
(188,224,o),
(189,188,o),
(190,154,o),
(187,148,qs),
(183,139,o),
(154,146,o),
(151,148,q),
(147,149,o),
(143,161,o),
(141,209,o),
(140,317,o),
(139,415,q),
(148,420,o),
(160,424,o),
(171,421,qs),
(183,418,o),
(190,402,o),
(190,378,qs),
(190,351,o),
(204,329,o),
(225,324,o),
(234,324,qs),
(251,324,o),
(262,333,qs),
(270,340,o),
(289,369,o),
(303,396,o),
(305,401,qs),
(308,413,o),
(277,448,o),
(256,469,q),
(255,469,o),
(239,483,o),
(218,501,o),
(202,515,o),
(202,515,q),
(201,554,o),
(200,596,q),
(172,597,ls),
(155,598,o),
(140,595,o),
(135,575,o),
(133,550,qs),
(131,526,o),
(127,512,o),
(121,508,qs),
(113,503,o),
(81,475,o),
(48,442,o),
(24,413,o),
(24,406,qs),
(24,396,o),
(28,382,o),
(33,356,o),
(33,327,qs),
(33,306,o),
(31,244,o),
(29,189,o),
(29,178,qs),
(28,166,o),
(30,160,qs),
(36,141,o),
(99,78,o),
(134,48,q),
(136,10,o),
(138,-31,q),
(164,-33,o),
(174,-34,o),
(180,-34,qs)
);
}
);
width = 332;
}
);
note = uni00A2;
unicode = 162;
},
{
glyphname = uni00A3;
lastChange = "2026-06-24 21:12:53 +0000";
layers = (
{
layerId = m01;
shapes = (
{
closed = 1;
nodes = (
(90,-34,o),
(110,-6,o),
(129,22,o),
(136,22,qs),
(139,22,o),
(161,14,o),
(185,5,o),
(191,2,qs),
(235,-17,o),
(274,-25,o),
(285,-22,qs),
(304,-17,o),
(338,21,o),
(360,60,o),
(363,69,qs),
(366,83,o),
(359,125,o),
(339,163,o),
(307,187,o),
(287,183,qs),
(268,180,o),
(260,155,o),
(258,126,qs),
(256,93,o),
(248,72,o),
(238,72,qs),
(231,72,o),
(203,79,o),
(181,87,o),
(181,87,q),
(158,95,o),
(156,103,o),
(170,117,qs),
(187,135,o),
(204,171,o),
(211,228,o),
(215,277,q),
(246,277,ls),
(266,277,o),
(272,278,qs),
(280,279,o),
(284,298,o),
(282,317,o),
(281,319,q),
(279,321,o),
(261,323,o),
(244,325,o),
(244,325,q),
(220,326,o),
(206,332,o),
(202,342,qs),
(174,406,o),
(163,480,o),
(166,490,qs),
(170,507,o),
(202,519,o),
(215,508,qs),
(223,502,o),
(224,485,o),
(217,468,qs),
(208,448,o),
(219,411,o),
(244,382,o),
(268,367,o),
(271,368,qs),
(275,369,o),
(295,402,o),
(317,443,o),
(333,474,o),
(333,475,q),
(338,489,o),
(319,525,o),
(285,558,o),
(253,582,o),
(246,586,qs),
(230,595,o),
(182,599,o),
(167,593,qs),
(159,590,o),
(128,570,o),
(94,538,o),
(70,493,o),
(70,465,qs),
(71,433,o),
(90,375,o),
(108,335,o),
(108,330,qs),
(108,327,o),
(86,326,o),
(81,326,qs),
(53,325,l),
(53,278,l),
(85,277,ls),
(117,277,o),
(121,272,qs),
(125,267,o),
(127,241,o),
(127,216,o),
(127,214,qs),
(125,171,o),
(102,128,o),
(70,105,o),
(41,87,o),
(32,69,qs),
(26,56,o),
(33,22,o),
(51,-12,o),
(72,-34,o),
(81,-34,qs)
);
}
);
width = 385;
}
);
note = uni00A3;
unicode = 163;
},
{
glyphname = uni00A5;
lastChange = "2026-06-24 21:12:53 +0000";
layers = (
{
layerId = m01;
shapes = (
{
closed = 1;
nodes = (
(183,-33,o),
(204,-15,o),
(225,15,o),
(233,51,o),
(225,70,qs),
(218,86,o),
(218,88,qs),
(218,90,o),
(251,91,o),
(265,91,qs),
(311,91,l),
(311,99,ls),
(311,104,o),
(309,119,o),
(307,136,q),
(265,136,ls),
(237,136,o),
(213,138,o),
(208,149,o),
(208,161,qs),
(208,181,l),
(256,182,o),
(307,183,q),
(308,208,l),
(308,234,l),
(280,232,o),
(254,230,o),
(239,230,o),
(230,230,qs),
(215,230,o),
(212,231,qs),
(207,233,o),
(210,252,o),
(220,281,qs),
(229,308,o),
(249,351,o),
(282,408,o),
(312,457,q),
(312,457,o),
(324,478,o),
(324,481,qs),
(324,484,o),
(314,520,o),
(297,564,o),
(275,597,o),
(263,597,qs),
(258,597,o),
(227,577,o),
(195,540,o),
(188,514,qs),
(185,498,o),
(193,473,o),
(202,443,o),
(202,420,qs),
(202,399,o),
(191,341,o),
(185,318,q),
(181,315,o),
(177,323,q),
(177,323,o),
(166,351,o),
(154,392,o),
(149,437,o),
(155,454,qs),
(161,469,o),
(164,502,o),
(162,508,qs),
(160,515,o),
(145,544,o),
(125,575,o),
(103,597,o),
(94,597,qs),
(78,597,o),
(53,569,o),
(34,532,o),
(24,500,o),
(24,495,qs),
(24,487,o),
(53,434,o),
(94,361,o),
(130,286,o),
(137,255,qs),
(140,241,o),
(142,235,q),
(144,233,o),
(131,230,o),
(85,229,o),
(37,228,q),
(36,206,l),
(36,183,l),
(138,181,l),
(137,161,o),
(136,138,q),
(34,136,l),
(34,91,l),
(71,91,ls),
(99,91,o),
(118,89,o),
(130,87,q),
(124,69,ls),
(113,38,o),
(134,-9,o),
(168,-35,o),
(178,-34,qs)
);
}
);
width = 349;
}
);
note = uni00A5;
unicode = 165;
},
{
glyphname = uni00A7;
lastChange = "2026-06-24 21:12:53 +0000";
layers = (
{
layerId = m01;
shapes = (
{
closed = 1;
nodes = (
(115,-39,o),
(163,-30,o),
(200,-1,o),
(223,32,o),
(225,41,qs),
(234,77,o),
(218,130,o),
(181,175,o),
(158,198,q),
(180,212,o),
(210,259,o),
(226,306,o),
(226,318,qs),
(226,340,o),
(190,389,o),
(142,438,o),
(106,485,o),
(106,504,qs),
(106,513,o),
(120,529,o),
(137,531,o),
(151,508,o),
(151,477,qs),
(151,466,o),
(158,449,o),
(178,449,qs),
(191,449,o),
(201,454,qs),
(212,460,o),
(226,490,o),
(233,519,o),
(233,522,qs),
(231,538,o),
(200,566,o),
(169,585,o),
(166,586,q),
(137,601,o),
(92,590,o),
(65,565,qs),
(37,540,o),
(28,509,o),
(28,491,qs),
(28,473,o),
(30,467,qs),
(33,454,o),
(54,422,o),
(80,392,o),
(98,371,o),
(98,369,qs),
(98,368,o),
(75,360,o),
(46,339,o),
(25,297,o),
(27,263,qs),
(28,244,o),
(42,215,o),
(56,196,qs),
(74,173,o),
(113,131,o),
(129,112,qs),
(151,85,o),
(156,50,o),
(140,33,o),
(131,33,qs),
(121,33,o),
(114,41,q),
(108,46,o),
(106,56,o),
(106,78,qs),
(106,110,o),
(100,119,qs),
(95,125,o),
(74,126,o),
(55,123,o),
(54,123,q),
(41,117,o),
(27,82,o),
(24,44,o),
(25,36,qs),
(25,28,o),
(50,3,o),
(79,-19,o),
(87,-24,qs)
);
},
{
closed = 1;
nodes = (
(142,220,o),
(124,235,o),
(107,263,o),
(107,283,qs),
(107,293,o),
(112,320,o),
(118,339,o),
(120,338,qs),
(122,337,o),
(141,312,o),
(159,275,o),
(162,236,o),
(148,222,qs),
(145,219,o),
(143,220,q)
);
}
);
width = 257;
}
);
note = uni00A7;
unicode = 167;
},
{
glyphname = uni00A9;
lastChange = "2026-06-24 21:12:53 +0000";
layers = (
{
layerId = m01;
shapes = (
{
closed = 1;
nodes = (
(324,16,o),
(432,90,o),
(433,91,qs),
(435,94,o),
(437,107,o),
(439,145,o),
(441,222,o),
(443,353,o),
(445,454,q),
(429,469,ls),
(416,482,o),
(368,516,o),
(314,550,o),
(266,579,o),
(234,597,o),
(233,597,qs),
(231,597,o),
(195,575,o),
(142,542,o),
(84,504,o),
(37,472,o),
(26,463,q),
(24,412,l),
(24,369,ls),
(24,368,o),
(24,329,o),
(25,276,o),
(25,232,o),
(25,228,qs),
(28,96,l),
(46,84,o),
(66,70,o),
(97,50,o),
(129,28,qs),
(161,7,o),
(190,-12,o),
(212,-24,o),
(232,-34,q)
);
},
{
closed = 1;
nodes = (
(227,20,o),
(197,38,o),
(154,65,o),
(109,95,o),
(74,121,o),
(67,128,q),
(69,280,l),
(69,280,o),
(69,312,o),
(70,358,o),
(71,404,o),
(72,435,o),
(73,436,q),
(73,437,o),
(104,460,o),
(150,491,o),
(197,522,o),
(230,543,o),
(232,543,qs),
(238,543,o),
(273,523,o),
(319,494,o),
(363,462,o),
(394,438,o),
(397,435,qs),
(399,432,o),
(401,410,o),
(402,345,o),
(402,278,qs),
(402,206,o),
(400,127,o),
(398,124,qs),
(394,119,o),
(358,95,o),
(309,66,o),
(262,39,o),
(230,21,o),
(230,21,q)
);
},
{
closed = 1;
nodes = (
(252,92,o),
(287,114,o),
(323,143,o),
(348,165,o),
(348,167,qs),
(348,170,o),
(343,184,qs),
(327,224,o),
(311,256,o),
(300,263,o),
(291,263,qs),
(279,263,o),
(274,260,qs),
(269,257,o),
(267,221,o),
(266,181,o),
(263,170,qs),
(258,155,o),
(220,150,o),
(213,162,q),
(208,168,o),
(204,224,o),
(203,295,o),
(203,324,qs),
(203,382,o),
(208,395,qs),
(211,402,o),
(241,417,o),
(256,406,qs),
(263,402,o),
(271,376,o),
(276,352,o),
(276,349,qs),
(278,328,o),
(285,317,o),
(296,317,qs),
(308,317,o),
(315,321,qs),
(319,323,o),
(337,356,o),
(351,390,o),
(351,396,q),
(350,400,o),
(320,429,o),
(279,464,o),
(243,489,o),
(236,489,qs),
(233,489,o),
(209,474,o),
(209,474,q),
(167,438,o),
(134,404,o),
(132,385,o),
(137,371,qs),
(144,351,o),
(148,284,o),
(144,216,o),
(139,194,q),
(133,179,o),
(143,158,o),
(169,133,qs),
(198,102,o),
(230,87,o),
(243,90,qs)
);
}
);
width = 470;
}
);
note = uni00A9;
unicode = 169;
},
{
glyphname = uni00AE;
lastChange = "2026-06-24 21:12:53 +0000";
layers = (
{
layerId = m01;
shapes = (
{
closed = 1;
nodes = (
(241,-35,o),
(286,-11,o),
(346,27,o),
(404,65,o),
(442,93,o),
(443,95,qs),
(445,98,o),
(447,140,o),
(448,200,o),
(448,260,o),
(448,280,qs),
(448,358,o),
(447,436,o),
(445,463,o),
(444,464,q),
(441,471,o),
(396,502,o),
(335,540,o),
(275,574,o),
(234,597,o),
(233,597,qs),
(232,597,o),
(195,575,o),
(139,541,o),
(80,503,o),
(33,470,o),
(24,461,q),
(24,280,ls),
(24,239,o),
(24,154,o),
(26,96,o),
(28,94,qs),
(31,91,o),
(71,63,o),
(128,27,o),
(186,-9,o),
(229,-34,o),
(235,-34,qs)
);
},
{
closed = 1;
nodes = (
(232,20,o),
(224,24,o),
(192,43,o),
(155,66,qs),
(119,87,o),
(77,115,o),
(74,120,qs),
(73,122,o),
(71,154,o),
(71,199,o),
(70,244,o),
(70,274,o),
(70,274,q),
(70,347,ls),
(70,392,o),
(72,431,o),
(78,444,o),
(85,449,qs),
(90,453,o),
(132,481,o),
(185,515,o),
(229,539,o),
(235,539,qs),
(240,539,o),
(274,521,o),
(321,493,o),
(366,464,o),
(398,443,o),
(401,441,q),
(404,437,o),
(406,412,o),
(407,345,o),
(407,280,qs),
(407,124,l),
(391,110,o),
(338,74,o),
(281,41,o),
(239,20,o),
(235,20,qs)
);
},
{
closed = 1;
nodes = (
(195,105,o),
(209,130,o),
(209,145,q),
(210,152,o),
(207,220,o),
(204,273,q),
(222,273,ls),
(260,273,o),
(265,252,qs),
(267,243,o),
(267,213,o),
(267,189,o),
(267,189,q),
(267,153,ls),
(267,126,o),
(290,113,o),
(290,113,q),
(299,111,o),
(327,123,o),
(350,141,o),
(350,149,qs),
(350,156,o),
(338,184,qs),
(324,219,o),
(315,271,o),
(299,281,qs),
(289,288,o),
(291,298,o),
(304,306,qs),
(322,317,o),
(340,354,o),
(345,389,o),
(344,394,qs),
(342,401,o),
(312,430,o),
(272,460,o),
(239,481,o),
(235,481,qs),
(233,481,o),
(216,471,o),
(198,459,o),
(195,457,qs),
(160,434,o),
(123,416,o),
(123,414,qs),
(123,411,o),
(137,391,o),
(137,391,q),
(145,378,o),
(153,356,o),
(155,320,o),
(155,286,qs),
(155,251,o),
(154,231,qs),
(153,204,o),
(142,181,o),
(131,169,o),
(129,161,qs),
(127,152,o),
(152,126,o),
(182,105,o),
(188,105,qs)
);
},
{
closed = 1;
nodes = (
(259,301,o),
(246,300,o),
(227,302,o),
(207,305,q),
(208,353,ls),
(208,373,o),
(209,388,qs),
(210,402,o),
(213,406,o),
(223,406,qs),
(257,404,o),
(269,381,o),
(269,347,qs),
(270,304,l)
);
}
);
width = 472;
}
);
note = uni00AE;
unicode = 174;
},
{
glyphname = uni00B0;
lastChange = "2026-06-24 21:12:53 +0000";
layers = (
{
layerId = m01;
shapes = (
{
closed = 1;
nodes = (
(101,459,o),
(117,489,qs),
(125,504,o),
(120,539,o),
(97,563,o),
(76,563,qs),
(50,563,o),
(25,536,o),
(24,499,o),
(47,468,o),
(68,464,qs)
);
},
{
closed = 1;
nodes = (
(60,529,o),
(75,536,o),
(89,524,o),
(89,513,qs),
(89,503,o),
(75,491,o),
(60,497,o),
(60,513,qs)
);
}
);
width = 146;
}
);
note = uni00B0;
unicode = 176;
},
{
glyphname = uni00B6;
lastChange = "2026-06-24 21:12:53 +0000";
layers = (
{
layerId = m01;
shapes = (
{
closed = 1;
nodes = (
(220,-34,ls),
(228,-34,o),
(239,-32,o),
(247,-30,q),
(249,248,o),
(250,529,q),
(271,531,o),
(272,527,qs),
(272,526,o),
(272,529,o),
(273,513,o),
(274,456,o),
(275,335,o),
(277,129,o),
(278,-30,q),
(308,-30,l),
(308,532,l),
(317,533,o),
(337,535,o),
(339,537,qs),
(340,538,o),
(343,558,o),
(345,579,o),
(344,581,qs),
(343,582,o),
(314,583,o),
(284,583,o),
(280,583,qs),
(229,583,o),
(181,588,o),
(164,593,qs),
(131,603,o),
(100,587,qs),
(62,568,o),
(30,516,o),
(24,469,o),
(24,459,qs),
(24,405,o),
(36,348,o),
(55,320,o),
(65,310,qs),
(96,277,o),
(140,266,o),
(168,266,qs),
(208,266,l),
(210,-34,l)
);
}
);
width = 369;
}
);
note = uni00B6;
unicode = 182;
},
{
glyphname = uni00D7;
lastChange = "2026-06-24 21:12:53 +0000";
layers = (
{
layerId = m01;
shapes = (
{
closed = 1;
nodes = (
(110,48,ls),
(150,91,o),
(189,138,o),
(204,157,o),
(207,157,q),
(208,158,o),
(226,139,o),
(250,113,o),
(268,93,o),
(268,93,q),
(300,56,o),
(332,22,o),
(346,16,o),
(352,21,qs),
(367,35,o),
(397,69,o),
(397,69,q),
(397,71,o),
(359,112,o),
(297,177,o),
(261,215,q),
(309,263,ls),
(361,312,o),
(401,352,o),
(401,356,q),
(400,357,o),
(392,367,qs),
(390,369,o),
(385,375,o),
(367,394,o),
(347,417,q),
(327,396,ls),
(310,377,o),
(270,335,o),
(233,298,o),
(208,274,o),
(208,274,q),
(206,274,o),
(182,302,o),
(148,343,o),
(113,385,o),
(87,414,o),
(83,416,q),
(81,418,o),
(57,395,o),
(31,370,o),
(29,366,qs),
(26,361,o),
(30,351,o),
(58,319,o),
(92,282,qs),
(120,253,o),
(153,215,o),
(153,213,qs),
(153,210,o),
(129,184,o),
(103,157,o),
(99,153,qs),
(66,119,o),
(34,84,o),
(24,70,o),
(25,68,q),
(39,54,o),
(53,40,o),
(66,28,o),
(79,15,q)
);
}
);
width = 424;
}
);
note = uni00D7;
unicode = 215;
},
{
glyphname = uni00F7;
lastChange = "2026-06-24 21:12:53 +0000";
layers = (
{
layerId = m01;
shapes = (
{
closed = 1;
nodes = (
(101,313,o),
(109,322,qs),
(127,342,o),
(130,377,o),
(116,403,o),
(99,417,o),
(97,417,qs),
(95,417,o),
(77,403,o),
(62,378,o),
(64,344,o),
(82,324,qs),
(91,313,o),
(98,313,qs)
);
},
{
closed = 1;
nodes = (
(101,15,o),
(109,24,qs),
(127,44,o),
(130,79,o),
(115,105,o),
(98,119,o),
(97,119,qs),
(95,119,o),
(77,105,o),
(62,80,o),
(64,46,o),
(82,26,qs),
(91,15,o),
(98,15,qs)
);
},
{
closed = 1;
nodes = (
(166,220,o),
(168,232,o),
(167,233,qs),
(166,234,o),
(134,235,o),
(100,235,o),
(96,235,qs),
(26,236,l),
(25,220,o),
(24,211,o),
(24,205,qs),
(25,195,l),
(93,195,l),
(162,194,l)
);
}
);
width = 192;
}
);
note = uni00F7;
unicode = 247;
},
{
glyphname = uni20AC;
lastChange = "2026-06-24 21:12:53 +0000";
layers = (
{
layerId = m01;
shapes = (
{
closed = 1;
nodes = (
(302,-24,o),
(333,3,o),
(368,38,o),
(382,53,qs),
(392,65,o),
(401,85,o),
(392,124,o),
(374,165,qs),
(362,193,o),
(350,203,o),
(341,203,qs),
(330,203,o),
(295,185,o),
(288,176,qs),
(280,167,o),
(282,125,o),
(288,86,o),
(287,80,qs),
(285,72,o),
(262,59,o),
(234,62,o),
(225,76,qs),
(220,85,o),
(215,109,o),
(213,160,o),
(212,207,q),
(257,210,o),
(279,216,o),
(276,230,qs),
(274,240,o),
(274,250,qs),
(274,260,l),
(242,257,o),
(210,255,q),
(210,318,l),
(240,316,ls),
(261,315,o),
(279,318,o),
(284,341,o),
(285,368,q),
(255,368,ls),
(233,368,o),
(218,370,o),
(209,372,q),
(211,430,o),
(215,481,o),
(222,499,o),
(231,504,qs),
(247,515,o),
(270,502,o),
(283,490,q),
(278,471,o),
(272,442,o),
(272,429,qs),
(272,413,o),
(279,402,qs),
(283,394,o),
(309,369,o),
(336,351,o),
(345,356,q),
(346,356,o),
(349,361,o),
(359,380,o),
(372,404,qs),
(392,440,o),
(406,478,o),
(389,510,o),
(363,536,qs),
(319,580,o),
(253,603,o),
(197,582,o),
(170,560,qs),
(139,536,o),
(114,505,o),
(109,483,o),
(109,472,qs),
(109,430,l),
(111,374,l),
(41,374,l),
(32,375,o),
(30,372,qs),
(29,371,o),
(27,345,o),
(26,319,o),
(26,319,q),
(65,317,o),
(107,315,q),
(108,287,o),
(109,260,q),
(67,259,o),
(26,258,q),
(25,233,o),
(24,205,q),
(112,205,l),
(110,158,o),
(109,105,o),
(111,79,o),
(115,68,o),
(119,63,q),
(119,62,o),
(140,36,o),
(175,2,o),
(219,-28,o),
(270,-39,o),
(295,-27,qs)
);
}
);
width = 428;
}
);
note = uni20AC;
unicode = 8364;
},
{
glyphname = uni2122;
lastChange = "2026-06-24 21:12:53 +0000";
layers = (
{
layerId = m01;
shapes = (
{
closed = 1;
nodes = (
(194,344,o),
(213,371,o),
(213,383,q),
(213,383,o),
(210,413,o),
(206,456,o),
(204,498,o),
(206,511,qs),
(207,525,o),
(219,509,o),
(229,465,o),
(229,410,o),
(219,384,qs),
(218,380,o),
(228,361,o),
(241,345,o),
(244,345,qs),
(252,345,o),
(264,365,o),
(271,379,q),
(266,401,o),
(262,423,o),
(262,443,qs),
(261,488,o),
(279,521,o),
(280,521,q),
(286,518,o),
(286,475,o),
(281,422,o),
(276,382,o),
(276,381,qs),
(276,379,o),
(286,356,o),
(303,338,o),
(314,346,q),
(319,348,o),
(326,362,o),
(334,379,q),
(326,396,o),
(318,418,o),
(315,443,o),
(315,466,qs),
(315,491,o),
(316,498,qs),
(316,507,o),
(325,518,o),
(324,524,qs),
(323,527,o),
(309,545,o),
(293,561,o),
(290,562,qs),
(283,565,o),
(262,545,o),
(248,521,o),
(250,516,qs),
(252,513,o),
(252,503,qs),
(250,477,o),
(245,468,o),
(240,484,o),
(238,508,o),
(239,515,qs),
(243,530,o),
(223,552,qs),
(210,565,o),
(196,559,o),
(183,545,qs),
(169,528,o),
(165,519,o),
(170,510,qs),
(175,501,o),
(177,488,o),
(176,469,qs),
(176,435,o),
(164,401,o),
(155,382,q),
(159,369,o),
(172,344,o),
(183,344,qs)
);
},
{
closed = 1;
nodes = (
(52,378,o),
(62,356,o),
(79,342,o),
(99,354,o),
(110,384,q),
(104,399,o),
(97,424,o),
(94,461,o),
(95,494,qs),
(95,519,o),
(97,526,qs),
(99,534,o),
(100,520,o),
(106,501,o),
(116,501,qs),
(119,501,o),
(132,522,o),
(134,529,q),
(135,539,o),
(121,554,o),
(105,563,o),
(104,563,qs),
(103,563,o),
(98,561,o),
(83,553,qs),
(77,549,o),
(64,559,o),
(56,562,qs),
(49,564,o),
(24,542,o),
(24,534,qs),
(24,525,o),
(38,501,o),
(43,501,qs),
(49,501,o),
(54,515,o),
(57,528,o),
(60,528,q),
(63,527,o),
(64,511,qs),
(68,453,o),
(51,385,o),
(52,383,q)
);
}
);
width = 359;
}
);
note = uni2122;
unicode = 8482;
},
{
glyphname = uni2212;
lastChange = "2026-06-24 21:12:53 +0000";
layers = (
{
layerId = m01;
shapes = (
{
closed = 1;
nodes = (
(224,203,l),
(228,228,o),
(229,237,o),
(229,239,qs),
(229,246,l),
(228,247,o),
(199,248,o),
(165,248,o),
(157,248,qs),
(108,248,o),
(54,248,o),
(31,248,o),
(26,247,o),
(26,247,q),
(25,247,o),
(24,225,o),
(24,224,qs),
(24,201,l)
);
}
);
width = 254;
}
);
note = uni2212;
unicode = 8722;
},
{
glyphname = uni0021;
lastChange = "2026-06-24 21:12:53 +0000";
layers = (
{
layerId = m01;
shapes = (
{
closed = 1;
nodes = (
(98,223,o),
(105,239,o),
(109,285,qs),
(125,422,o),
(160,553,o),
(160,569,qs),
(160,578,o),
(141,624,o),
(116,669,o),
(107,678,qs),
(92,690,o),
(59,656,o),
(31,596,o),
(24,567,q),
(39,506,o),
(65,378,o),
(76,279,qs),
(79,240,o),
(84,223,o),
(91,223,qs)
);
},
{
closed = 1;
nodes = (
(143,64,o),
(138,120,o),
(117,161,o),
(95,184,o),
(93,184,qs),
(86,184,o),
(64,155,o),
(46,113,o),
(44,97,qs),
(42,80,o),
(57,34,o),
(83,0,o),
(114,1,o),
(128,32,qs)
);
}
);
width = 185;
}
);
note = uni0021;
unicode = 33;
},
{
glyphname = uni0022;
lastChange = "2026-06-24 21:12:53 +0000";
layers = (
{
layerId = m01;
shapes = (
{
closed = 1;
nodes = (
(195,526,o),
(199,553,qs),
(205,589,o),
(225,624,o),
(225,644,qs),
(225,654,o),
(223,662,o),
(218,669,qs),
(205,687,o),
(170,690,o),
(144,666,o),
(144,643,qs),
(144,632,o),
(147,619,o),
(153,605,qs),
(164,582,o),
(169,546,o),
(175,526,o),
(185,526,qs)
);
},
{
closed = 1;
nodes = (
(75,526,o),
(79,553,qs),
(85,589,o),
(105,624,o),
(105,644,qs),
(105,654,o),
(104,658,qs),
(100,673,o),
(75,689,o),
(45,687,o),
(24,665,o),
(24,643,qs),
(24,631,o),
(28,618,o),
(34,605,qs),
(45,578,o),
(50,543,o),
(55,526,o),
(65,526,qs)
);
}
);
width = 250;
}
);
note = uni0022;
unicode = 34;
},
{
glyphname = uni0023;
lastChange = "2026-06-24 21:12:53 +0000";
layers = (
{
layerId = m01;
shapes = (
{
closed = 1;
nodes = (
(158,-34,o),
(159,-33,q),
(161,-33,o),
(168,-9,qs),
(174,12,o),
(185,51,o),
(196,103,o),
(203,143,q),
(260,142,o),
(299,140,o),
(300,139,qs),
(301,138,o),
(294,106,o),
(284,58,o),
(273,9,o),
(266,-27,o),
(266,-31,q),
(266,-31,o),
(288,-33,o),
(302,-33,qs),
(336,-34,l),
(348,11,o),
(365,89,o),
(375,139,o),
(378,142,qs),
(379,143,o),
(405,145,o),
(431,145,o),
(431,145,q),
(482,146,l),
(482,146,o),
(488,176,o),
(494,206,o),
(494,208,qs),
(494,211,o),
(476,213,o),
(449,213,qs),
(431,213,o),
(401,214,o),
(400,215,qs),
(397,217,o),
(402,251,o),
(411,295,o),
(419,330,o),
(419,333,qs),
(419,334,o),
(444,335,o),
(472,335,o),
(477,335,qs),
(535,335,l),
(537,346,l),
(537,354,o),
(542,379,o),
(545,401,o),
(543,403,q),
(542,406,o),
(511,406,o),
(471,405,o),
(440,405,o),
(438,407,qs),
(436,410,o),
(443,447,qs),
(445,459,o),
(455,506,o),
(465,556,o),
(473,591,o),
(473,592,qs),
(473,593,o),
(457,594,o),
(438,594,o),
(436,594,qs),
(401,595,l),
(381,519,o),
(362,414,o),
(358,410,qs),
(357,409,o),
(330,407,o),
(294,405,o),
(264,405,o),
(261,407,qs),
(259,409,o),
(281,509,o),
(300,596,qs),
(300,597,o),
(289,597,qs),
(263,597,ls),
(236,597,o),
(225,595,o),
(224,590,qs),
(224,589,o),
(205,498,o),
(186,408,q),
(130,407,o),
(74,405,q),
(71,375,o),
(70,361,o),
(70,352,qs),
(70,339,l),
(71,337,o),
(101,335,o),
(121,335,qs),
(127,335,o),
(151,335,o),
(171,334,o),
(171,333,q),
(171,333,o),
(164,298,o),
(154,254,o),
(145,219,o),
(144,218,q),
(141,217,o),
(112,215,o),
(85,215,o),
(85,215,q),
(30,214,l),
(25,170,o),
(24,148,o),
(30,148,qs),
(31,148,o),
(67,146,o),
(113,144,o),
(126,143,q),
(126,142,o),
(120,112,o),
(111,66,o),
(100,18,o),
(92,-19,o),
(90,-25,qs),
(89,-30,o),
(94,-31,qs),
(97,-32,o),
(123,-33,o),
(147,-34,o),
(147,-34,q)
);
},
{
closed = 1;
nodes = (
(256,216,o),
(239,216,o),
(222,217,q),
(222,217,o),
(229,252,o),
(239,299,o),
(246,335,o),
(246,335,q),
(295,335,ls),
(324,335,o),
(344,332,o),
(344,332,q),
(344,330,o),
(337,296,o),
(329,255,o),
(322,224,o),
(322,224,q),
(321,218,o),
(307,216,o),
(271,216,qs)
);
}
);
width = 568;
}
);
note = uni0023;
unicode = 35;
},
{
glyphname = uni0027;
lastChange = "2026-06-24 21:12:53 +0000";
layers = (
{
layerId = m01;
shapes = (
{
closed = 1;
nodes = (
(75,527,o),
(79,554,qs),
(85,590,o),
(105,625,o),
(105,645,qs),
(105,655,o),
(104,659,qs),
(100,674,o),
(75,690,o),
(45,688,o),
(24,666,o),
(24,644,qs),
(24,632,o),
(28,619,o),
(34,606,qs),
(45,579,o),
(50,544,o),
(55,527,o),
(65,527,qs)
);
}
);
width = 130;
}
);
note = uni0027;
unicode = 39;
},
{
glyphname = uni0028;
lastChange = "2026-06-24 21:12:53 +0000";
layers = (
{
layerId = m01;
shapes = (
{
closed = 1;
nodes = (
(148,-34,o),
(165,-23,o),
(179,-11,o),
(179,-9,qs),
(179,-4,o),
(174,0,qs),
(160,12,o),
(137,55,o),
(120,99,o),
(110,132,o),
(109,135,qs),
(86,217,o),
(88,374,o),
(117,459,qs),
(132,504,o),
(161,547,o),
(179,567,q),
(170,576,o),
(146,597,o),
(141,597,qs),
(139,597,o),
(126,587,qs),
(45,522,o),
(28,338,qs),
(23,289,o),
(32,191,o),
(38,160,qs),
(49,94,o),
(91,8,o),
(133,-34,o),
(143,-34,qs)
);
}
);
width = 202;
}
);
note = uni0028;
unicode = 40;
},
{
glyphname = uni0029;
lastChange = "2026-06-24 21:12:53 +0000";
layers = (
{
layerId = m01;
shapes = (
{
closed = 1;
nodes = (
(65,-34,o),
(78,-24,qs),
(108,-3,o),
(151,88,o),
(175,206,o),
(178,335,o),
(158,458,o),
(113,558,o),
(77,587,qs),
(64,597,o),
(61,597,qs),
(59,597,o),
(44,586,qs),
(28,574,o),
(27,564,o),
(38,551,qs),
(61,524,o),
(102,421,o),
(120,284,o),
(101,130,o),
(64,53,qs),
(51,25,o),
(33,3,o),
(24,-4,o),
(24,-9,qs),
(24,-11,o),
(38,-23,o),
(55,-34,o),
(60,-34,qs)
);
}
);
width = 202;
}
);
note = uni0029;
unicode = 41;
},
{
glyphname = uni002A;
lastChange = "2026-06-24 21:12:53 +0000";
layers = (
{
layerId = m01;
shapes = (
{
closed = 1;
nodes = (
(219,205,o),
(226,233,o),
(226,263,qs),
(225,309,o),
(215,359,o),
(208,379,o),
(210,380,q),
(217,375,o),
(232,348,o),
(254,324,qs),
(292,282,o),
(330,272,o),
(348,300,qs),
(355,312,o),
(355,327,o),
(347,338,qs),
(343,343,o),
(304,366,o),
(256,388,o),
(240,393,qs),
(224,398,o),
(227,402,q),
(227,403,o),
(254,413,o),
(294,430,o),
(333,449,o),
(360,470,o),
(360,479,qs),
(360,484,o),
(348,504,o),
(333,522,o),
(329,523,q),
(323,526,o),
(288,504,o),
(248,472,o),
(218,447,o),
(216,447,qs),
(212,447,o),
(217,458,q),
(219,467,o),
(221,503,o),
(223,534,o),
(223,534,q),
(225,576,o),
(223,597,o),
(217,600,q),
(216,600,o),
(193,605,o),
(167,607,o),
(163,601,qs),
(160,597,o),
(158,568,o),
(159,540,o),
(159,538,qs),
(161,490,o),
(171,454,o),
(178,448,o),
(175,445,qs),
(174,444,o),
(153,461,o),
(125,487,o),
(97,512,o),
(88,518,qs),
(70,531,o),
(46,524,o),
(32,501,o),
(27,475,o),
(29,470,qs),
(32,461,o),
(62,442,o),
(97,426,o),
(123,416,o),
(123,416,q),
(129,414,o),
(149,405,o),
(159,398,o),
(150,398,qs),
(149,398,o),
(113,382,o),
(65,358,o),
(27,334,o),
(25,325,qs),
(24,321,o),
(40,295,o),
(67,276,o),
(83,282,qs),
(90,284,o),
(118,312,o),
(148,347,o),
(172,373,o),
(175,373,qs),
(176,373,o),
(169,337,o),
(159,285,o),
(153,238,o),
(156,228,qs),
(159,216,o),
(184,204,o),
(197,205,qs)
);
}
);
width = 384;
}
);
note = uni002A;
unicode = 42;
},
{
glyphname = uni002C;
lastChange = "2026-06-24 21:12:53 +0000";
layers = (
{
layerId = m01;
shapes = (
{
closed = 1;
nodes = (
(60,-105,o),
(67,-98,qs),
(76,-89,o),
(96,-44,o),
(115,7,o),
(126,48,o),
(128,54,q),
(130,76,o),
(106,115,o),
(78,140,o),
(76,140,qs),
(71,140,o),
(46,116,o),
(24,80,o),
(24,62,qs),
(24,42,o),
(44,13,o),
(62,-13,o),
(62,-28,qs),
(62,-37,o),
(57,-52,o),
(47,-72,qs),
(36,-96,o),
(38,-105,o),
(50,-105,qs)
);
}
);
width = 154;
}
);
note = uni002C;
unicode = 44;
},
{
glyphname = uni002D;
lastChange = "2026-06-24 21:12:53 +0000";
layers = (
{
layerId = m01;
shapes = (
{
closed = 1;
nodes = (
(152,192,l),
(155,209,o),
(157,230,o),
(157,231,qs),
(157,236,o),
(155,238,qs),
(154,239,o),
(124,240,o),
(93,240,o),
(90,240,qs),
(66,240,o),
(26,239,o),
(26,238,q),
(25,238,o),
(24,217,o),
(24,214,qs),
(24,192,l)
);
}
);
width = 182;
}
);
note = uni002D;
unicode = 45;
},
{
glyphname = uni002E;
lastChange = "2026-06-24 21:12:53 +0000";
layers = (
{
layerId = m01;
shapes = (
{
closed = 1;
nodes = (
(87,0,o),
(94,6,q),
(105,12,o),
(122,42,o),
(133,71,o),
(134,78,qs),
(136,100,o),
(115,140,o),
(87,165,o),
(82,165,qs),
(75,165,o),
(51,142,o),
(32,113,o),
(30,103,qs),
(24,80,o),
(43,32,o),
(74,0,o),
(84,0,qs)
);
}
);
width = 160;
}
);
note = uni002E;
unicode = 46;
},
{
glyphname = uni002F;
lastChange = "2026-06-24 21:13:04 +0000";
layers = (
{
layerId = m01;
shapes = (
{
closed = 1;
nodes = (
(66,-33,o),
(70,-19,o),
(71,-11,qs),
(73,-2,o),
(89,76,o),
(98,122,qs),
(114,200,o),
(143,345,o),
(168,467,o),
(177,508,qs),
(183,537,o),
(193,583,o),
(193,587,q),
(195,597,l),
(153,597,l),
(142,543,ls),
(137,520,o),
(121,445,o),
(115,415,qs),
(111,395,o),
(99,337,o),
(86,276,o),
(81,251,qs),
(77,226,o),
(63,161,o),
(50,96,o),
(45,71,qs),
(37,34,o),
(25,-22,o),
(24,-25,q),
(24,-30,o),
(28,-32,o),
(43,-33,qs),
(52,-34,o),
(65,-34,o),
(65,-34,q)
);
}
);
width = 219;
}
);
note = uni002F;
unicode = 47;
},
{
glyphname = uni003A;
lastChange = "2026-06-24 21:12:53 +0000";
layers = (
{
layerId = m01;
shapes = (
{
closed = 1;
nodes = (
(86,282,o),
(115,316,o),
(125,341,qs),
(133,360,o),
(121,394,o),
(99,423,o),
(78,440,o),
(77,440,qs),
(71,440,o),
(49,416,o),
(28,383,o),
(25,370,qs),
(24,360,o),
(43,317,o),
(69,282,o),
(77,282,qs)
);
},
{
closed = 1;
nodes = (
(89,0,o),
(111,29,o),
(128,66,o),
(129,80,qs),
(130,94,o),
(112,131,o),
(91,159,o),
(86,162,qs),
(78,166,o),
(50,147,o),
(28,107,o),
(28,81,qs),
(28,55,o),
(49,18,o),
(73,0,o),
(81,0,qs)
);
}
);
width = 157;
}
);
note = uni003A;
unicode = 58;
},
{
glyphname = uni003B;
lastChange = "2026-06-24 21:12:53 +0000";
layers = (
{
layerId = m01;
shapes = (
{
closed = 1;
nodes = (
(67,-105,o),
(96,-58,o),
(118,4,o),
(133,56,o),
(132,61,qs),
(130,74,o),
(109,109,o),
(84,135,o),
(78,132,q),
(77,132,o),
(59,116,o),
(37,89,o),
(26,56,o),
(32,40,qs),
(37,24,o),
(61,-11,o),
(64,-20,qs),
(69,-31,o),
(58,-64,o),
(43,-92,o),
(43,-99,qs),
(43,-105,o),
(53,-105,qs)
);
},
{
closed = 1;
nodes = (
(91,256,o),
(116,290,o),
(135,329,o),
(134,339,qs),
(132,349,o),
(110,382,o),
(86,410,o),
(80,410,qs),
(74,410,o),
(46,380,o),
(24,341,o),
(28,325,q),
(30,321,o),
(42,297,o),
(60,268,o),
(78,250,o),
(84,253,qs)
);
}
);
width = 159;
}
);
note = uni003B;
unicode = 59;
},
{
glyphname = uni003F;
lastChange = "2026-06-24 21:12:53 +0000";
layers = (
{
layerId = m01;
shapes = (
{
closed = 1;
nodes = (
(172,225,o),
(170,279,o),
(176,306,qs),
(182,335,o),
(230,380,o),
(254,413,qs),
(271,438,o),
(288,507,o),
(292,569,o),
(288,582,qs),
(283,601,o),
(253,644,o),
(218,678,o),
(207,684,qs),
(193,690,o),
(174,671,o),
(161,648,o),
(154,648,qs),
(151,648,o),
(132,664,o),
(131,666,q),
(116,682,o),
(101,686,o),
(90,677,q),
(90,677,o),
(70,653,o),
(44,615,o),
(24,570,o),
(24,548,qs),
(24,524,o),
(47,508,q),
(57,503,o),
(83,481,o),
(83,481,q),
(105,465,o),
(123,461,o),
(131,467,qs),
(147,480,o),
(144,528,o),
(140,552,q),
(160,578,o),
(192,560,o),
(192,518,qs),
(191,501,o),
(189,476,o),
(179,444,o),
(158,389,o),
(138,339,q),
(139,301,ls),
(139,288,o),
(141,252,o),
(152,223,o),
(165,223,q)
);
},
{
closed = 1;
nodes = (
(212,94,o),
(193,151,o),
(168,185,o),
(168,185,q),
(160,193,o),
(138,169,o),
(118,130,o),
(115,118,qs),
(111,103,o),
(113,81,qs),
(115,44,o),
(149,0,o),
(191,13,o),
(203,59,qs)
);
}
);
width = 315;
}
);
note = uni003F;
unicode = 63;
},
{
glyphname = uni005B;
lastChange = "2026-06-24 21:12:53 +0000";
layers = (
{
layerId = m01;
shapes = (
{
closed = 1;
nodes = (
(169,-25,o),
(170,-14,o),
(172,9,q),
(118,11,o),
(65,12,q),
(65,554,l),
(116,556,o),
(167,557,q),
(173,594,o),
(172,595,qs),
(171,596,o),
(150,597,o),
(125,597,o),
(119,597,qs),
(39,597,ls),
(24,597,o),
(24,596,qs),
(24,203,ls),
(24,186,o),
(24,120,o),
(25,51,o),
(25,3,o),
(25,2,qs),
(25,-30,l),
(54,-31,o),
(77,-32,o),
(96,-32,qs),
(166,-34,l)
);
}
);
width = 197;
}
);
note = uni005B;
unicode = 91;
},
{
glyphname = uni005C;
lastChange = "2026-06-24 21:12:53 +0000";
layers = (
{
layerId = m01;
shapes = (
{
closed = 1;
nodes = (
(161,-34,ls),
(167,-34,o),
(175,-33,qs),
(190,-32,o),
(195,-30,o),
(194,-25,qs),
(194,-23,o),
(192,-13,o),
(184,23,o),
(168,100,o),
(140,236,o),
(97,446,o),
(66,597,q),
(24,597,l),
(24,593,o),
(39,520,o),
(62,407,o),
(90,274,o),
(117,142,o),
(140,32,o),
(154,-34,o),
(154,-34,q)
);
}
);
width = 219;
}
);
note = uni005C;
unicode = 92;
},
{
glyphname = uni005D;
lastChange = "2026-06-24 21:12:53 +0000";
layers = (
{
layerId = m01;
shapes = (
{
closed = 1;
nodes = (
(102,-32,ls),
(124,-32,o),
(148,-31,o),
(172,-30,qs),
(173,-30,o),
(173,13,qs),
(173,597,l),
(61,597,ls),
(50,597,o),
(41,597,o),
(24,595,q),
(25,583,o),
(27,574,o),
(29,567,o),
(30,558,q),
(81,556,o),
(132,555,q),
(132,12,l),
(105,12,o),
(51,10,o),
(25,9,q),
(27,-16,o),
(28,-27,o),
(32,-34,q)
);
}
);
width = 198;
}
);
note = uni005D;
unicode = 93;
},
{
glyphname = uni005F;
lastChange = "2026-06-24 21:12:53 +0000";
layers = (
{
layerId = m01;
shapes = (
{
closed = 1;
nodes = (
(120,-83,ls),
(173,-83,o),
(217,-82,o),
(217,-81,q),
(219,-79,o),
(222,-59,o),
(223,-39,o),
(222,-38,q),
(184,-37,o),
(126,-36,o),
(95,-36,qs),
(73,-36,o),
(49,-36,o),
(26,-37,q),
(25,-39,o),
(24,-58,o),
(24,-77,o),
(24,-77,q),
(24,-83,l)
);
}
);
width = 247;
}
);
note = uni005F;
unicode = 95;
},
{
glyphname = uni007B;
lastChange = "2026-06-24 21:12:53 +0000";
layers = (
{
layerId = m01;
shapes = (
{
closed = 1;
nodes = (
(184,-35,o),
(194,-28,o),
(194,-7,qs),
(194,14,l),
(166,17,o),
(155,19,o),
(150,21,qs),
(142,25,o),
(135,39,o),
(133,86,o),
(133,140,qs),
(133,179,o),
(132,228,o),
(131,236,q),
(126,255,o),
(110,275,o),
(97,284,o),
(97,289,qs),
(97,294,o),
(106,298,o),
(119,315,qs),
(126,325,o),
(132,349,o),
(133,396,o),
(133,440,qs),
(133,502,ls),
(133,534,o),
(137,538,qs),
(139,541,o),
(167,547,o),
(194,551,o),
(194,551,q),
(195,558,o),
(196,569,o),
(198,597,q),
(177,597,ls),
(143,597,o),
(100,578,o),
(79,557,o),
(77,555,q),
(74,550,o),
(71,531,o),
(69,485,o),
(68,399,o),
(67,329,q),
(54,319,o),
(43,313,o),
(25,307,q),
(24,287,ls),
(24,273,o),
(25,270,q),
(25,267,o),
(39,261,o),
(40,261,qs),
(43,261,o),
(61,247,o),
(64,242,qs),
(66,238,o),
(68,176,o),
(68,132,qs),
(69,79,o),
(70,34,o),
(73,21,o),
(76,16,qs),
(98,-27,o),
(159,-33,qs)
);
}
);
width = 222;
}
);
note = uni007B;
unicode = 123;
},
{
glyphname = uni007D;
lastChange = "2026-06-24 21:12:53 +0000";
layers = (
{
layerId = m01;
shapes = (
{
closed = 1;
nodes = (
(32,-32,o),
(58,-34,o),
(96,-28,o),
(134,-7,o),
(146,16,qs),
(149,21,o),
(152,36,o),
(153,81,o),
(153,132,qs),
(154,181,o),
(156,239,o),
(158,242,qs),
(161,247,o),
(178,261,o),
(182,261,qs),
(185,261,o),
(191,265,q),
(196,267,o),
(198,274,o),
(197,287,qs),
(197,307,l),
(179,313,o),
(169,319,o),
(155,329,q),
(153,435,ls),
(153,474,o),
(152,526,o),
(150,538,qs),
(146,558,o),
(110,584,o),
(63,597,o),
(43,597,qs),
(24,597,l),
(26,575,ls),
(26,568,o),
(27,559,o),
(28,551,q),
(55,546,o),
(78,541,o),
(84,539,o),
(85,538,qs),
(88,535,o),
(89,477,o),
(89,440,qs),
(89,422,o),
(89,379,o),
(91,343,o),
(92,336,q),
(98,317,o),
(124,293,o),
(124,289,qs),
(124,286,o),
(113,275,qs),
(101,263,o),
(91,242,o),
(89,193,o),
(89,140,qs),
(89,97,o),
(89,76,qs),
(88,48,o),
(82,24,o),
(56,17,o),
(27,14,q),
(27,-7,ls),
(27,-29,o),
(32,-32,q)
);
}
);
width = 222;
}
);
note = uni007D;
unicode = 125;
},
{
glyphname = uni00A1;
lastChange = "2026-06-24 21:12:53 +0000";
layers = (
{
layerId = m01;
shapes = (
{
closed = 1;
nodes = (
(116,-139,o),
(141,-95,o),
(160,-48,o),
(160,-38,qs),
(160,-36,o),
(155,-13,o),
(150,9,o),
(150,9,q),
(131,85,o),
(112,212,o),
(104,293,o),
(101,300,qs),
(99,306,o),
(83,304,o),
(81,299,q),
(81,293,o),
(77,271,o),
(76,250,qs),
(69,185,o),
(53,88,o),
(34,5,o),
(24,-37,q),
(31,-65,o),
(58,-125,o),
(92,-160,o),
(107,-147,qs)
);
},
{
closed = 1;
nodes = (
(99,343,o),
(109,357,qs),
(132,390,o),
(143,440,o),
(136,475,o),
(132,485,qs),
(120,516,o),
(94,530,o),
(69,511,o),
(50,476,o),
(46,459,qs),
(40,431,o),
(60,377,o),
(88,343,o),
(93,343,qs)
);
}
);
width = 185;
}
);
note = uni00A1;
unicode = 161;
},
{
glyphname = uni00AB;
lastChange = "2026-06-24 21:12:53 +0000";
layers = (
{
layerId = m01;
shapes = (
{
closed = 1;
nodes = (
(180,52,o),
(182,56,q),
(184,58,o),
(170,90,o),
(149,135,o),
(126,179,o),
(111,211,o),
(111,214,qs),
(111,220,o),
(127,253,o),
(151,294,o),
(174,332,o),
(191,358,o),
(191,358,q),
(180,373,o),
(169,387,o),
(161,397,o),
(154,406,qs),
(145,416,o),
(139,416,o),
(131,403,qs),
(116,379,o),
(93,341,o),
(71,301,o),
(44,250,o),
(24,213,q),
(39,186,o),
(71,131,o),
(92,94,o),
(93,93,q),
(107,67,o),
(121,43,o),
(132,28,o),
(143,15,q)
);
},
{
closed = 1;
nodes = (
(287,20,o),
(310,39,o),
(329,63,o),
(324,69,q),
(319,79,o),
(295,124,o),
(268,174,o),
(249,212,o),
(249,215,qs),
(249,220,o),
(272,262,o),
(303,313,o),
(326,353,o),
(326,357,qs),
(326,361,o),
(306,389,o),
(285,416,o),
(283,416,qs),
(279,416,o),
(254,376,o),
(221,317,o),
(190,256,o),
(169,212,o),
(169,209,qs),
(169,204,o),
(192,160,o),
(223,104,o),
(251,56,o),
(257,48,qs),
(274,23,o),
(284,18,o),
(287,20,q)
);
}
);
width = 351;
}
);
note = uni00AB;
unicode = 171;
},
{
glyphname = uni00B7;
lastChange = "2026-06-24 21:12:53 +0000";
layers = (
{
layerId = m01;
shapes = (
{
closed = 1;
nodes = (
(65,166,o),
(94,177,o),
(111,209,o),
(110,249,o),
(96,265,qs),
(78,285,o),
(44,276,o),
(25,238,o),
(29,192,o),
(50,177,qs)
);
}
);
width = 132;
}
);
note = uni00B7;
unicode = 183;
},
{
glyphname = uni00BB;
lastChange = "2026-06-24 21:12:53 +0000";
layers = (
{
layerId = m01;
shapes = (
{
closed = 1;
nodes = (
(218,27,o),
(231,46,o),
(252,81,o),
(292,150,o),
(327,213,q),
(327,214,o),
(309,247,o),
(282,297,o),
(252,352,o),
(224,398,o),
(216,411,qs),
(212,416,o),
(204,414,o),
(183,389,o),
(160,358,q),
(198,300,o),
(232,239,o),
(240,215,o),
(240,214,qs),
(240,212,o),
(229,187,o),
(214,158,o),
(203,135,o),
(203,135,q),
(186,101,o),
(167,59,o),
(169,56,q),
(169,56,o),
(182,41,o),
(209,15,q)
);
},
{
closed = 1;
nodes = (
(81,28,o),
(108,69,o),
(138,121,o),
(165,171,o),
(182,206,o),
(182,209,qs),
(182,213,o),
(162,256,o),
(130,317,o),
(98,376,o),
(72,415,o),
(68,415,qs),
(66,415,o),
(45,388,o),
(25,359,o),
(25,357,qs),
(25,354,o),
(48,314,o),
(79,262,o),
(102,220,o),
(102,215,qs),
(102,212,o),
(87,182,o),
(66,140,o),
(43,98,o),
(28,70,o),
(27,69,qs),
(23,63,o),
(43,37,o),
(68,17,o),
(72,20,qs)
);
}
);
width = 351;
}
);
note = uni00BB;
unicode = 187;
},
{
glyphname = uni00BF;
lastChange = "2026-06-24 21:12:53 +0000";
layers = (
{
layerId = m01;
shapes = (
{
closed = 1;
nodes = (
(114,-156,o),
(132,-138,o),
(150,-121,o),
(154,-121,qs),
(159,-121,o),
(170,-137,qs),
(183,-157,o),
(206,-160,o),
(228,-142,qs),
(261,-111,o),
(287,-63,o),
(291,-28,o),
(291,-17,qs),
(288,32,o),
(268,94,o),
(238,134,o),
(221,153,qs),
(199,177,o),
(179,206,o),
(172,240,o),
(171,266,qs),
(170,294,o),
(165,309,o),
(153,298,qs),
(145,291,o),
(139,260,o),
(139,226,qs),
(138,188,l),
(164,124,o),
(183,72,o),
(187,55,qs),
(195,17,o),
(186,-39,o),
(160,-52,o),
(140,-26,q),
(145,3,o),
(146,48,o),
(131,59,qs),
(122,67,o),
(104,62,o),
(83,45,qs),
(54,22,o),
(29,1,o),
(24,-10,o),
(24,-21,qs),
(24,-49,o),
(39,-79,q),
(64,-121,o),
(93,-154,o),
(106,-159,o),
(109,-157,q)
);
},
{
closed = 1;
nodes = (
(205,400,o),
(209,458,o),
(194,496,o),
(175,517,o),
(175,517,q),
(153,530,o),
(121,493,o),
(109,432,o),
(115,409,qs),
(120,391,o),
(133,370,qs),
(153,337,o),
(171,342,o),
(182,361,qs)
);
}
);
width = 315;
}
);
note = uni00BF;
unicode = 191;
},
{
glyphname = uni2013;
lastChange = "2026-06-24 21:12:53 +0000";
layers = (
{
layerId = m01;
shapes = (
{
closed = 1;
nodes = (
(224,203,l),
(228,228,o),
(229,237,o),
(229,239,qs),
(229,246,l),
(228,247,o),
(199,248,o),
(165,248,o),
(157,248,qs),
(108,248,o),
(54,248,o),
(31,248,o),
(26,247,o),
(26,247,q),
(25,247,o),
(24,225,o),
(24,224,qs),
(24,201,l)
);
}
);
width = 254;
}
);
note = uni2013;
unicode = 8211;
},
{
glyphname = uni2014;
lastChange = "2026-06-24 21:12:53 +0000";
layers = (
{
layerId = m01;
shapes = (
{
closed = 1;
nodes = (
(313,202,l),
(321,234,o),
(321,245,o),
(314,247,qs),
(313,247,o),
(272,248,o),
(206,248,o),
(167,248,qs),
(74,248,ls),
(26,248,o),
(26,244,q),
(24,241,o),
(24,221,qs),
(24,202,l)
);
}
);
width = 346;
}
);
note = uni2014;
unicode = 8212;
},
{
glyphname = uni2018;
lastChange = "2026-06-24 21:12:53 +0000";
layers = (
{
layerId = m01;
shapes = (
{
closed = 1;
nodes = (
(75,527,o),
(79,553,qs),
(85,590,o),
(105,625,o),
(105,645,qs),
(105,655,o),
(104,659,qs),
(100,674,o),
(75,690,o),
(45,688,o),
(24,666,o),
(24,644,qs),
(24,632,o),
(28,619,o),
(34,606,qs),
(45,579,o),
(50,544,o),
(55,527,o),
(65,527,qs)
);
}
);
width = 130;
}
);
note = uni2018;
unicode = 8216;
},
{
glyphname = uni2019;
lastChange = "2026-06-24 21:12:53 +0000";
layers = (
{
layerId = m01;
shapes = (
{
closed = 1;
nodes = (
(75,527,o),
(79,553,qs),
(85,590,o),
(105,625,o),
(105,645,qs),
(105,655,o),
(104,659,qs),
(100,674,o),
(75,690,o),
(45,688,o),
(24,666,o),
(24,644,qs),
(24,632,o),
(28,619,o),
(34,606,qs),
(45,579,o),
(50,544,o),
(55,527,o),
(65,527,qs)
);
}
);
width = 130;
}
);
note = uni2019;
unicode = 8217;
},
{
glyphname = uni201A;
lastChange = "2026-06-24 21:12:53 +0000";
layers = (
{
layerId = m01;
shapes = (
{
closed = 1;
nodes = (
(55,121,o),
(61,127,qs),
(69,135,o),
(87,173,o),
(103,216,o),
(113,251,o),
(114,256,qs),
(116,275,o),
(94,309,o),
(70,329,o),
(69,329,qs),
(65,329,o),
(43,309,o),
(24,278,o),
(24,263,qs),
(24,246,o),
(41,222,o),
(57,200,o),
(57,186,qs),
(57,179,o),
(53,166,o),
(44,149,qs),
(34,129,o),
(36,121,o),
(47,121,qs)
);
}
);
width = 139;
}
);
note = uni201A;
unicode = 8218;
},
{
glyphname = uni201C;
lastChange = "2026-06-24 21:12:53 +0000";
layers = (
{
layerId = m01;
shapes = (
{
closed = 1;
nodes = (
(195,526,o),
(199,552,qs),
(205,589,o),
(225,624,o),
(225,644,qs),
(225,654,o),
(223,662,o),
(218,669,qs),
(205,687,o),
(170,690,o),
(144,666,o),
(144,643,qs),
(144,632,o),
(147,619,o),
(153,605,qs),
(164,581,o),
(169,546,o),
(174,526,o),
(185,526,qs)
);
},
{
closed = 1;
nodes = (
(75,526,o),
(79,552,qs),
(85,589,o),
(105,624,o),
(105,644,qs),
(105,654,o),
(104,658,qs),
(100,673,o),
(75,689,o),
(45,687,o),
(24,665,o),
(24,643,qs),
(24,631,o),
(28,618,o),
(34,605,qs),
(45,578,o),
(50,543,o),
(55,526,o),
(65,526,qs)
);
}
);
width = 250;
}
);
note = uni201C;
unicode = 8220;
},
{
glyphname = uni201D;
lastChange = "2026-06-24 21:12:53 +0000";
layers = (
{
layerId = m01;
shapes = (
{
closed = 1;
nodes = (
(195,526,o),
(199,552,qs),
(205,589,o),
(225,624,o),
(225,644,qs),
(225,654,o),
(223,662,o),
(218,669,qs),
(205,687,o),
(170,690,o),
(144,666,o),
(144,643,qs),
(144,632,o),
(147,619,o),
(153,605,qs),
(164,581,o),
(169,546,o),
(174,526,o),
(185,526,qs)
);
},
{
closed = 1;
nodes = (
(75,526,o),
(79,552,qs),
(85,589,o),
(105,624,o),
(105,644,qs),
(105,654,o),
(104,658,qs),
(100,673,o),
(75,689,o),
(45,687,o),
(24,665,o),
(24,643,qs),
(24,631,o),
(28,618,o),
(34,605,qs),
(45,578,o),
(50,543,o),
(55,526,o),
(65,526,qs)
);
}
);
width = 250;
}
);
note = uni201D;
unicode = 8221;
},
{
glyphname = uni201E;
lastChange = "2026-06-24 21:12:53 +0000";
layers = (
{
layerId = m01;
shapes = (
{
closed = 1;
nodes = (
(55,121,o),
(61,127,qs),
(69,135,o),
(87,173,o),
(103,216,o),
(113,251,o),
(114,256,qs),
(116,275,o),
(94,309,o),
(70,329,o),
(69,329,qs),
(65,329,o),
(43,309,o),
(24,278,o),
(24,263,qs),
(24,246,o),
(41,222,o),
(57,200,o),
(57,186,qs),
(57,179,o),
(53,166,o),
(44,149,qs),
(34,129,o),
(36,121,o),
(47,121,qs)
);
},
{
closed = 1;
nodes = (
(184,121,o),
(190,127,qs),
(197,134,o),
(215,170,o),
(231,213,o),
(242,249,o),
(243,256,qs),
(243,266,o),
(243,271,qs),
(242,279,o),
(223,307,o),
(202,329,o),
(198,329,qs),
(194,329,o),
(172,308,o),
(153,278,o),
(153,263,qs),
(153,246,o),
(169,222,o),
(186,200,o),
(186,186,qs),
(186,179,o),
(182,166,o),
(173,149,qs),
(163,129,o),
(165,121,o),
(176,121,qs)
);
}
);
width = 268;
}
);
note = uni201E;
unicode = 8222;
},
{
glyphname = uni2022;
lastChange = "2026-06-24 21:12:53 +0000";
layers = (
{
layerId = m01;
shapes = (
{
closed = 1;
nodes = (
(91,139,o),
(130,162,o),
(152,209,o),
(146,266,o),
(122,290,qs),
(102,309,o),
(61,302,o),
(32,265,o),
(24,213,o),
(36,187,qs),
(48,161,o),
(70,150,qs)
);
}
);
width = 172;
}
);
note = uni2022;
unicode = 8226;
},
{
glyphname = uni2026;
lastChange = "2026-06-24 21:12:53 +0000";
layers = (
{
layerId = m01;
shapes = (
{
closed = 1;
nodes = (
(442,0,o),
(464,31,o),
(479,73,o),
(480,80,qs),
(482,102,o),
(463,140,o),
(439,165,o),
(435,165,q),
(435,165,o),
(415,149,o),
(394,119,o),
(387,76,o),
(398,50,qs),
(411,16,o),
(429,7,qs)
);
},
{
closed = 1;
nodes = (
(52,10,o),
(81,2,o),
(103,31,o),
(116,70,o),
(118,80,qs),
(120,100,o),
(102,140,o),
(79,165,o),
(74,165,qs),
(69,165,o),
(50,143,o),
(32,114,o),
(30,104,qs),
(24,78,o),
(36,50,qs)
);
},
{
closed = 1;
nodes = (
(231,15,o),
(256,1,o),
(276,20,o),
(291,52,o),
(298,80,o),
(299,80,q),
(301,100,o),
(283,140,o),
(259,165,o),
(255,165,qs),
(254,165,o),
(235,149,o),
(213,120,o),
(206,76,o),
(217,50,qs)
);
}
);
width = 501;
}
);
note = uni2026;
unicode = 8230;
},
{
glyphname = uni2039;
lastChange = "2026-06-24 21:12:53 +0000";
layers = (
{
layerId = m01;
shapes = (
{
closed = 1;
nodes = (
(148,15,o),
(170,35,o),
(190,57,o),
(190,59,qs),
(190,60,o),
(170,98,o),
(141,151,o),
(115,202,o),
(108,216,q),
(126,248,ls),
(131,258,o),
(152,295,o),
(174,333,o),
(190,361,o),
(190,361,q),
(190,363,o),
(172,389,o),
(152,415,o),
(149,416,q),
(145,419,o),
(133,403,o),
(116,376,qs),
(97,346,o),
(60,284,o),
(37,242,o),
(37,241,q),
(27,225,o),
(24,217,o),
(27,211,q),
(28,205,o),
(50,162,o),
(82,105,o),
(115,51,o),
(141,15,o),
(146,15,qs)
);
}
);
width = 214;
}
);
note = uni2039;
unicode = 8249;
},
{
glyphname = uni203A;
lastChange = "2026-06-24 21:12:53 +0000";
layers = (
{
layerId = m01;
shapes = (
{
closed = 1;
nodes = (
(73,15,o),
(101,54,o),
(137,113,o),
(170,174,o),
(191,218,o),
(188,222,q),
(188,223,o),
(168,258,o),
(140,307,o),
(129,327,qs),
(95,381,o),
(69,419,o),
(63,415,qs),
(59,412,o),
(40,388,o),
(24,363,o),
(24,360,qs),
(24,359,o),
(28,353,o),
(43,327,o),
(76,269,o),
(106,216,q),
(96,195,o),
(69,142,o),
(42,93,o),
(24,60,o),
(24,59,qs),
(24,56,o),
(44,35,o),
(66,15,o),
(69,15,qs)
);
}
);
width = 213;
}
);
note = uni203A;
unicode = 8250;
},
{
glyphname = uni0030;
lastChange = "2026-06-24 21:12:53 +0000";
layers = (
{
layerId = m01;
shapes = (
{
closed = 1;
nodes = (
(246,46,o),
(285,94,o),
(313,134,o),
(315,142,q),
(316,144,o),
(317,181,o),
(318,236,o),
(319,294,o),
(319,342,o),
(319,352,qs),
(320,552,l),
(276,618,o),
(211,677,o),
(204,682,qs),
(174,700,o),
(131,678,o),
(120,666,q),
(109,657,o),
(77,620,o),
(45,581,o),
(24,552,o),
(24,552,q),
(24,138,l),
(40,112,o),
(81,61,o),
(112,28,o),
(113,27,qs),
(134,3,o),
(173,-6,o),
(204,6,o),
(224,22,o),
(225,24,q)
);
},
{
closed = 1;
nodes = (
(143,111,o),
(134,190,o),
(134,257,qs),
(134,358,l),
(133,546,l),
(139,557,o),
(158,583,o),
(168,583,qs),
(172,583,o),
(197,562,o),
(200,551,qs),
(201,547,o),
(202,502,o),
(203,441,o),
(203,381,o),
(203,341,o),
(203,340,qs),
(203,229,ls),
(203,196,o),
(202,149,o),
(201,141,qs),
(197,123,o),
(178,102,o),
(170,105,q)
);
}
);
width = 344;
}
);
note = uni0030;
unicode = 48;
},
{
glyphname = uni0031;
lastChange = "2026-06-24 21:12:53 +0000";
layers = (
{
layerId = m01;
shapes = (
{
closed = 1;
nodes = (
(154,11,o),
(177,43,o),
(198,80,o),
(212,107,o),
(212,107,q),
(212,113,o),
(204,131,qs),
(197,146,o),
(189,172,o),
(184,214,o),
(183,290,o),
(183,420,o),
(184,522,q),
(194,555,o),
(201,582,o),
(203,589,o),
(203,590,qs),
(203,593,o),
(192,624,o),
(177,663,o),
(165,692,o),
(164,692,q),
(153,685,o),
(144,679,o),
(138,674,qs),
(101,649,o),
(57,632,o),
(35,629,o),
(30,624,qs),
(26,620,o),
(39,594,o),
(59,561,o),
(66,547,qs),
(73,531,o),
(80,462,o),
(81,378,o),
(80,300,o),
(79,249,o),
(79,248,qs),
(77,206,o),
(68,158,o),
(59,131,o),
(52,114,o),
(52,105,qs),
(52,101,o),
(63,77,o),
(74,56,o),
(75,56,q),
(84,39,o),
(104,9,o),
(129,-4,o),
(145,6,qs)
);
}
);
width = 231;
}
);
note = uni0031;
unicode = 49;
},
{
glyphname = uni0032;
lastChange = "2026-06-24 21:12:53 +0000";
layers = (
{
layerId = m01;
shapes = (
{
closed = 1;
nodes = (
(259,-6,o),
(292,22,o),
(322,61,o),
(343,97,o),
(343,104,qs),
(343,107,o),
(337,122,qs),
(324,152,o),
(301,197,o),
(273,215,o),
(252,204,qs),
(239,198,o),
(230,178,o),
(230,151,qs),
(230,126,o),
(228,119,qs),
(225,110,o),
(191,98,o),
(167,119,qs),
(158,126,o),
(148,130,o),
(139,130,qs),
(127,129,o),
(127,132,qs),
(127,133,o),
(162,222,o),
(218,297,qs),
(253,343,o),
(294,403,o),
(314,447,o),
(320,491,o),
(320,522,qs),
(320,556,ls),
(320,576,o),
(287,625,o),
(239,668,o),
(191,694,o),
(177,692,qs),
(164,690,o),
(116,661,o),
(65,620,o),
(29,577,o),
(29,562,qs),
(29,560,o),
(35,524,o),
(48,476,o),
(71,434,o),
(106,418,o),
(130,433,qs),
(170,457,o),
(155,507,qs),
(145,543,o),
(142,556,o),
(142,559,q),
(142,559,o),
(145,571,o),
(158,584,o),
(172,583,qs),
(189,583,o),
(204,550,o),
(204,507,qs),
(204,465,o),
(198,431,qs),
(191,397,o),
(156,318,o),
(113,243,o),
(72,181,o),
(45,143,o),
(44,142,qs),
(32,127,o),
(24,110,o),
(24,105,qs),
(24,98,o),
(38,62,o),
(58,23,o),
(78,-4,o),
(84,-2,qs),
(88,-1,o),
(106,20,o),
(122,42,o),
(122,42,q),
(147,36,ls),
(166,31,o),
(209,11,o),
(242,-6,o),
(248,-6,qs)
);
}
);
width = 367;
}
);
note = uni0032;
unicode = 50;
},
{
glyphname = uni0033;
lastChange = "2026-06-24 21:12:53 +0000";
layers = (
{
layerId = m01;
shapes = (
{
closed = 1;
nodes = (
(213,7,o),
(241,34,o),
(264,62,o),
(268,66,q),
(293,98,o),
(315,134,o),
(319,156,o),
(319,168,qs),
(319,215,o),
(311,289,o),
(274,347,o),
(229,369,qs),
(206,380,o),
(203,388,o),
(223,401,qs),
(238,409,o),
(274,450,o),
(283,469,qs),
(292,487,o),
(304,539,o),
(308,587,o),
(304,597,qs),
(298,608,o),
(258,647,o),
(213,682,o),
(200,688,qs),
(177,699,o),
(119,678,o),
(65,635,o),
(27,589,o),
(25,575,qs),
(24,568,o),
(24,555,qs),
(26,527,o),
(59,474,o),
(79,467,qs),
(95,462,o),
(132,474,o),
(151,512,o),
(139,546,qs),
(134,562,o),
(134,570,qs),
(134,582,o),
(154,590,o),
(178,586,o),
(185,579,qs),
(193,571,o),
(199,529,o),
(196,478,o),
(185,433,o),
(176,421,qs),
(171,414,o),
(160,408,o),
(132,401,o),
(102,395,q),
(96,364,o),
(101,360,qs),
(107,355,o),
(147,355,o),
(162,350,qs),
(180,344,o),
(197,292,o),
(202,224,o),
(202,194,qs),
(203,165,o),
(202,136,o),
(198,123,o),
(195,117,qs),
(190,107,o),
(184,102,o),
(176,101,qs),
(161,101,o),
(145,118,o),
(140,135,o),
(140,136,qs),
(136,154,o),
(145,190,o),
(145,222,qs),
(145,243,o),
(138,263,o),
(118,272,qs),
(95,281,o),
(63,265,o),
(42,229,o),
(31,187,o),
(26,151,o),
(26,143,qs),
(25,134,o),
(28,118,o),
(45,92,o),
(67,69,qs),
(117,15,o),
(178,-9,o),
(203,3,qs)
);
}
);
width = 344;
}
);
note = uni0033;
unicode = 51;
},
{
glyphname = uni0034;
lastChange = "2026-06-24 21:12:53 +0000";
layers = (
{
layerId = m01;
shapes = (
{
closed = 1;
nodes = (
(263,3,ls),
(271,8,o),
(293,38,o),
(310,74,o),
(310,87,qs),
(310,98,o),
(304,124,o),
(306,128,q),
(307,133,o),
(328,137,o),
(352,143,o),
(365,158,o),
(359,173,qs),
(352,188,o),
(328,196,o),
(306,196,o),
(302,200,qs),
(301,201,o),
(299,233,o),
(298,279,o),
(297,325,o),
(297,357,o),
(297,357,q),
(297,412,o),
(298,475,o),
(303,515,o),
(313,553,o),
(323,582,q),
(323,586,o),
(302,617,o),
(277,654,o),
(270,666,qs),
(263,676,o),
(251,692,o),
(249,692,qs),
(246,692,o),
(216,673,o),
(174,647,o),
(154,636,qs),
(121,617,o),
(94,598,o),
(90,591,qs),
(84,582,o),
(101,538,o),
(101,505,qs),
(101,415,o),
(78,296,o),
(47,223,o),
(24,182,o),
(24,170,qs),
(24,164,o),
(49,142,o),
(57,140,q),
(57,140,o),
(104,137,o),
(123,137,qs),
(179,135,l),
(181,105,o),
(190,56,o),
(220,15,o),
(252,-3,q)
);
},
{
closed = 1;
nodes = (
(108,209,ls),
(109,213,o),
(122,257,o),
(139,311,o),
(152,351,o),
(152,352,qs),
(153,355,o),
(163,389,o),
(176,432,o),
(188,464,o),
(191,464,q),
(194,463,o),
(193,442,q),
(192,438,o),
(191,387,o),
(190,318,o),
(189,249,o),
(187,203,o),
(186,202,qs),
(183,198,o),
(145,198,qs),
(106,198,l)
);
}
);
width = 387;
}
);
note = uni0034;
unicode = 52;
},
{
glyphname = uni0035;
lastChange = "2026-06-24 21:17:04 +0000";
layers = (
{
layerId = m01;
shapes = (
{
closed = 1;
nodes = (
(198,1,o),
(217,12,o),
(242,37,o),
(263,62,qs),
(288,92,o),
(310,121,o),
(314,142,o),
(314,160,qs),
(314,181,o),
(313,229,qs),
(313,327,l),
(277,396,o),
(252,418,qs),
(225,443,o),
(174,445,o),
(131,424,o),
(100,402,o),
(94,402,qs),
(93,402,o),
(93,419,qs),
(93,459,ls),
(93,480,o),
(95,532,o),
(97,571,o),
(97,572,qs),
(98,575,o),
(116,577,o),
(146,577,qs),
(173,577,o),
(183,576,qs),
(191,575,o),
(194,566,o),
(197,540,qs),
(199,506,o),
(227,479,o),
(259,479,qs),
(283,479,o),
(299,496,o),
(307,527,qs),
(315,560,o),
(326,580,o),
(326,588,qs),
(326,591,o),
(316,624,o),
(301,665,o),
(286,695,o),
(281,695,qs),
(279,695,o),
(180,668,o),
(77,698,o),
(66,691,qs),
(58,685,o),
(49,662,o),
(45,614,o),
(45,570,qs),
(45,569,o),
(44,522,o),
(43,454,o),
(42,386,o),
(41,339,o),
(41,339,q),
(42,333,o),
(65,319,o),
(73,319,qs),
(81,319,o),
(97,339,o),
(114,365,o),
(132,385,o),
(141,385,qs),
(153,385,o),
(168,376,qs),
(177,370,o),
(188,358,o),
(194,329,o),
(196,272,o),
(196,221,qs),
(196,171,o),
(195,127,o),
(193,113,o),
(192,109,qs),
(186,92,o),
(163,93,o),
(143,112,o),
(141,123,qs),
(138,138,o),
(146,168,o),
(146,201,qs),
(146,222,o),
(141,232,qs),
(133,249,o),
(92,264,o),
(48,241,o),
(37,201,qs),
(25,163,o),
(26,119,o),
(50,85,o),
(73,60,qs),
(102,28,o),
(143,0,o),
(173,-4,o),
(187,-1,qs)
);
}
);
width = 348;
}
);
note = uni0035;
unicode = 53;
},
{
glyphname = uni0036;
lastChange = "2026-06-24 21:12:53 +0000";
layers = (
{
layerId = m01;
shapes = (
{
closed = 1;
nodes = (
(160,-7,o),
(198,2,o),
(223,22,o),
(226,25,qs),
(233,33,o),
(260,63,o),
(289,96,o),
(310,122,o),
(312,127,qs),
(314,130,o),
(316,147,o),
(317,192,o),
(317,237,qs),
(317,275,o),
(316,330,o),
(315,339,q),
(311,355,o),
(283,399,o),
(247,435,o),
(232,442,qs),
(211,452,o),
(179,445,o),
(155,427,o),
(139,411,o),
(135,411,qs),
(133,411,o),
(132,446,o),
(134,498,o),
(139,547,o),
(143,562,qs),
(151,589,o),
(186,601,o),
(213,578,o),
(210,553,qs),
(207,528,o),
(224,502,o),
(249,491,o),
(270,490,o),
(270,490,q),
(281,493,o),
(306,531,o),
(323,575,o),
(320,587,qs),
(318,596,o),
(289,628,o),
(247,663,o),
(202,688,o),
(185,689,qs),
(168,690,o),
(126,662,o),
(85,618,o),
(51,573,o),
(30,543,o),
(30,542,qs),
(29,538,o),
(27,497,o),
(26,407,o),
(25,252,o),
(24,135,q),
(33,120,o),
(64,80,o),
(100,40,o),
(130,10,o),
(139,6,q)
);
},
{
closed = 1;
nodes = (
(183,101,o),
(164,101,o),
(148,114,o),
(145,120,qs),
(143,124,o),
(140,136,o),
(139,183,o),
(138,238,qs),
(138,295,o),
(139,320,qs),
(139,338,o),
(148,374,o),
(173,372,qs),
(186,372,o),
(197,355,o),
(199,298,o),
(199,237,qs),
(199,126,l),
(192,115,ls)
);
}
);
width = 346;
}
);
note = uni0036;
unicode = 54;
},
{
glyphname = uni0037;
lastChange = "2026-06-24 21:16:42 +0000";
layers = (
{
layerId = m01;
shapes = (
{
closed = 1;
nodes = (
(174,-3,o),
(186,5,qs),
(192,9,o),
(215,41,o),
(238,78,o),
(254,107,o),
(254,107,q),
(254,110,o),
(243,137,o),
(232,168,o),
(230,180,qs),
(225,213,o),
(237,311,o),
(261,416,o),
(288,503,o),
(299,526,qs),
(317,566,o),
(354,603,o),
(354,611,qs),
(354,616,o),
(337,641,o),
(325,665,qs),
(309,695,o),
(296,695,qs),
(287,695,o),
(194,686,o),
(191,686,qs),
(188,686,o),
(103,694,qs),
(92,696,o),
(65,672,o),
(40,635,o),
(24,600,o),
(24,591,qs),
(24,583,o),
(40,539,o),
(62,495,o),
(70,487,qs),
(87,471,o),
(122,485,o),
(126,495,qs),
(131,505,o),
(133,543,o),
(139,574,o),
(148,574,qs),
(164,574,o),
(207,567,o),
(240,559,o),
(240,559,q),
(238,546,ls),
(237,540,o),
(224,497,o),
(205,437,o),
(186,375,o),
(179,351,qs),
(159,280,o),
(136,200,o),
(121,156,o),
(109,125,o),
(99,103,q),
(119,62,o),
(138,23,o),
(150,8,o),
(157,5,qs)
);
}
);
width = 379;
}
);
note = uni0037;
unicode = 55;
},
{
glyphname = uni0038;
lastChange = "2026-06-24 21:12:53 +0000";
layers = (
{
layerId = m01;
shapes = (
{
closed = 1;
nodes = (
(268,71,o),
(295,104,o),
(308,132,o),
(311,171,o),
(311,203,qs),
(310,244,o),
(309,257,qs),
(308,275,o),
(294,304,o),
(263,340,o),
(236,369,q),
(261,395,o),
(289,426,o),
(302,447,o),
(305,470,o),
(306,488,qs),
(306,531,o),
(299,583,o),
(275,622,o),
(250,645,qs),
(223,669,o),
(184,693,o),
(146,690,o),
(96,651,o),
(59,611,qs),
(50,601,o),
(38,581,o),
(31,541,o),
(31,501,qs),
(31,479,o),
(32,470,qs),
(34,446,o),
(66,400,o),
(96,366,o),
(96,363,qs),
(96,360,o),
(75,338,o),
(72,335,qs),
(49,314,o),
(33,286,o),
(32,279,qs),
(31,276,o),
(28,238,o),
(26,185,o),
(29,135,o),
(35,121,qs),
(41,107,o),
(72,69,o),
(84,56,qs),
(119,18,o),
(166,-9,o),
(212,11,o),
(244,45,qs)
);
},
{
closed = 1;
nodes = (
(163,104,o),
(156,112,qs),
(146,124,o),
(139,163,o),
(140,206,qs),
(140,283,o),
(160,326,o),
(179,305,qs),
(187,297,o),
(195,277,o),
(197,239,o),
(197,203,qs),
(197,154,o),
(195,138,qs),
(192,118,o),
(171,104,o),
(169,104,qs)
);
},
{
closed = 1;
nodes = (
(154,418,o),
(147,452,o),
(145,485,o),
(145,490,qs),
(143,553,o),
(157,594,o),
(182,581,qs),
(188,578,o),
(193,565,o),
(194,528,o),
(194,488,qs),
(193,445,o),
(192,434,qs),
(189,418,o),
(175,409,o),
(163,409,o),
(162,410,qs)
);
}
);
width = 332;
}
);
note = uni0038;
unicode = 56;
},
{
glyphname = uni0039;
lastChange = "2026-06-24 21:12:53 +0000";
layers = (
{
layerId = m01;
shapes = (
{
closed = 1;
nodes = (
(200,9,o),
(238,47,o),
(276,99,o),
(307,151,o),
(312,170,qs),
(314,178,o),
(317,210,o),
(319,285,o),
(321,427,o),
(322,546,q),
(315,561,ls),
(311,571,o),
(282,608,o),
(244,648,o),
(208,680,o),
(195,686,qs),
(174,695,o),
(129,676,o),
(86,636,o),
(52,593,o),
(31,562,o),
(31,561,qs),
(31,338,l),
(41,324,o),
(76,280,o),
(118,246,o),
(141,246,qs),
(156,246,o),
(184,262,o),
(204,278,o),
(206,278,qs),
(207,278,o),
(207,265,qs),
(207,252,o),
(206,234,qs),
(203,173,o),
(189,109,o),
(170,87,o),
(153,90,o),
(142,101,o),
(142,102,q),
(138,110,o),
(136,143,o),
(134,175,o),
(131,184,qs),
(126,195,o),
(104,201,o),
(84,200,o),
(84,200,q),
(57,195,o),
(35,155,o),
(24,114,q),
(31,99,ls),
(35,90,o),
(69,52,o),
(109,14,o),
(120,7,qs),
(133,0,o),
(173,-5,o),
(188,3,qs)
);
},
{
closed = 1;
nodes = (
(165,292,o),
(150,323,o),
(143,380,o),
(142,444,o),
(142,469,qs),
(142,503,o),
(146,564,o),
(166,593,o),
(189,578,qs),
(196,573,o),
(203,557,o),
(206,516,o),
(206,474,qs),
(208,416,o),
(205,350,o),
(196,317,o),
(185,305,o),
(178,301,qs)
);
}
);
width = 347;
}
);
note = uni0039;
unicode = 57;
},
{
glyphname = uni0060;
lastChange = "2026-06-24 21:12:53 +0000";
layers = (
{
layerId = m01;
shapes = (
{
closed = 1;
nodes = (
(164,442,o),
(150,466,qs),
(147,471,o),
(130,505,o),
(111,540,o),
(107,547,q),
(94,564,o),
(63,564,o),
(34,542,o),
(26,526,qs),
(24,521,o),
(28,514,qs),
(34,506,o),
(80,477,o),
(133,450,o),
(150,446,qs)
);
}
);
width = 180;
}
);
note = uni0060;
unicode = 96;
},
{
glyphname = uni00A8;
lastChange = "2026-06-24 21:12:53 +0000";
layers = (
{
layerId = m01;
shapes = (
{
closed = 1;
nodes = (
(194,166,o),
(214,182,o),
(233,206,o),
(236,218,qs),
(240,228,o),
(222,261,o),
(196,287,o),
(188,287,qs),
(186,287,o),
(180,282,qs),
(152,259,o),
(138,225,o),
(155,195,o),
(174,176,qs),
(184,166,o),
(189,166,qs)
);
},
{
closed = 1;
nodes = (
(123,165,o),
(123,167,qs),
(123,169,o),
(121,169,qs),
(119,169,o),
(119,167,qs),
(119,165,o),
(121,165,qs)
);
},
{
closed = 1;
nodes = (
(75,167,o),
(101,194,o),
(122,224,o),
(120,229,q),
(119,236,o),
(99,264,o),
(77,287,o),
(73,287,qs),
(67,287,o),
(43,265,o),
(24,237,o),
(24,228,qs),
(24,219,o),
(45,190,o),
(68,167,o),
(71,167,qs)
);
},
{
closed = 1;
nodes = (
(142,165,o),
(138,165,qs),
(134,165,o),
(140,161,o),
(141,164,q)
);
}
);
width = 262;
}
);
note = uni00A8;
unicode = 168;
},
{
glyphname = uni00AF;
lastChange = "2026-06-24 21:12:53 +0000";
layers = (
{
layerId = m01;
shapes = (
{
closed = 1;
nodes = (
(216,195,l),
(218,205,o),
(219,215,o),
(220,228,qs),
(220,242,o),
(219,250,o),
(217,251,qs),
(216,252,o),
(178,253,o),
(130,254,o),
(92,254,o),
(92,254,q),
(26,254,l),
(26,245,l),
(26,245,o),
(24,206,o),
(24,195,q)
);
}
);
width = 244;
}
);
note = uni00AF;
unicode = 175;
},
{
glyphname = uni00B4;
lastChange = "2026-06-24 21:12:53 +0000";
layers = (
{
layerId = m01;
shapes = (
{
closed = 1;
nodes = (
(57,170,o),
(90,192,o),
(110,203,qs),
(137,218,o),
(159,235,o),
(158,249,o),
(152,261,q),
(140,279,o),
(110,289,o),
(82,281,o),
(76,274,qs),
(65,262,o),
(50,222,o),
(33,188,qs),
(24,172,o),
(29,163,o),
(41,164,o),
(43,165,qs)
);
}
);
width = 181;
}
);
note = uni00B4;
unicode = 180;
},
{
glyphname = uni00B8;
lastChange = "2026-06-24 21:12:53 +0000";
layers = (
{
layerId = m01;
shapes = (
{
closed = 1;
nodes = (
(59,105,o),
(72,122,qs),
(78,131,o),
(96,170,o),
(113,215,o),
(125,254,o),
(126,263,qs),
(126,280,o),
(104,316,o),
(79,341,o),
(75,341,qs),
(70,341,o),
(45,318,o),
(24,284,o),
(24,267,qs),
(24,250,o),
(43,219,o),
(62,194,o),
(62,184,qs),
(62,168,o),
(44,135,o),
(32,112,o),
(40,110,qs)
);
}
);
width = 150;
}
);
note = uni00B8;
unicode = 184;
},
{
glyphname = uni02C6;
lastChange = "2026-06-24 21:12:53 +0000";
layers = (
{
layerId = m01;
shapes = (
{
closed = 1;
nodes = (
(160,443,o),
(175,469,o),
(189,496,o),
(189,496,q),
(181,503,o),
(174,508,o),
(168,513,qs),
(156,521,o),
(140,537,q),
(133,547,o),
(110,563,o),
(107,563,qs),
(102,563,o),
(96,559,q),
(91,557,o),
(70,535,o),
(51,519,qs),
(31,501,o),
(24,495,o),
(25,493,q),
(25,493,o),
(41,459,o),
(55,445,q),
(76,460,o),
(88,479,o),
(98,489,qs),
(103,493,o),
(120,480,o),
(139,460,o),
(154,443,o),
(157,443,qs)
);
},
{
closed = 1;
nodes = (
(122,441,o),
(124,442,q),
(125,442,o),
(118,448,o),
(111,448,qs),
(104,448,o),
(97,442,o),
(99,442,q),
(100,441,o),
(111,441,qs)
);
}
);
width = 213;
}
);
note = uni02C6;
unicode = 710;
},
{
glyphname = uni02C7;
lastChange = "2026-06-24 21:12:53 +0000";
layers = (
{
layerId = m01;
shapes = (
{
closed = 1;
nodes = (
(108,423,o),
(129,448,o),
(154,485,qs),
(183,529,o),
(194,555,o),
(186,559,qs),
(173,566,o),
(148,546,o),
(127,513,o),
(113,487,o),
(111,487,qs),
(106,487,o),
(98,513,o),
(81,535,qs),
(59,562,o),
(26,562,o),
(26,553,qs),
(26,548,o),
(33,533,qs),
(35,528,o),
(57,494,o),
(84,455,o),
(104,426,o),
(104,426,q)
);
},
{
closed = 1;
nodes = (
(73,422,l),
(61,427,ls),
(52,432,o),
(43,432,o),
(25,426,q),
(24,426,o),
(24,424,qs),
(24,422,o),
(48,422,qs)
);
},
{
closed = 1;
nodes = (
(195,422,l),
(186,426,ls),
(171,433,o),
(151,423,o),
(151,423,q),
(151,422,o),
(158,422,qs)
);
}
);
width = 219;
}
);
note = uni02C7;
unicode = 711;
},
{
glyphname = uni02D9;
lastChange = "2026-06-24 21:12:53 +0000";
layers = (
{
layerId = m01;
shapes = (
{
closed = 1;
nodes = (
(60,184,o),
(69,193,qs),
(79,202,o),
(85,212,qs),
(89,220,o),
(89,225,o),
(86,232,qs),
(82,239,o),
(59,265,o),
(56,265,qs),
(53,265,o),
(42,255,qs),
(15,230,o),
(30,206,qs),
(42,188,o),
(53,185,qs)
);
}
);
width = 113;
}
);
note = uni02D9;
unicode = 729;
},
{
glyphname = uni02DA;
lastChange = "2026-06-24 21:12:53 +0000";
layers = (
{
layerId = m01;
shapes = (
{
closed = 1;
nodes = (
(103,168,o),
(118,185,qs),
(135,205,o),
(129,259,o),
(108,274,qs),
(103,278,o),
(93,281,o),
(83,281,qs),
(66,282,o),
(58,279,qs),
(50,276,o),
(29,255,o),
(27,247,qs),
(18,216,o),
(52,169,o),
(83,169,qs)
);
},
{
closed = 1;
nodes = (
(79,199,o),
(64,210,o),
(64,226,qs),
(64,254,o),
(84,247,qs),
(88,245,o),
(94,231,o),
(94,224,qs),
(94,215,o),
(88,209,qs)
);
}
);
width = 157;
}
);
note = uni02DA;
unicode = 730;
},
{
glyphname = uni02DB;
lastChange = "2026-06-24 21:12:53 +0000";
layers = (
{
layerId = m01;
shapes = (
{
closed = 1;
nodes = (
(58,100,o),
(75,113,o),
(97,154,o),
(113,197,qs),
(123,225,o),
(133,258,o),
(133,272,qs),
(132,288,o),
(109,324,o),
(83,349,o),
(79,349,qs),
(77,349,o),
(55,332,o),
(32,302,o),
(21,265,o),
(31,245,qs),
(37,230,o),
(61,198,o),
(65,190,qs),
(69,180,o),
(55,144,o),
(38,112,o),
(38,107,qs),
(38,102,o),
(50,101,qs)
);
}
);
width = 156;
}
);
note = uni02DB;
unicode = 731;
},
{
glyphname = uni02DC;
lastChange = "2026-06-24 21:12:53 +0000";
layers = (
{
layerId = m01;
shapes = (
{
closed = 1;
nodes = (
(71,164,o),
(78,181,o),
(81,201,o),
(85,205,qs),
(92,211,o),
(121,192,o),
(154,169,o),
(167,169,qs),
(184,169,o),
(216,197,o),
(237,238,o),
(238,258,qs),
(238,276,o),
(224,283,qs),
(212,289,o),
(197,278,o),
(187,259,o),
(178,243,o),
(172,243,qs),
(171,243,o),
(162,248,qs),
(127,264,o),
(92,277,o),
(70,268,o),
(55,253,qs),
(31,229,o),
(26,188,o),
(47,164,o),
(60,164,qs)
);
}
);
width = 257;
}
);
note = uni02DC;
unicode = 732;
},
{
glyphname = uni02DD;
lastChange = "2026-06-24 21:12:53 +0000";
layers = (
{
layerId = m01;
shapes = (
{
closed = 1;
nodes = (
(24,164,o),
(47,181,qs),
(52,185,o),
(63,193,qs),
(92,214,o),
(116,233,o),
(121,242,o),
(121,246,q),
(121,246,o),
(117,262,o),
(101,278,o),
(83,278,qs),
(68,278,o),
(62,274,qs),
(56,271,o),
(43,241,o),
(31,204,o),
(24,177,o),
(24,177,q)
);
},
{
closed = 1;
nodes = (
(134,172,o),
(159,194,o),
(185,212,qs),
(203,225,o),
(216,239,o),
(216,245,qs),
(216,261,o),
(200,274,qs),
(189,283,o),
(166,278,o),
(147,260,o),
(143,251,qs),
(140,245,o),
(130,210,o),
(121,177,o),
(121,175,qs),
(121,168,o),
(127,170,qs)
);
}
);
width = 241;
}
);
note = uni02DD;
unicode = 733;
},
{
glyphname = uni0300;
lastChange = "2026-06-24 21:12:53 +0000";
layers = (
{
layerId = m01;
shapes = (
{
closed = 1;
nodes = (
(138,168,o),
(159,165,o),
(155,179,o),
(150,187,qs),
(147,192,o),
(130,226,o),
(111,261,o),
(107,268,q),
(94,285,o),
(63,285,o),
(34,263,o),
(26,247,qs),
(24,242,o),
(28,235,qs),
(34,227,o),
(72,203,o),
(106,185,o),
(107,185,q)
);
}
);
width = 180;
}
);
note = uni0300;
unicode = 768;
},
{
glyphname = uni0301;
lastChange = "2026-06-24 21:12:53 +0000";
layers = (
{
layerId = m01;
shapes = (
{
closed = 1;
nodes = (
(57,170,o),
(90,192,o),
(110,203,qs),
(137,218,o),
(159,235,o),
(158,249,o),
(152,261,q),
(140,279,o),
(110,289,o),
(82,281,o),
(76,274,qs),
(65,262,o),
(50,222,o),
(33,188,qs),
(24,172,o),
(29,163,o),
(41,164,o),
(43,165,qs)
);
}
);
width = 181;
}
);
note = uni0301;
unicode = 769;
},
{
glyphname = uni0302;
lastChange = "2026-06-24 21:12:53 +0000";
layers = (
{
layerId = m01;
shapes = (
{
closed = 1;
nodes = (
(160,166,o),
(175,192,o),
(189,219,o),
(189,219,q),
(181,226,o),
(174,231,o),
(168,236,qs),
(156,244,o),
(140,260,q),
(133,270,o),
(110,286,o),
(107,286,qs),
(102,286,o),
(96,282,q),
(91,280,o),
(70,258,o),
(51,242,qs),
(31,224,o),
(24,218,o),
(25,216,q),
(25,216,o),
(41,182,o),
(55,168,q),
(76,183,o),
(88,202,o),
(98,212,qs),
(103,216,o),
(120,203,o),
(139,183,o),
(154,166,o),
(157,166,qs)
);
},
{
closed = 1;
nodes = (
(122,164,o),
(124,165,q),
(125,165,o),
(118,171,o),
(111,171,qs),
(104,171,o),
(97,165,o),
(99,165,q),
(100,164,o),
(111,164,qs)
);
}
);
width = 213;
}
);
note = uni0302;
unicode = 770;
},
{
glyphname = uni0303;
lastChange = "2026-06-24 21:12:53 +0000";
layers = (
{
layerId = m01;
shapes = (
{
closed = 1;
nodes = (
(71,164,o),
(78,181,o),
(81,201,o),
(85,205,qs),
(92,211,o),
(121,192,o),
(154,169,o),
(167,169,qs),
(184,169,o),
(216,197,o),
(237,238,o),
(238,258,qs),
(238,276,o),
(224,283,qs),
(212,289,o),
(197,278,o),
(187,259,o),
(178,243,o),
(172,243,qs),
(171,243,o),
(162,248,qs),
(127,264,o),
(92,277,o),
(70,268,o),
(55,253,qs),
(31,229,o),
(26,188,o),
(47,164,o),
(60,164,qs)
);
}
);
width = 257;
}
);
note = uni0303;
unicode = 771;
},
{
glyphname = uni0304;
lastChange = "2026-06-24 21:12:53 +0000";
layers = (
{
layerId = m01;
shapes = (
{
closed = 1;
nodes = (
(216,195,l),
(218,205,o),
(219,215,o),
(220,228,qs),
(220,242,o),
(219,250,o),
(217,251,qs),
(216,252,o),
(178,253,o),
(130,254,o),
(92,254,o),
(92,254,q),
(26,254,l),
(26,245,l),
(26,245,o),
(24,206,o),
(24,195,q)
);
}
);
width = 244;
}
);
note = uni0304;
unicode = 772;
},
{
glyphname = uni0307;
lastChange = "2026-06-24 21:12:53 +0000";
layers = (
{
layerId = m01;
shapes = (
{
closed = 1;
nodes = (
(60,184,o),
(69,193,qs),
(79,202,o),
(85,212,qs),
(89,220,o),
(89,225,o),
(86,232,qs),
(82,239,o),
(59,265,o),
(56,265,qs),
(53,265,o),
(42,255,qs),
(15,230,o),
(30,206,qs),
(42,188,o),
(53,185,qs)
);
}
);
width = 113;
}
);
note = uni0307;
unicode = 775;
},
{
glyphname = uni0308;
lastChange = "2026-06-24 21:12:53 +0000";
layers = (
{
layerId = m01;
shapes = (
{
closed = 1;
nodes = (
(194,166,o),
(214,182,o),
(233,206,o),
(236,218,qs),
(240,228,o),
(222,261,o),
(196,287,o),
(188,287,qs),
(186,287,o),
(180,282,qs),
(152,259,o),
(138,225,o),
(155,195,o),
(174,176,qs),
(184,166,o),
(189,166,qs)
);
},
{
closed = 1;
nodes = (
(123,165,o),
(123,167,qs),
(123,169,o),
(121,169,qs),
(119,169,o),
(119,167,qs),
(119,165,o),
(121,165,qs)
);
},
{
closed = 1;
nodes = (
(75,167,o),
(101,194,o),
(122,224,o),
(120,229,q),
(119,236,o),
(99,264,o),
(77,287,o),
(73,287,qs),
(67,287,o),
(43,265,o),
(24,237,o),
(24,228,qs),
(24,219,o),
(45,190,o),
(68,167,o),
(71,167,qs)
);
},
{
closed = 1;
nodes = (
(142,165,o),
(138,165,qs),
(134,165,o),
(140,161,o),
(141,164,q)
);
}
);
width = 262;
}
);
note = uni0308;
unicode = 776;
},
{
glyphname = uni030A;
lastChange = "2026-06-24 21:12:53 +0000";
layers = (
{
layerId = m01;
shapes = (
{
closed = 1;
nodes = (
(103,168,o),
(118,185,qs),
(135,205,o),
(129,259,o),
(108,274,qs),
(103,278,o),
(93,281,o),
(83,281,qs),
(66,282,o),
(58,279,qs),
(50,276,o),
(29,255,o),
(27,247,qs),
(18,216,o),
(52,169,o),
(83,169,qs)
);
},
{
closed = 1;
nodes = (
(79,199,o),
(64,210,o),
(64,226,qs),
(64,254,o),
(84,247,qs),
(88,245,o),
(94,231,o),
(94,224,qs),
(94,215,o),
(88,209,qs)
);
}
);
width = 157;
}
);
note = uni030A;
unicode = 778;
},
{
glyphname = uni030B;
lastChange = "2026-06-24 21:12:53 +0000";
layers = (
{
layerId = m01;
shapes = (
{
closed = 1;
nodes = (
(24,164,o),
(47,181,qs),
(52,185,o),
(63,193,qs),
(92,214,o),
(116,233,o),
(121,242,o),
(121,246,q),
(121,246,o),
(117,262,o),
(101,278,o),
(83,278,qs),
(68,278,o),
(62,274,qs),
(56,271,o),
(43,241,o),
(31,204,o),
(24,177,o),
(24,177,q)
);
},
{
closed = 1;
nodes = (
(134,172,o),
(159,194,o),
(185,212,qs),
(203,225,o),
(216,239,o),
(216,245,qs),
(216,261,o),
(200,274,qs),
(189,283,o),
(166,278,o),
(147,260,o),
(143,251,qs),
(140,245,o),
(130,210,o),
(121,177,o),
(121,175,qs),
(121,168,o),
(127,170,qs)
);
}
);
width = 241;
}
);
note = uni030B;
unicode = 779;
},
{
glyphname = uni030C;
lastChange = "2026-06-24 21:12:53 +0000";
layers = (
{
layerId = m01;
shapes = (
{
closed = 1;
nodes = (
(109,155,o),
(135,188,o),
(154,218,qs),
(183,262,o),
(194,288,o),
(186,292,qs),
(173,298,o),
(148,279,o),
(127,246,o),
(113,220,o),
(111,220,qs),
(108,220,o),
(93,249,o),
(70,283,o),
(55,290,qs),
(37,297,o),
(26,291,o),
(26,285,qs),
(26,278,o),
(49,238,o),
(80,193,o),
(104,159,o),
(104,159,q)
);
},
{
closed = 1;
nodes = (
(73,155,l),
(55,163,o),
(49,165,o),
(48,165,qs),
(43,165,o),
(25,159,q),
(24,159,o),
(24,156,qs),
(24,154,o),
(48,154,qs)
);
},
{
closed = 1;
nodes = (
(195,155,l),
(186,159,ls),
(170,166,o),
(151,156,o),
(151,155,q),
(160,154,o),
(167,154,o),
(173,154,qs)
);
}
);
width = 219;
}
);
note = uni030C;
unicode = 780;
},
{
glyphname = uni0326;
lastChange = "2026-06-24 21:12:53 +0000";
layers = (
{
layerId = m01;
shapes = (
{
closed = 1;
nodes = (
(53,139,o),
(72,170,o),
(88,212,o),
(97,246,o),
(98,249,q),
(99,267,o),
(82,295,o),
(62,311,o),
(62,311,q),
(58,311,o),
(39,294,o),
(24,269,o),
(24,257,qs),
(24,244,o),
(38,221,o),
(51,200,o),
(51,192,qs),
(51,181,o),
(33,149,o),
(33,143,qs),
(33,139,o),
(43,139,qs)
);
}
);
width = 123;
}
);
note = uni0326;
unicode = 806;
},
{
glyphname = uni0327;
lastChange = "2026-06-24 21:12:53 +0000";
layers = (
{
layerId = m01;
shapes = (
{
closed = 1;
nodes = (
(59,105,o),
(72,122,qs),
(78,131,o),
(96,170,o),
(113,215,o),
(125,254,o),
(126,263,qs),
(126,280,o),
(104,316,o),
(79,341,o),
(75,341,qs),
(70,341,o),
(45,318,o),
(24,284,o),
(24,267,qs),
(24,250,o),
(43,219,o),
(62,194,o),
(62,184,qs),
(62,168,o),
(44,135,o),
(32,112,o),
(40,110,qs)
);
}
);
width = 150;
}
);
note = uni0327;
unicode = 807;
},
{
glyphname = uni0328;
lastChange = "2026-06-24 21:12:53 +0000";
layers = (
{
layerId = m01;
shapes = (
{
closed = 1;
nodes = (
(58,100,o),
(75,113,o),
(97,154,o),
(113,197,qs),
(123,225,o),
(133,258,o),
(133,272,qs),
(132,288,o),
(109,324,o),
(83,349,o),
(79,349,qs),
(77,349,o),
(55,332,o),
(32,302,o),
(21,265,o),
(31,245,qs),
(37,230,o),
(61,198,o),
(65,190,qs),
(69,180,o),
(55,144,o),
(38,112,o),
(38,107,qs),
(38,102,o),
(50,101,qs)
);
}
);
width = 156;
}
);
note = uni0328;
unicode = 808;
},
{
glyphname = uni0041;
lastChange = "2026-06-24 21:12:53 +0000";
layers = (
{
layerId = m01;
shapes = (
{
closed = 1;
nodes = (
(359,6,o),
(383,35,o),
(405,74,o),
(419,109,o),
(418,119,qs),
(418,122,o),
(415,129,o),
(404,151,o),
(391,177,qs),
(369,219,o),
(348,318,o),
(341,407,o),
(342,464,o),
(342,466,qs),
(346,499,o),
(369,553,o),
(369,561,qs),
(369,568,o),
(363,576,q),
(362,576,o),
(333,602,o),
(295,636,o),
(283,648,qs),
(268,664,o),
(239,689,o),
(223,689,qs),
(212,689,o),
(186,664,o),
(148,627,o),
(119,609,qs),
(89,588,o),
(73,569,o),
(75,558,q),
(76,540,o),
(88,514,o),
(100,478,o),
(104,417,o),
(98,364,qs),
(90,293,o),
(67,209,o),
(43,163,o),
(26,137,o),
(25,126,qs),
(24,120,o),
(36,81,o),
(59,36,o),
(90,3,o),
(130,2,o),
(152,27,qs),
(159,35,o),
(180,67,o),
(199,97,o),
(202,105,qs),
(205,112,o),
(206,125,o),
(199,158,o),
(190,197,qs),
(186,215,o),
(179,266,o),
(176,306,o),
(178,308,q),
(182,310,o),
(215,312,o),
(247,311,o),
(247,311,q),
(265,311,l),
(265,290,ls),
(265,265,o),
(258,208,o),
(248,155,o),
(242,118,o),
(244,113,q),
(245,106,o),
(265,66,o),
(295,21,o),
(331,-5,o),
(349,3,q)
);
},
{
closed = 1;
nodes = (
(198,370,o),
(192,371,qs),
(185,371,o),
(183,378,o),
(185,394,qs),
(192,460,o),
(202,533,o),
(208,565,o),
(214,571,o),
(218,571,qs),
(226,571,o),
(231,566,qs),
(234,562,o),
(242,521,o),
(249,466,o),
(254,411,o),
(256,374,o),
(255,373,q),
(255,373,o),
(230,371,o),
(219,370,qs)
);
}
);
width = 442;
}
);
note = uni0041;
unicode = 65;
},
{
glyphname = uni0042;
lastChange = "2026-06-24 21:12:53 +0000";
layers = (
{
layerId = m01;
shapes = (
{
closed = 1;
nodes = (
(251,-3,o),
(272,2,o),
(292,30,qs),
(302,44,o),
(339,83,o),
(372,116,o),
(373,122,q),
(376,127,o),
(375,177,o),
(371,239,o),
(367,287,o),
(366,291,qs),
(359,315,o),
(326,344,o),
(288,360,o),
(261,367,o),
(261,370,qs),
(261,371,o),
(277,380,o),
(294,389,o),
(294,389,q),
(319,401,o),
(345,422,o),
(349,437,qs),
(354,455,o),
(359,513,o),
(358,566,o),
(354,576,qs),
(352,580,o),
(332,609,o),
(306,643,o),
(284,671,o),
(280,674,qs),
(266,686,o),
(235,676,o),
(208,650,o),
(188,623,o),
(184,617,qs),
(170,592,o),
(168,589,qs),
(163,584,o),
(155,615,o),
(142,659,o),
(129,672,qs),
(116,684,o),
(88,668,o),
(62,631,o),
(41,588,o),
(29,557,o),
(29,557,q),
(44,530,o),
(60,493,o),
(68,461,o),
(69,422,o),
(69,393,qs),
(69,351,o),
(66,278,o),
(66,269,qs),
(63,228,o),
(50,180,o),
(35,153,o),
(24,136,o),
(24,126,qs),
(24,121,o),
(41,83,o),
(67,39,o),
(93,6,o),
(102,6,qs),
(106,6,o),
(111,4,qs),
(116,2,o),
(127,13,qs),
(151,37,o),
(159,76,o),
(164,80,qs),
(168,83,o),
(174,75,o),
(190,51,qs),
(216,11,o),
(241,1,qs)
);
},
{
closed = 1;
nodes = (
(235,109,o),
(209,117,o),
(186,142,o),
(183,157,qs),
(177,177,o),
(172,235,o),
(171,281,o),
(171,283,qs),
(171,309,o),
(173,332,o),
(185,337,o),
(199,337,qs),
(210,337,o),
(215,336,qs),
(218,335,o),
(239,317,o),
(244,308,qs),
(248,298,o),
(253,254,o),
(255,205,o),
(256,167,o),
(256,162,qs),
(256,132,o),
(245,121,qs)
);
},
{
closed = 1;
nodes = (
(171,378,o),
(169,402,o),
(170,450,qs),
(171,491,o),
(174,533,o),
(183,553,o),
(193,563,qs),
(207,579,o),
(227,561,o),
(240,515,o),
(243,459,o),
(236,409,o),
(228,398,qs),
(218,385,o),
(180,376,o),
(176,377,qs)
);
}
);
width = 400;
}
);
note = uni0042;
unicode = 66;
},
{
glyphname = uni0043;
lastChange = "2026-06-24 21:12:53 +0000";
layers = (
{
layerId = m01;
shapes = (
{
closed = 1;
nodes = (
(218,10,o),
(235,28,o),
(262,56,o),
(288,78,qs),
(323,107,o),
(349,137,o),
(350,141,q),
(350,152,o),
(343,191,o),
(333,232,o),
(325,261,o),
(325,262,q),
(316,295,o),
(291,328,o),
(272,339,o),
(272,339,q),
(259,342,o),
(222,317,o),
(215,298,qs),
(208,282,o),
(215,231,o),
(226,176,o),
(225,154,q),
(224,149,o),
(219,128,o),
(202,112,o),
(186,118,qs),
(174,121,o),
(162,134,o),
(151,149,q),
(150,331,l),
(150,509,ls),
(150,532,o),
(151,542,qs),
(153,563,o),
(186,586,o),
(208,563,q),
(213,556,o),
(218,545,o),
(217,517,o),
(215,484,qs),
(213,451,o),
(216,438,qs),
(220,417,o),
(256,390,o),
(268,390,qs),
(283,390,o),
(308,417,o),
(326,455,o),
(338,492,o),
(341,503,qs),
(347,523,o),
(349,549,o),
(332,576,o),
(286,619,o),
(244,657,qs),
(226,674,o),
(194,692,o),
(153,678,o),
(122,647,qs),
(109,636,o),
(92,622,qs),
(54,590,o),
(24,561,o),
(24,546,qs),
(24,544,o),
(26,536,o),
(34,504,o),
(43,466,q),
(43,288,ls),
(43,259,o),
(40,221,o),
(35,195,qs),
(28,159,o),
(28,134,o),
(34,127,qs),
(43,114,o),
(91,73,o),
(123,41,qs),
(156,9,o),
(187,-7,o),
(206,4,qs)
);
}
);
width = 374;
}
);
note = uni0043;
unicode = 67;
},
{
glyphname = uni0044;
lastChange = "2026-06-24 21:12:53 +0000";
layers = (
{
layerId = m01;
shapes = (
{
closed = 1;
nodes = (
(255,1,o),
(274,17,o),
(280,25,qs),
(283,29,o),
(290,36,o),
(311,58,o),
(334,83,qs),
(355,105,o),
(373,128,o),
(375,147,o),
(372,165,qs),
(356,247,o),
(354,345,qs),
(352,438,o),
(369,541,o),
(369,553,qs),
(369,560,o),
(366,566,q),
(366,566,o),
(349,592,o),
(322,628,o),
(293,664,o),
(267,689,o),
(259,689,qs),
(256,689,o),
(218,665,o),
(194,625,qs),
(174,591,o),
(165,591,o),
(162,611,qs),
(161,620,o),
(147,653,o),
(125,681,o),
(110,681,qs),
(94,681,o),
(81,666,qs),
(78,663,o),
(61,638,o),
(42,605,o),
(30,573,o),
(33,563,q),
(33,559,o),
(45,531,o),
(56,505,o),
(56,505,q),
(61,491,o),
(67,438,o),
(69,375,o),
(68,318,o),
(67,280,o),
(67,280,q),
(64,227,o),
(43,166,o),
(24,133,o),
(24,122,qs),
(24,110,o),
(49,56,o),
(68,30,qs),
(83,9,o),
(107,1,o),
(121,9,qs),
(137,19,o),
(152,52,o),
(160,77,o),
(164,76,qs),
(165,76,o),
(181,53,o),
(205,23,o),
(233,1,o),
(246,1,qs)
);
},
{
closed = 1;
nodes = (
(239,109,o),
(205,110,o),
(192,128,qs),
(185,137,o),
(177,158,o),
(174,201,o),
(173,282,o),
(173,349,qs),
(173,528,l),
(191,563,o),
(210,577,o),
(212,577,qs),
(214,577,o),
(222,573,qs),
(230,568,o),
(240,547,o),
(245,493,o),
(246,388,o),
(245,299,qs),
(245,214,o),
(243,130,o),
(242,124,qs)
);
}
);
width = 399;
}
);
note = uni0044;
unicode = 68;
},
{
glyphname = uni0045;
lastChange = "2026-06-24 21:12:53 +0000";
layers = (
{
layerId = m01;
shapes = (
{
closed = 1;
nodes = (
(220,12,o),
(264,57,o),
(285,72,qs),
(312,90,o),
(347,121,o),
(345,144,qs),
(345,150,o),
(335,187,o),
(319,229,o),
(295,259,o),
(280,259,qs),
(270,259,o),
(235,241,o),
(213,202,o),
(223,170,qs),
(232,144,o),
(220,121,o),
(202,115,o),
(202,115,q),
(193,115,o),
(163,131,o),
(161,138,qs),
(160,142,o),
(159,180,o),
(161,231,o),
(163,280,o),
(164,313,o),
(165,314,q),
(166,328,o),
(179,331,o),
(205,323,qs),
(228,315,o),
(247,318,o),
(257,330,qs),
(276,351,o),
(256,386,o),
(238,406,q),
(216,395,o),
(183,373,o),
(173,373,qs),
(164,374,l),
(164,413,ls),
(163,429,o),
(162,455,qs),
(162,458,o),
(161,485,o),
(159,520,o),
(157,545,o),
(158,546,q),
(158,562,o),
(182,591,o),
(197,581,qs),
(203,577,o),
(209,567,o),
(214,535,o),
(219,497,qs),
(221,473,o),
(250,457,o),
(281,459,o),
(286,463,qs),
(293,468,o),
(315,498,o),
(335,537,o),
(343,575,o),
(335,587,qs),
(328,596,o),
(279,627,o),
(248,655,qs),
(222,680,o),
(189,691,o),
(157,671,o),
(134,650,qs),
(104,621,o),
(62,594,o),
(36,577,o),
(30,564,qs),
(22,547,o),
(33,517,o),
(52,479,o),
(56,448,qs),
(66,370,o),
(56,257,o),
(36,180,o),
(25,132,o),
(34,119,q),
(48,105,o),
(71,88,o),
(101,63,o),
(125,39,qs),
(154,10,o),
(188,-3,o),
(202,4,qs)
);
}
);
width = 369;
}
);
note = uni0045;
unicode = 69;
},
{
glyphname = uni0046;
lastChange = "2026-06-24 21:12:53 +0000";
layers = (
{
layerId = m01;
shapes = (
{
closed = 1;
nodes = (
(159,23,o),
(186,61,o),
(208,106,o),
(207,121,qs),
(206,128,o),
(184,190,o),
(165,277,o),
(169,323,qs),
(170,332,o),
(198,323,o),
(241,304,q),
(255,319,o),
(271,347,o),
(263,381,o),
(240,404,q),
(203,384,o),
(168,368,o),
(164,378,q),
(164,379,o),
(163,413,o),
(161,463,o),
(160,515,o),
(160,533,qs),
(160,543,o),
(164,578,o),
(177,585,q),
(179,585,o),
(196,581,o),
(213,556,o),
(213,525,qs),
(213,501,o),
(218,493,qs),
(223,484,o),
(254,467,o),
(262,468,qs),
(271,468,o),
(294,497,o),
(315,537,o),
(329,572,o),
(329,578,qs),
(329,586,o),
(316,603,o),
(303,615,o),
(303,615,q),
(293,623,o),
(267,647,o),
(262,651,qs),
(232,680,o),
(206,689,o),
(189,678,qs),
(163,661,o),
(156,630,o),
(152,630,qs),
(150,630,o),
(142,646,qs),
(133,664,o),
(105,680,o),
(94,673,qs),
(87,668,o),
(64,635,o),
(40,594,o),
(24,562,o),
(24,558,qs),
(24,556,o),
(29,546,qs),
(43,516,o),
(58,481,o),
(65,454,o),
(67,419,o),
(68,391,qs),
(69,313,o),
(61,227,o),
(47,180,o),
(39,162,qs),
(26,136,o),
(24,114,o),
(33,93,qs),
(53,42,o),
(93,2,o),
(127,0,o),
(151,14,o),
(154,17,qs)
);
}
);
width = 353;
}
);
note = uni0046;
unicode = 70;
},
{
glyphname = uni0047;
lastChange = "2026-06-24 21:12:53 +0000";
layers = (
{
layerId = m01;
shapes = (
{
closed = 1;
nodes = (
(304,3,o),
(327,33,o),
(350,74,o),
(365,106,o),
(365,106,q),
(365,109,o),
(359,126,o),
(353,141,o),
(353,141,q),
(333,193,o),
(337,270,o),
(342,286,qs),
(346,303,o),
(370,341,o),
(370,351,qs),
(370,359,o),
(350,383,o),
(345,389,qs),
(327,409,o),
(299,432,o),
(264,428,o),
(238,408,qs),
(228,400,o),
(207,389,qs),
(191,380,o),
(166,358,o),
(181,340,qs),
(190,329,o),
(210,324,o),
(226,318,o),
(230,305,qs),
(233,295,o),
(238,240,o),
(237,178,o),
(233,158,qs),
(225,126,o),
(193,116,o),
(163,143,o),
(158,166,q),
(157,168,o),
(156,208,o),
(155,267,o),
(155,325,o),
(155,364,o),
(155,365,qs),
(155,472,ls),
(155,504,o),
(156,546,o),
(158,554,q),
(158,554,o),
(163,569,o),
(174,585,o),
(191,589,o),
(203,577,qs),
(214,568,o),
(221,547,o),
(222,519,qs),
(222,491,o),
(231,469,o),
(245,462,qs),
(272,449,o),
(318,474,o),
(348,522,o),
(358,572,o),
(350,584,qs),
(341,595,o),
(301,617,o),
(262,650,qs),
(231,679,o),
(192,692,o),
(158,671,o),
(135,650,qs),
(106,622,o),
(81,608,q),
(80,608,o),
(53,590,o),
(26,565,o),
(25,554,qs),
(24,541,o),
(32,518,o),
(43,483,o),
(52,418,o),
(52,362,qs),
(52,293,o),
(44,218,o),
(34,180,o),
(26,158,o),
(26,143,q),
(24,132,o),
(30,122,qs),
(36,113,o),
(51,98,o),
(78,69,o),
(100,41,qs),
(121,13,o),
(146,0,o),
(163,7,q),
(170,11,o),
(199,38,o),
(227,69,o),
(232,81,q),
(241,96,o),
(246,94,o),
(249,73,qs),
(256,35,o),
(291,4,o),
(296,4,qs)
);
}
);
width = 393;
}
);
note = uni0047;
unicode = 71;
},
{
glyphname = uni0048;
lastChange = "2026-06-24 21:12:53 +0000";
layers = (
{
layerId = m01;
shapes = (
{
closed = 1;
nodes = (
(187,68,o),
(203,110,o),
(200,135,o),
(196,145,qs),
(189,167,o),
(181,195,o),
(175,235,o),
(170,276,qs),
(167,296,o),
(165,320,o),
(169,323,qs),
(173,325,o),
(209,325,o),
(242,323,o),
(242,323,q),
(255,322,o),
(259,317,o),
(259,303,qs),
(259,287,o),
(254,240,o),
(246,196,o),
(243,183,qs),
(235,156,o),
(227,122,o),
(234,90,o),
(247,66,qs),
(268,26,o),
(306,-1,o),
(338,8,o),
(364,36,o),
(383,70,o),
(388,81,qs),
(396,99,o),
(402,120,o),
(396,140,o),
(386,157,qs),
(366,197,o),
(350,297,o),
(351,377,qs),
(352,415,o),
(356,463,o),
(367,503,o),
(380,529,qs),
(389,545,o),
(394,573,o),
(379,605,qs),
(353,658,o),
(314,690,o),
(281,672,o),
(266,649,qs),
(240,613,o),
(223,574,o),
(227,549,o),
(234,534,qs),
(247,500,o),
(257,431,o),
(258,384,o),
(258,383,qs),
(257,380,o),
(243,379,o),
(213,379,qs),
(182,379,o),
(169,381,o),
(168,384,qs),
(168,385,o),
(167,429,o),
(177,495,o),
(192,528,qs),
(206,554,o),
(206,564,qs),
(206,566,o),
(195,596,o),
(175,634,o),
(149,669,o),
(119,686,o),
(103,679,qs),
(94,675,o),
(70,646,o),
(47,609,o),
(31,574,o),
(30,565,qs),
(30,561,o),
(37,543,o),
(45,527,o),
(45,527,q),
(55,507,o),
(65,480,o),
(70,451,o),
(71,404,o),
(71,365,qs),
(71,304,o),
(69,268,qs),
(65,221,o),
(46,170,o),
(28,142,o),
(26,128,qs),
(24,120,o),
(37,78,o),
(63,31,o),
(97,0,o),
(139,3,o),
(161,34,qs)
);
}
);
width = 424;
}
);
note = uni0048;
unicode = 72;
},
{
glyphname = uni0049;
lastChange = "2026-06-24 21:12:53 +0000";
layers = (
{
layerId = m01;
shapes = (
{
closed = 1;
nodes = (
(141,0,o),
(169,32,o),
(193,79,qs),
(202,97,o),
(208,118,o),
(203,143,o),
(195,165,qs),
(180,205,o),
(167,285,o),
(164,349,o),
(164,366,qs),
(164,388,o),
(166,418,qs),
(169,466,o),
(179,514,o),
(188,536,o),
(195,550,o),
(196,564,qs),
(196,573,o),
(177,612,o),
(150,655,o),
(124,686,o),
(119,686,qs),
(110,686,o),
(76,649,o),
(41,593,o),
(32,565,q),
(45,525,o),
(60,477,o),
(65,438,o),
(66,389,o),
(65,348,qs),
(64,304,o),
(60,249,o),
(52,207,o),
(37,162,o),
(24,129,q),
(29,113,o),
(34,101,o),
(41,88,qs),
(60,50,o),
(87,12,o),
(111,0,o),
(124,0,qs)
);
}
);
width = 231;
}
);
note = uni0049;
unicode = 73;
},
{
glyphname = uni004A;
lastChange = "2026-06-24 21:12:53 +0000";
layers = (
{
layerId = m01;
shapes = (
{
closed = 1;
nodes = (
(220,21,o),
(244,47,o),
(275,82,o),
(305,117,o),
(325,140,o),
(325,140,q),
(327,144,o),
(325,168,o),
(320,204,qs),
(304,313,o),
(307,455,o),
(322,527,o),
(324,531,qs),
(336,559,o),
(328,578,qs),
(319,595,o),
(290,646,o),
(260,686,o),
(251,686,qs),
(243,686,o),
(219,658,o),
(193,618,o),
(176,578,o),
(176,566,qs),
(176,562,o),
(177,554,o),
(185,524,o),
(194,490,qs),
(196,481,o),
(199,463,o),
(201,426,o),
(203,353,o),
(205,225,o),
(206,125,q),
(196,115,ls),
(182,101,o),
(153,122,o),
(150,140,qs),
(145,167,o),
(153,211,o),
(149,252,o),
(129,273,qs),
(117,284,o),
(103,286,o),
(93,281,qs),
(72,269,o),
(45,227,o),
(30,183,o),
(24,152,o),
(24,151,qs),
(24,132,o),
(49,96,o),
(84,63,qs),
(115,32,o),
(158,-2,o),
(195,-1,o),
(217,18,qs)
);
}
);
width = 356;
}
);
note = uni004A;
unicode = 74;
},
{
glyphname = uni004B;
lastChange = "2026-06-24 21:12:53 +0000";
layers = (
{
layerId = m01;
shapes = (
{
closed = 1;
nodes = (
(339,-1,o),
(351,12,o),
(361,30,qs),
(385,73,o),
(400,116,o),
(397,134,o),
(393,141,qs),
(381,158,o),
(363,180,o),
(351,197,qs),
(345,206,o),
(321,245,o),
(301,280,o),
(301,280,q),
(279,315,o),
(235,361,o),
(235,362,q),
(246,374,o),
(255,383,o),
(262,389,qs),
(271,398,o),
(305,437,o),
(342,481,o),
(369,513,o),
(369,513,q),
(371,515,o),
(384,531,o),
(395,549,o),
(395,554,qs),
(395,557,o),
(392,566,q),
(392,566,o),
(378,597,o),
(362,632,o),
(359,639,qs),
(349,662,o),
(333,687,o),
(308,681,o),
(286,658,qs),
(261,632,o),
(241,598,o),
(236,557,o),
(235,522,qs),
(233,457,o),
(214,393,o),
(192,378,qs),
(177,368,o),
(170,378,o),
(170,415,qs),
(170,471,o),
(185,529,o),
(200,558,o),
(200,570,qs),
(200,574,o),
(197,581,o),
(184,603,o),
(169,628,qs),
(148,661,o),
(125,689,o),
(111,686,qs),
(100,683,o),
(73,651,o),
(50,611,o),
(35,581,o),
(35,581,q),
(30,567,o),
(39,542,o),
(56,507,o),
(64,478,qs),
(69,457,o),
(76,366,o),
(72,305,qs),
(70,270,o),
(65,224,o),
(55,190,o),
(38,153,o),
(24,127,q),
(30,109,o),
(36,92,o),
(40,83,o),
(44,75,qs),
(64,33,o),
(97,1,o),
(124,3,o),
(136,14,qs),
(137,15,o),
(181,73,o),
(201,120,q),
(192,147,o),
(181,182,o),
(175,210,o),
(172,245,o),
(170,272,qs),
(167,308,o),
(172,328,o),
(181,328,qs),
(199,328,o),
(212,300,qs),
(224,273,o),
(234,228,o),
(238,162,o),
(240,105,q),
(250,86,o),
(276,39,o),
(308,3,o),
(327,1,qs)
);
}
);
width = 424;
}
);
note = uni004B;
unicode = 75;
},
{
glyphname = uni004C;
lastChange = "2026-06-24 21:12:53 +0000";
layers = (
{
layerId = m01;
shapes = (
{
closed = 1;
nodes = (
(273,6,o),
(301,35,o),
(334,74,o),
(359,108,o),
(359,115,qs),
(359,116,o),
(349,156,o),
(331,208,o),
(308,248,o),
(294,248,qs),
(285,248,o),
(270,240,qs),
(256,233,o),
(244,220,o),
(242,195,o),
(242,170,qs),
(242,125,l),
(230,113,o),
(220,106,o),
(211,106,qs),
(198,106,o),
(188,117,o),
(185,123,qs),
(183,127,o),
(180,173,o),
(178,235,o),
(177,295,o),
(177,335,o),
(177,336,qs),
(177,394,o),
(182,463,o),
(196,513,o),
(210,542,qs),
(218,559,o),
(223,579,o),
(214,600,o),
(202,620,qs),
(177,662,o),
(136,693,o),
(112,680,qs),
(103,675,o),
(78,647,o),
(54,613,o),
(39,582,o),
(39,575,qs),
(39,564,o),
(61,525,o),
(72,479,qs),
(76,464,o),
(78,403,o),
(78,338,o),
(77,291,o),
(77,290,qs),
(74,243,o),
(61,190,o),
(46,161,o),
(31,140,o),
(27,126,qs),
(24,115,o),
(37,81,o),
(56,45,o),
(72,20,o),
(73,20,q),
(87,0,o),
(115,2,o),
(136,19,o),
(139,23,qs),
(148,34,o),
(162,42,o),
(186,32,o),
(209,19,qs),
(236,5,o),
(261,-1,o),
(269,4,qs)
);
}
);
width = 381;
}
);
note = uni004C;
unicode = 76;
},
{
glyphname = uni004D;
lastChange = "2026-06-24 21:12:53 +0000";
layers = (
{
layerId = m01;
shapes = (
{
closed = 1;
nodes = (
(510,0,o),
(530,14,o),
(541,32,qs),
(564,68,o),
(576,113,o),
(568,140,o),
(562,151,qs),
(542,183,o),
(522,265,o),
(514,344,o),
(513,405,o),
(513,417,qs),
(514,446,o),
(518,480,o),
(527,507,o),
(536,525,qs),
(546,545,o),
(548,564,o),
(542,575,q),
(542,575,o),
(517,609,o),
(480,653,o),
(442,686,o),
(429,686,qs),
(417,686,o),
(398,670,qs),
(377,652,o),
(342,608,o),
(317,567,o),
(311,556,q),
(319,535,o),
(323,522,o),
(323,511,q),
(323,511,o),
(320,474,o),
(314,428,o),
(305,392,o),
(300,392,qs),
(298,392,o),
(296,399,o),
(290,431,o),
(284,470,qs),
(277,504,o),
(283,536,o),
(290,556,o),
(286,570,qs),
(285,574,o),
(264,610,o),
(233,654,o),
(196,686,o),
(179,686,qs),
(171,686,o),
(157,678,qs),
(154,676,o),
(117,640,o),
(69,585,o),
(50,556,q),
(66,527,o),
(83,487,o),
(90,440,o),
(90,399,qs),
(88,321,o),
(69,223,o),
(44,166,o),
(26,134,o),
(25,123,qs),
(24,113,o),
(37,70,o),
(61,24,o),
(95,-4,o),
(139,3,o),
(165,36,qs),
(188,66,o),
(204,109,o),
(201,150,o),
(195,176,qs),
(189,201,o),
(183,276,o),
(180,356,o),
(179,420,o),
(179,435,qs),
(179,481,o),
(181,548,o),
(184,551,qs),
(192,559,o),
(215,514,qs),
(229,485,o),
(245,430,o),
(251,362,o),
(250,312,qs),
(250,271,o),
(247,221,o),
(237,180,o),
(228,153,qs),
(223,137,o),
(220,115,o),
(233,83,o),
(252,53,qs),
(269,22,o),
(300,-3,o),
(337,26,o),
(366,79,qs),
(378,101,o),
(382,128,o),
(374,152,o),
(362,191,o),
(351,262,o),
(351,322,qs),
(351,355,o),
(352,372,qs),
(352,392,o),
(362,447,o),
(378,501,o),
(397,543,o),
(414,559,o),
(421,546,qs),
(424,541,o),
(425,516,o),
(425,499,qs),
(425,430,ls),
(425,340,o),
(419,233,o),
(410,176,o),
(401,148,o),
(397,130,o),
(399,114,qs),
(399,113,o),
(410,78,o),
(433,34,o),
(469,0,o),
(494,0,qs)
);
}
);
width = 598;
}
);
note = uni004D;
unicode = 77;
},
{
glyphname = uni004E;
lastChange = "2026-06-24 21:12:53 +0000";
layers = (
{
layerId = m01;
shapes = (
{
closed = 1;
nodes = (
(351,0,o),
(377,28,o),
(401,67,o),
(416,104,o),
(416,114,qs),
(416,128,o),
(403,149,qs),
(390,172,o),
(375,213,o),
(369,276,o),
(368,332,qs),
(367,389,o),
(371,457,o),
(384,505,o),
(396,530,qs),
(406,549,o),
(411,576,o),
(400,605,o),
(385,629,qs),
(366,660,o),
(340,683,o),
(324,683,qs),
(312,683,o),
(285,655,o),
(261,616,o),
(245,581,o),
(245,574,q),
(243,560,o),
(261,526,o),
(271,490,qs),
(277,465,o),
(283,389,o),
(285,312,o),
(285,259,o),
(285,259,q),
(284,223,o),
(270,248,o),
(250,319,qs),
(231,389,o),
(210,470,o),
(202,514,o),
(203,534,o),
(207,543,qs),
(213,555,o),
(214,570,o),
(201,594,o),
(186,617,qs),
(160,657,o),
(136,680,o),
(122,680,qs),
(103,680,o),
(70,646,o),
(46,600,o),
(33,566,o),
(33,565,qs),
(33,561,o),
(49,522,o),
(67,481,o),
(69,473,qs),
(71,456,o),
(74,403,o),
(74,360,o),
(74,360,q),
(74,296,o),
(60,215,o),
(42,167,o),
(27,136,o),
(26,123,qs),
(24,110,o),
(40,62,o),
(70,17,o),
(109,-7,o),
(129,4,qs),
(139,9,o),
(166,38,o),
(191,77,o),
(204,115,o),
(200,130,qs),
(198,139,o),
(183,168,o),
(177,185,qs),
(170,202,o),
(162,274,o),
(158,360,o),
(157,440,o),
(158,491,o),
(159,491,qs),
(162,491,o),
(169,470,q),
(169,468,o),
(186,401,o),
(216,289,o),
(235,220,q),
(237,175,o),
(238,137,o),
(239,123,o),
(240,116,qs),
(242,103,o),
(259,64,o),
(287,26,o),
(321,0,o),
(339,0,qs)
);
}
);
width = 440;
}
);
note = uni004E;
unicode = 78;
},
{
glyphname = uni004F;
lastChange = "2026-06-24 21:12:53 +0000";
layers = (
{
layerId = m01;
shapes = (
{
closed = 1;
nodes = (
(199,0,o),
(221,15,o),
(244,38,qs),
(253,47,o),
(283,74,o),
(295,84,qs),
(322,107,o),
(346,134,o),
(348,144,qs),
(349,148,o),
(345,185,o),
(341,209,qs),
(326,296,o),
(327,437,o),
(342,503,qs),
(350,536,o),
(348,557,o),
(338,568,q),
(334,574,o),
(313,592,o),
(303,600,qs),
(294,608,o),
(262,636,o),
(249,647,qs),
(217,678,o),
(183,690,o),
(163,679,qs),
(157,676,o),
(130,652,o),
(116,638,qs),
(102,624,o),
(67,594,o),
(57,586,qs),
(47,579,o),
(30,564,o),
(28,561,qs),
(18,546,o),
(33,485,qs),
(37,470,o),
(44,428,o),
(45,414,qs),
(47,386,o),
(45,304,o),
(36,220,o),
(30,190,qs),
(23,160,o),
(25,138,o),
(33,128,qs),
(43,117,o),
(56,105,qs),
(62,100,o),
(95,68,o),
(113,50,qs),
(130,32,o),
(160,4,o),
(164,3,qs),
(172,0,o),
(186,0,qs)
);
},
{
closed = 1;
nodes = (
(196,106,o),
(169,131,qs),
(162,138,o),
(153,150,o),
(150,181,o),
(150,250,o),
(150,315,qs),
(150,358,o),
(149,438,o),
(148,495,o),
(147,503,qs),
(145,527,o),
(146,539,o),
(152,551,qs),
(166,580,o),
(183,580,qs),
(190,580,o),
(203,568,qs),
(211,560,o),
(220,548,o),
(224,524,o),
(223,473,o),
(222,426,qs),
(222,395,o),
(221,329,o),
(222,273,o),
(222,257,qs),
(225,202,o),
(225,152,o),
(220,134,o),
(214,126,qs)
);
}
);
width = 374;
}
);
note = uni004F;
unicode = 79;
},
{
glyphname = uni0050;
lastChange = "2026-06-24 21:12:53 +0000";
layers = (
{
layerId = m01;
shapes = (
{
closed = 1;
nodes = (
(149,9,o),
(170,36,o),
(187,67,o),
(198,90,o),
(198,91,q),
(207,111,o),
(206,136,o),
(195,158,qs),
(181,190,o),
(168,251,o),
(166,292,o),
(166,292,q),
(166,293,o),
(181,287,o),
(196,280,o),
(196,280,q),
(221,267,o),
(242,263,o),
(251,269,qs),
(259,275,o),
(291,304,o),
(325,338,o),
(350,365,o),
(351,368,qs),
(352,371,o),
(353,410,o),
(355,473,qs),
(355,535,ls),
(355,555,o),
(350,578,o),
(332,604,o),
(314,627,qs),
(291,657,o),
(264,686,o),
(250,686,qs),
(247,686,o),
(237,680,qs),
(220,671,o),
(189,634,o),
(167,602,o),
(164,602,q),
(162,603,o),
(156,626,o),
(144,656,o),
(125,679,o),
(111,679,qs),
(103,679,o),
(99,677,qs),
(90,671,o),
(64,634,o),
(41,592,o),
(36,581,qs),
(33,574,o),
(33,561,o),
(45,527,o),
(61,488,q),
(65,469,o),
(68,418,o),
(68,368,o),
(67,335,o),
(67,334,qs),
(65,274,o),
(54,204,o),
(42,166,o),
(30,147,o),
(24,133,o),
(25,121,qs),
(26,113,o),
(39,80,o),
(60,42,o),
(82,12,o),
(91,7,qs),
(102,2,o),
(129,0,o),
(139,4,qs)
);
},
{
closed = 1;
nodes = (
(174,326,o),
(166,353,o),
(166,372,qs),
(166,392,o),
(168,443,o),
(170,490,o),
(171,520,o),
(172,521,q),
(174,559,o),
(192,583,o),
(211,580,o),
(215,577,qs),
(232,565,o),
(237,513,o),
(237,450,qs),
(237,380,o),
(227,321,o),
(198,323,qs)
);
}
);
width = 379;
}
);
note = uni0050;
unicode = 80;
},
{
glyphname = uni0051;
lastChange = "2026-06-24 21:12:53 +0000";
layers = (
{
layerId = m01;
shapes = (
{
closed = 1;
nodes = (
(363,12,o),
(380,54,o),
(373,82,o),
(359,77,qs),
(349,73,o),
(317,74,o),
(292,81,o),
(292,87,qs),
(292,89,o),
(311,110,o),
(334,136,o),
(341,144,qs),
(347,152,o),
(347,170,o),
(342,202,qs),
(327,282,o),
(324,402,o),
(335,486,o),
(348,537,o),
(348,547,qs),
(348,558,o),
(332,578,o),
(305,600,qs),
(296,607,o),
(271,628,o),
(250,647,o),
(247,650,qs),
(219,677,o),
(184,691,o),
(150,669,o),
(124,643,qs),
(113,631,o),
(81,604,o),
(70,597,qs),
(40,575,o),
(24,556,o),
(24,544,qs),
(24,529,o),
(30,500,qs),
(44,429,o),
(44,298,o),
(33,206,o),
(29,191,qs),
(23,162,o),
(37,136,o),
(53,120,qs),
(69,102,o),
(83,73,qs),
(104,28,o),
(152,0,o),
(197,8,o),
(234,33,o),
(244,41,q),
(262,24,o),
(278,10,o),
(292,2,qs),
(310,-10,o),
(331,-12,o),
(343,-3,qs)
);
},
{
closed = 1;
nodes = (
(103,95,o),
(131,127,o),
(153,127,qs),
(172,126,o),
(194,103,o),
(203,81,o),
(203,81,q),
(203,73,o),
(182,55,o),
(152,45,o),
(123,53,o),
(115,70,qs)
);
},
{
closed = 1;
nodes = (
(217,166,o),
(184,174,o),
(152,182,o),
(152,182,q),
(151,264,o),
(150,368,o),
(149,428,o),
(149,458,o),
(149,472,o),
(149,479,qs),
(149,519,o),
(150,536,qs),
(151,557,o),
(168,575,o),
(185,580,o),
(185,580,q),
(194,579,o),
(221,547,o),
(222,530,qs),
(222,521,o),
(221,480,o),
(220,444,o),
(220,444,q),
(218,366,o),
(222,268,o),
(224,200,o),
(220,165,q)
);
}
);
width = 402;
}
);
note = uni0051;
unicode = 81;
},
{
glyphname = uni0052;
lastChange = "2026-06-24 21:12:53 +0000";
layers = (
{
layerId = m01;
shapes = (
{
closed = 1;
nodes = (
(311,4,o),
(335,-2,o),
(362,25,o),
(380,61,qs),
(394,89,o),
(402,121,o),
(394,132,qs),
(377,155,o),
(370,168,qs),
(355,191,o),
(344,268,o),
(332,303,qs),
(322,328,o),
(285,347,o),
(254,353,o),
(254,360,qs),
(254,363,o),
(266,370,o),
(284,379,qs),
(318,393,o),
(347,422,o),
(354,465,o),
(355,502,qs),
(357,537,o),
(353,575,o),
(336,607,o),
(317,633,qs),
(293,664,o),
(264,685,o),
(246,681,o),
(240,677,qs),
(217,663,o),
(188,621,o),
(173,589,o),
(170,589,qs),
(167,589,o),
(161,608,o),
(161,609,q),
(153,634,o),
(121,678,o),
(109,678,qs),
(98,677,o),
(72,647,o),
(49,607,o),
(33,577,o),
(33,577,q),
(27,560,o),
(36,539,o),
(54,515,o),
(70,476,o),
(70,441,qs),
(70,371,ls),
(70,317,o),
(67,248,o),
(52,190,o),
(34,154,qs),
(24,132,o),
(27,103,o),
(43,69,qs),
(114,-74,o),
(191,76,qs),
(203,101,o),
(203,116,qs),
(203,132,o),
(185,167,o),
(181,181,qs),
(179,189,o),
(173,234,o),
(168,286,o),
(169,327,o),
(173,330,qs),
(174,331,o),
(198,332,o),
(200,332,qs),
(208,331,o),
(231,315,o),
(238,299,qs),
(245,282,o),
(249,228,o),
(248,181,o),
(248,175,qs),
(247,127,o),
(258,49,o),
(297,17,qs)
);
},
{
closed = 1;
nodes = (
(173,370,o),
(171,372,qs),
(168,374,o),
(166,419,o),
(168,479,o),
(173,532,o),
(176,542,qs),
(181,556,o),
(201,576,o),
(205,576,qs),
(207,576,o),
(229,559,o),
(234,543,qs),
(238,531,o),
(241,485,o),
(240,439,o),
(238,426,qs),
(233,398,o),
(205,375,o),
(180,370,o),
(180,370,q)
);
}
);
width = 423;
}
);
note = uni0052;
unicode = 82;
},
{
glyphname = uni0053;
lastChange = "2026-06-24 21:12:53 +0000";
layers = (
{
layerId = m01;
shapes = (
{
closed = 1;
nodes = (
(193,-4,o),
(217,8,o),
(240,32,qs),
(252,44,o),
(283,72,o),
(293,79,qs),
(315,96,o),
(332,116,o),
(337,131,qs),
(344,155,o),
(336,233,o),
(323,260,qs),
(317,274,o),
(300,299,o),
(268,334,o),
(241,362,qs),
(215,389,o),
(187,419,o),
(172,443,o),
(164,458,qs),
(152,482,o),
(144,539,o),
(150,555,qs),
(158,578,o),
(189,581,o),
(204,559,qs),
(212,547,l),
(208,518,ls),
(204,487,o),
(216,452,o),
(235,438,qs),
(270,412,o),
(290,440,qs),
(295,447,o),
(316,487,o),
(335,528,o),
(337,535,qs),
(344,560,o),
(329,587,o),
(294,610,qs),
(279,619,o),
(245,645,o),
(236,655,qs),
(226,664,o),
(206,680,o),
(203,682,qs),
(184,691,o),
(163,680,qs),
(159,678,o),
(137,660,o),
(126,650,qs),
(115,640,o),
(84,613,o),
(73,604,qs),
(62,595,o),
(41,575,o),
(37,570,qs),
(31,561,o),
(29,547,o),
(29,521,qs),
(29,497,o),
(32,475,o),
(37,460,qs),
(47,430,o),
(98,359,o),
(145,309,qs),
(193,260,o),
(211,213,qs),
(236,147,o),
(218,116,qs),
(205,94,o),
(192,101,qs),
(168,114,o),
(156,137,qs),
(151,149,o),
(150,158,o),
(154,175,qs),
(158,197,o),
(157,217,qs),
(156,229,o),
(153,240,o),
(147,245,q),
(133,260,o),
(105,260,qs),
(88,260,o),
(63,240,o),
(49,213,qs),
(12,144,o),
(30,114,qs),
(33,110,o),
(51,92,o),
(61,84,qs),
(71,76,o),
(102,48,o),
(113,37,qs),
(137,14,o),
(158,1,o),
(174,-1,qs)
);
}
);
width = 366;
}
);
note = uni0053;
unicode = 83;
},
{
glyphname = uni0054;
lastChange = "2026-06-24 21:12:53 +0000";
layers = (
{
layerId = m01;
shapes = (
{
closed = 1;
nodes = (
(185,1,o),
(214,-2,o),
(249,27,o),
(270,69,qs),
(281,90,o),
(289,113,o),
(284,134,o),
(277,151,qs),
(267,172,o),
(254,220,o),
(246,304,o),
(244,379,qs),
(242,452,o),
(242,532,o),
(245,567,o),
(250,574,o),
(253,574,qs),
(261,574,o),
(265,555,o),
(265,550,qs),
(265,514,o),
(294,490,o),
(313,482,q),
(324,494,ls),
(333,503,o),
(351,535,o),
(364,569,o),
(364,580,qs),
(366,597,o),
(364,605,qs),
(363,609,o),
(342,635,o),
(310,664,o),
(276,682,o),
(262,677,qs),
(246,672,o),
(209,646,o),
(199,641,qs),
(190,638,o),
(159,659,o),
(128,682,o),
(119,680,q),
(107,680,o),
(69,655,o),
(35,621,o),
(30,607,qs),
(24,591,o),
(33,542,o),
(56,499,o),
(88,482,o),
(105,498,qs),
(113,505,o),
(120,524,o),
(120,543,qs),
(120,560,o),
(125,571,o),
(133,571,qs),
(141,571,o),
(148,561,o),
(149,513,o),
(149,455,qs),
(149,367,o),
(142,244,o),
(134,208,qs),
(129,186,o),
(113,148,o),
(105,121,q),
(110,107,o),
(128,60,o),
(156,15,o),
(174,6,qs)
);
}
);
width = 387;
}
);
note = uni0054;
unicode = 84;
},
{
glyphname = uni0055;
lastChange = "2026-06-24 21:12:53 +0000";
layers = (
{
layerId = m01;
shapes = (
{
closed = 1;
nodes = (
(214,-4,o),
(231,0,o),
(252,17,o),
(271,38,qs),
(283,52,o),
(322,90,o),
(353,118,o),
(353,118,q),
(361,126,o),
(367,137,o),
(364,158,o),
(359,182,qs),
(345,252,o),
(341,376,o),
(346,426,qs),
(349,466,o),
(364,509,o),
(379,536,o),
(383,553,qs),
(385,563,o),
(370,607,o),
(345,653,o),
(316,686,o),
(304,686,qs),
(287,686,o),
(260,660,o),
(233,617,qs),
(221,598,o),
(213,576,o),
(217,552,o),
(224,530,qs),
(230,512,o),
(236,486,o),
(238,458,o),
(239,414,o),
(239,377,qs),
(239,296,ls),
(239,295,o),
(239,262,o),
(238,215,o),
(238,166,o),
(236,131,o),
(235,129,qs),
(224,106,o),
(182,117,o),
(173,135,qs),
(170,141,o),
(168,165,o),
(167,223,o),
(167,281,qs),
(166,352,o),
(168,450,o),
(171,477,qs),
(175,511,o),
(198,560,o),
(194,574,qs),
(193,577,o),
(186,593,o),
(172,621,qs),
(149,665,o),
(119,686,o),
(118,686,qs),
(113,686,o),
(110,688,q),
(98,691,o),
(70,662,o),
(44,619,o),
(26,579,o),
(25,572,qs),
(24,560,o),
(41,527,o),
(51,500,qs),
(58,478,o),
(66,420,o),
(68,366,o),
(68,326,o),
(68,322,qs),
(66,267,o),
(55,201,o),
(45,163,o),
(41,140,o),
(45,129,qs),
(46,125,o),
(66,103,o),
(86,83,o),
(86,83,q),
(118,51,o),
(154,16,o),
(174,1,o),
(189,-2,o),
(200,-3,qs)
);
}
);
width = 407;
}
);
note = uni0055;
unicode = 85;
},
{
glyphname = uni0056;
lastChange = "2026-06-24 21:12:53 +0000";
layers = (
{
layerId = m01;
shapes = (
{
closed = 1;
nodes = (
(219,2,o),
(227,9,qs),
(228,10,o),
(252,46,o),
(279,115,o),
(283,164,qs),
(289,215,o),
(299,287,o),
(313,356,o),
(325,401,qs),
(338,454,o),
(358,509,o),
(372,535,o),
(380,550,o),
(381,562,qs),
(381,569,o),
(372,595,o),
(361,618,o),
(360,621,qs),
(339,665,o),
(305,698,o),
(266,668,o),
(237,619,qs),
(225,598,o),
(217,574,o),
(229,538,o),
(245,498,q),
(246,452,o),
(246,381,o),
(240,308,o),
(233,258,qs),
(225,208,o),
(217,180,o),
(212,180,qs),
(206,180,o),
(197,209,o),
(190,251,o),
(184,293,o),
(182,322,o),
(182,323,qs),
(177,393,o),
(177,474,o),
(183,517,o),
(190,538,o),
(196,556,o),
(196,572,qs),
(196,580,o),
(177,615,o),
(158,646,o),
(158,646,q),
(138,675,o),
(106,695,o),
(71,664,o),
(47,617,qs),
(34,592,o),
(24,565,o),
(30,542,o),
(39,522,qs),
(99,387,o),
(125,138,qs),
(129,103,o),
(156,35,o),
(174,15,qs),
(182,6,o),
(191,2,o),
(203,2,qs)
);
}
);
width = 403;
}
);
note = uni0056;
unicode = 86;
},
{
glyphname = uni0057;
lastChange = "2026-06-24 21:12:53 +0000";
layers = (
{
layerId = m01;
shapes = (
{
closed = 1;
nodes = (
(204,15,o),
(226,65,o),
(245,127,o),
(261,186,o),
(271,227,o),
(271,229,qs),
(277,261,o),
(286,275,o),
(302,217,o),
(320,142,qs),
(330,103,o),
(353,36,o),
(362,22,qs),
(377,-3,o),
(423,1,o),
(437,32,qs),
(442,43,o),
(448,60,o),
(452,94,o),
(456,162,o),
(460,223,qs),
(462,266,o),
(484,364,o),
(511,449,o),
(531,503,o),
(531,504,q),
(541,527,o),
(548,557,o),
(541,584,o),
(532,604,qs),
(512,645,o),
(487,680,o),
(472,687,o),
(466,687,qs),
(448,687,o),
(418,657,o),
(394,615,o),
(378,578,o),
(376,571,q),
(384,535,o),
(393,490,o),
(397,452,o),
(398,404,o),
(398,364,qs),
(398,286,o),
(391,206,o),
(381,177,o),
(373,176,o),
(373,177,q),
(370,180,o),
(357,225,o),
(344,296,o),
(334,380,o),
(333,422,qs),
(333,478,l),
(358,563,o),
(358,573,qs),
(358,578,o),
(341,614,o),
(317,656,o),
(292,686,o),
(283,686,qs),
(276,686,o),
(251,658,o),
(227,617,o),
(210,581,o),
(210,573,qs),
(210,568,o),
(217,543,o),
(224,522,o),
(224,522,q),
(233,496,o),
(241,453,o),
(241,399,o),
(231,314,o),
(221,244,qs),
(213,193,o),
(204,169,o),
(198,173,qs),
(191,177,o),
(183,221,o),
(178,280,o),
(176,337,o),
(175,375,o),
(175,376,qs),
(175,418,o),
(176,446,qs),
(177,484,o),
(187,529,o),
(196,556,o),
(196,569,qs),
(196,573,o),
(181,610,o),
(156,656,o),
(126,689,o),
(112,689,qs),
(99,689,o),
(90,684,qs),
(79,677,o),
(56,643,o),
(36,603,o),
(24,569,o),
(24,561,qs),
(24,556,o),
(31,534,o),
(38,516,o),
(38,515,q),
(59,467,o),
(86,369,o),
(101,285,o),
(108,233,o),
(108,232,qs),
(112,185,o),
(114,121,o),
(115,98,qs),
(117,61,o),
(142,10,o),
(176,-7,o),
(194,6,qs)
);
}
);
width = 571;
}
);
note = uni0057;
unicode = 87;
},
{
glyphname = uni0058;
lastChange = "2026-06-24 21:12:53 +0000";
layers = (
{
layerId = m01;
shapes = (
{
closed = 1;
nodes = (
(304,-5,o),
(330,30,o),
(353,79,o),
(365,121,o),
(363,128,q),
(363,132,o),
(343,158,o),
(338,163,qs),
(306,202,o),
(261,280,o),
(237,333,o),
(237,334,qs),
(237,335,o),
(251,365,o),
(270,404,o),
(285,434,o),
(285,434,q),
(305,471,o),
(322,504,o),
(332,518,o),
(340,528,qs),
(350,540,o),
(358,559,o),
(356,572,qs),
(355,575,o),
(339,612,o),
(316,657,o),
(291,690,o),
(282,689,qs),
(273,688,o),
(242,655,o),
(212,612,o),
(207,597,qs),
(201,578,o),
(219,538,o),
(222,506,qs),
(222,495,o),
(219,457,o),
(212,417,o),
(203,389,o),
(198,389,qs),
(192,389,o),
(181,410,o),
(173,441,qs),
(163,485,o),
(166,534,o),
(176,563,o),
(179,588,o),
(168,609,qs),
(135,670,o),
(92,695,o),
(53,633,o),
(26,565,q),
(66,503,o),
(119,399,o),
(146,336,o),
(146,335,q),
(121,285,ls),
(96,235,o),
(62,180,o),
(40,152,o),
(29,138,o),
(27,129,qs),
(24,119,o),
(38,73,o),
(61,24,o),
(72,11,qs),
(73,10,o),
(92,-4,o),
(123,-1,o),
(141,25,qs),
(166,58,o),
(177,108,o),
(170,132,qs),
(156,177,o),
(164,252,o),
(182,298,o),
(182,299,q),
(188,309,o),
(197,294,o),
(206,261,qs),
(217,216,o),
(220,160,o),
(215,125,o),
(209,101,o),
(212,90,q),
(214,75,o),
(242,30,o),
(278,-5,o),
(293,-5,qs)
);
}
);
width = 386;
}
);
note = uni0058;
unicode = 88;
},
{
glyphname = uni0059;
lastChange = "2026-06-24 21:12:53 +0000";
layers = (
{
layerId = m01;
shapes = (
{
closed = 1;
nodes = (
(211,-5,o),
(245,23,o),
(265,64,qs),
(277,89,o),
(286,113,o),
(281,131,o),
(272,148,qs),
(260,172,o),
(248,206,o),
(244,246,o),
(244,278,qs),
(244,315,o),
(245,327,qs),
(246,342,o),
(265,389,o),
(291,440,o),
(317,485,o),
(335,514,o),
(335,515,q),
(351,537,o),
(361,563,o),
(352,593,o),
(339,621,qs),
(323,653,o),
(305,682,o),
(293,689,o),
(289,689,qs),
(279,689,o),
(244,656,o),
(214,611,o),
(210,592,qs),
(206,576,o),
(221,527,o),
(224,506,qs),
(225,489,o),
(218,435,o),
(207,388,o),
(205,383,qs),
(199,370,o),
(185,393,o),
(173,439,o),
(165,486,o),
(165,498,qs),
(165,526,o),
(178,567,o),
(178,580,qs),
(178,595,o),
(149,640,qs),
(129,669,o),
(107,692,o),
(95,688,qs),
(84,685,o),
(62,656,o),
(42,619,o),
(36,604,qs),
(27,585,o),
(23,563,o),
(37,536,o),
(55,507,qs),
(66,491,o),
(92,442,o),
(100,426,qs),
(115,395,o),
(131,359,o),
(139,334,o),
(140,306,o),
(140,283,qs),
(140,247,o),
(134,202,o),
(113,156,o),
(92,119,q),
(96,102,o),
(101,89,o),
(107,75,qs),
(121,45,o),
(142,13,o),
(166,0,o),
(183,-2,qs)
);
}
);
width = 384;
}
);
note = uni0059;
unicode = 89;
},
{
glyphname = uni005A;
lastChange = "2026-06-24 21:12:53 +0000";
layers = (
{
layerId = m01;
shapes = (
{
closed = 1;
nodes = (
(69,7,o),
(84,-2,o),
(108,1,o),
(123,19,qs),
(130,28,o),
(148,40,o),
(185,33,o),
(221,14,qs),
(244,3,o),
(282,-7,o),
(302,11,q),
(302,11,o),
(320,32,o),
(343,63,o),
(361,93,o),
(361,102,qs),
(361,110,o),
(350,138,o),
(338,162,o),
(338,163,q),
(323,191,o),
(308,214,o),
(296,216,o),
(286,213,qs),
(264,206,o),
(246,184,o),
(246,149,qs),
(246,136,o),
(241,121,o),
(234,106,q),
(212,107,o),
(178,114,o),
(178,128,qs),
(178,137,o),
(195,193,o),
(221,269,o),
(251,350,o),
(278,421,o),
(295,467,o),
(296,469,qs),
(317,519,o),
(343,567,o),
(356,586,o),
(356,593,qs),
(356,596,o),
(344,624,o),
(327,659,o),
(310,686,o),
(305,688,qs),
(297,691,o),
(273,677,o),
(249,656,o),
(230,640,o),
(227,641,q),
(221,641,o),
(203,652,o),
(188,663,o),
(188,663,q),
(175,673,o),
(129,689,o),
(114,689,qs),
(96,689,o),
(64,665,o),
(39,632,o),
(24,602,o),
(24,595,qs),
(24,591,o),
(34,562,o),
(50,528,o),
(71,499,o),
(82,494,qs),
(87,491,o),
(111,492,o),
(133,513,o),
(133,540,qs),
(133,561,o),
(146,579,o),
(168,579,qs),
(200,581,o),
(209,571,o),
(208,563,qs),
(208,556,o),
(192,505,o),
(166,432,o),
(136,349,o),
(106,271,o),
(83,212,o),
(78,199,qs),
(57,152,o),
(30,115,o),
(30,103,qs),
(30,93,o),
(46,51,o),
(64,13,o),
(69,8,q)
);
}
);
width = 386;
}
);
note = uni005A;
unicode = 90;
},
{
glyphname = uni0061;
lastChange = "2026-06-24 21:12:53 +0000";
layers = (
{
layerId = m01;
shapes = (
{
closed = 1;
nodes = (
(273,-1,o),
(297,20,o),
(321,48,o),
(338,71,o),
(338,74,qs),
(338,79,o),
(325,95,qs),
(310,115,o),
(295,153,o),
(290,208,o),
(290,254,qs),
(290,280,o),
(291,311,o),
(294,339,o),
(301,377,o),
(308,409,q),
(296,429,o),
(278,450,o),
(256,472,qs),
(226,502,o),
(186,534,o),
(151,536,o),
(107,506,o),
(73,475,qs),
(56,459,o),
(30,430,o),
(29,425,qs),
(27,417,o),
(40,381,o),
(61,345,o),
(73,336,qs),
(89,323,o),
(131,328,o),
(138,342,qs),
(144,355,o),
(139,406,o),
(141,419,qs),
(142,430,o),
(162,437,o),
(183,428,o),
(186,416,qs),
(187,409,o),
(188,366,o),
(186,324,o),
(184,318,qs),
(181,307,o),
(138,294,o),
(83,274,o),
(60,253,qs),
(48,242,o),
(39,203,o),
(35,158,o),
(29,139,qs),
(26,126,o),
(26,107,o),
(44,77,o),
(67,48,qs),
(89,19,o),
(114,0,o),
(128,4,q),
(137,8,o),
(172,49,o),
(182,72,q),
(185,82,o),
(193,87,o),
(197,70,qs),
(203,51,o),
(228,17,o),
(257,-4,o),
(266,-2,qs)
);
},
{
closed = 1;
nodes = (
(150,110,o),
(138,136,o),
(136,168,o),
(136,179,qs),
(136,189,o),
(138,225,o),
(154,254,o),
(174,254,qs),
(185,254,o),
(190,246,o),
(190,240,qs),
(190,238,o),
(190,231,o),
(187,201,o),
(184,165,qs),
(181,131,o),
(171,109,o),
(163,110,qs)
);
}
);
width = 362;
}
);
note = uni0061;
unicode = 97;
},
{
glyphname = uni0062;
lastChange = "2026-06-24 21:12:53 +0000";
layers = (
{
layerId = m01;
shapes = (
{
closed = 1;
nodes = (
(139,20,o),
(152,49,o),
(157,72,o),
(161,73,qs),
(165,73,o),
(173,55,o),
(194,32,qs),
(221,0,o),
(253,8,o),
(280,46,qs),
(293,65,o),
(314,95,o),
(328,112,q),
(328,267,l),
(327,422,l),
(317,437,o),
(283,485,o),
(252,524,o),
(247,526,qs),
(236,529,o),
(209,509,o),
(185,479,o),
(169,453,o),
(169,450,qs),
(169,448,o),
(160,439,o),
(154,434,q),
(154,463,ls),
(154,505,o),
(162,554,o),
(171,583,o),
(173,594,qs),
(174,600,o),
(158,631,o),
(133,667,o),
(108,692,o),
(100,692,qs),
(94,692,o),
(47,648,o),
(24,595,q),
(33,573,o),
(44,545,o),
(50,520,o),
(54,486,o),
(56,459,qs),
(62,361,o),
(61,238,o),
(50,167,o),
(37,133,o),
(27,116,o),
(27,107,qs),
(27,102,o),
(37,82,o),
(48,62,o),
(50,59,qs),
(72,20,o),
(104,-4,o),
(124,10,qs)
);
},
{
closed = 1;
nodes = (
(178,120,o),
(164,162,o),
(160,234,o),
(161,297,qs),
(161,332,o),
(162,349,qs),
(163,389,o),
(189,420,o),
(190,420,qs),
(193,420,o),
(201,416,qs),
(207,413,o),
(214,404,o),
(217,376,o),
(218,313,o),
(218,257,qs),
(218,188,o),
(218,156,qs),
(217,135,o),
(212,102,o),
(201,91,o),
(191,105,qs)
);
}
);
width = 353;
}
);
note = uni0062;
unicode = 98;
},
{
glyphname = uni0063;
lastChange = "2026-06-24 21:12:53 +0000";
layers = (
{
layerId = m01;
shapes = (
{
closed = 1;
nodes = (
(183,0,o),
(189,4,qs),
(191,5,o),
(215,27,o),
(250,60,o),
(285,95,o),
(309,121,o),
(310,125,qs),
(313,135,o),
(299,173,o),
(275,214,o),
(247,244,o),
(237,246,qs),
(226,247,o),
(194,226,o),
(190,212,qs),
(187,199,o),
(192,165,o),
(196,131,o),
(188,109,o),
(170,109,qs),
(147,109,o),
(143,133,qs),
(142,137,o),
(142,172,o),
(141,218,o),
(141,265,o),
(141,280,qs),
(142,333,o),
(142,363,qs),
(142,385,o),
(144,418,o),
(148,423,qs),
(155,431,o),
(179,426,o),
(199,412,o),
(200,406,qs),
(200,399,o),
(195,369,o),
(195,355,qs),
(194,332,o),
(216,311,o),
(239,306,o),
(240,306,qs),
(256,306,o),
(284,341,o),
(292,356,qs),
(309,384,o),
(313,415,o),
(300,432,q),
(300,432,o),
(267,464,o),
(222,504,o),
(180,535,o),
(171,535,qs),
(162,535,o),
(119,506,o),
(70,466,o),
(30,428,o),
(24,419,q),
(30,395,o),
(37,366,o),
(40,341,o),
(41,308,o),
(41,280,qs),
(41,249,o),
(40,218,o),
(38,196,o),
(35,179,qs),
(29,153,o),
(26,129,o),
(35,113,o),
(48,100,qs),
(93,50,o),
(140,8,o),
(162,0,o),
(170,0,qs)
);
}
);
width = 336;
}
);
note = uni0063;
unicode = 99;
},
{
glyphname = uni0064;
lastChange = "2026-06-24 21:12:53 +0000";
layers = (
{
layerId = m01;
shapes = (
{
closed = 1;
nodes = (
(256,0,o),
(266,7,qs),
(275,14,o),
(295,45,o),
(314,77,o),
(327,101,o),
(327,101,q),
(313,130,o),
(303,153,o),
(299,167,qs),
(290,192,o),
(285,277,o),
(286,372,o),
(290,457,o),
(295,512,o),
(295,513,qs),
(301,541,o),
(316,579,o),
(318,588,qs),
(319,595,o),
(302,627,o),
(276,664,o),
(265,680,qs),
(252,696,o),
(221,681,o),
(193,645,o),
(174,610,o),
(174,607,q),
(172,598,o),
(186,567,o),
(189,551,q),
(189,551,o),
(191,517,o),
(194,474,o),
(196,441,o),
(196,440,q),
(194,434,o),
(182,457,o),
(162,493,o),
(136,524,o),
(120,526,qs),
(110,527,o),
(81,501,o),
(52,464,o),
(29,433,o),
(26,428,q),
(25,340,o),
(25,240,o),
(24,199,o),
(24,198,qs),
(24,138,ls),
(24,124,o),
(27,103,o),
(44,75,o),
(63,50,qs),
(80,27,o),
(108,1,o),
(137,9,o),
(157,38,qs),
(176,64,o),
(182,91,o),
(186,88,qs),
(187,87,o),
(196,60,o),
(212,26,o),
(234,0,o),
(249,0,qs)
);
},
{
closed = 1;
nodes = (
(155,101,o),
(144,108,o),
(140,127,qs),
(137,138,o),
(134,191,o),
(132,258,o),
(131,320,o),
(131,362,o),
(131,363,qs),
(131,400,o),
(132,403,qs),
(134,410,o),
(146,426,o),
(150,426,qs),
(154,426,o),
(165,414,qs),
(178,399,o),
(189,383,o),
(192,360,o),
(193,336,qs),
(193,253,o),
(185,156,o),
(184,152,qs),
(178,128,o),
(156,101,o),
(156,101,q)
);
}
);
width = 352;
}
);
note = uni0064;
unicode = 100;
},
{
glyphname = uni0065;
lastChange = "2026-06-24 21:12:53 +0000";
layers = (
{
layerId = m01;
shapes = (
{
closed = 1;
nodes = (
(197,8,o),
(234,39,o),
(280,81,o),
(313,118,o),
(313,125,qs),
(313,136,o),
(295,188,o),
(281,208,qs),
(267,227,o),
(225,228,o),
(192,205,o),
(192,189,qs),
(192,172,o),
(202,149,o),
(202,131,qs),
(200,110,o),
(167,105,o),
(156,117,qs),
(151,123,o),
(145,136,o),
(144,165,o),
(145,223,o),
(147,273,q),
(186,273,ls),
(225,272,o),
(286,278,o),
(290,282,qs),
(294,286,o),
(303,327,o),
(309,380,o),
(309,424,o),
(303,431,qs),
(300,435,o),
(267,468,o),
(223,508,o),
(185,538,o),
(178,538,qs),
(169,538,o),
(133,515,o),
(91,480,o),
(53,443,o),
(28,414,o),
(28,410,qs),
(28,404,o),
(36,379,o),
(36,379,q),
(40,368,o),
(43,350,o),
(44,315,o),
(44,280,qs),
(44,206,l),
(31,171,o),
(23,139,o),
(33,120,o),
(48,104,qs),
(87,60,o),
(136,15,o),
(164,-1,o),
(183,2,o),
(192,6,qs)
);
},
{
closed = 1;
nodes = (
(144,318,l),
(145,367,ls),
(145,391,o),
(147,417,o),
(147,422,q),
(149,432,o),
(170,436,o),
(181,432,qs),
(192,428,o),
(199,404,o),
(199,365,qs),
(198,340,o),
(197,331,qs),
(196,321,o),
(188,317,o),
(167,317,qs)
);
}
);
width = 337;
}
);
note = uni0065;
unicode = 101;
},
{
glyphname = uni0066;
lastChange = "2026-06-24 21:12:53 +0000";
layers = (
{
layerId = m01;
shapes = (
{
closed = 1;
nodes = (
(142,-1,o),
(161,10,o),
(188,59,o),
(215,111,q),
(202,144,o),
(186,189,o),
(178,232,o),
(175,293,o),
(175,342,qs),
(174,427,l),
(206,426,ls),
(231,426,o),
(241,428,o),
(245,433,qs),
(254,443,o),
(250,467,o),
(238,485,o),
(235,486,qs),
(229,487,o),
(201,482,o),
(176,478,o),
(173,481,qs),
(171,483,o),
(164,513,o),
(157,552,o),
(152,586,o),
(152,594,qs),
(152,606,o),
(154,611,qs),
(158,624,o),
(181,629,o),
(201,612,o),
(200,593,qs),
(200,573,ls),
(199,558,o),
(216,542,o),
(237,535,o),
(241,536,qs),
(251,537,o),
(271,563,o),
(288,597,o),
(299,627,o),
(299,632,qs),
(300,642,o),
(299,647,q),
(296,653,o),
(269,679,o),
(235,708,o),
(205,730,o),
(199,732,qs),
(191,734,o),
(158,725,o),
(121,708,o),
(90,691,o),
(84,687,qs),
(56,666,o),
(38,626,o),
(38,624,qs),
(37,617,o),
(45,585,o),
(57,546,o),
(68,512,o),
(71,503,qs),
(75,485,o),
(70,479,o),
(51,479,qs),
(35,479,o),
(32,478,qs),
(26,477,o),
(24,456,o),
(27,434,o),
(29,432,qs),
(34,428,o),
(70,426,o),
(76,423,q),
(78,421,o),
(80,385,o),
(81,331,qs),
(81,284,o),
(80,228,o),
(75,189,o),
(64,145,o),
(54,109,q),
(64,89,o),
(71,76,o),
(79,63,qs),
(95,36,o),
(111,13,o),
(122,6,o),
(129,3,qs)
);
}
);
width = 323;
}
);
note = uni0066;
unicode = 102;
},
{
glyphname = uni0067;
lastChange = "2026-06-24 21:12:53 +0000";
layers = (
{
layerId = m01;
shapes = (
{
closed = 1;
nodes = (
(230,-102,o),
(270,-68,o),
(297,-51,o),
(297,-47,qs),
(297,58,ls),
(297,105,o),
(296,161,qs),
(296,280,ls),
(296,314,o),
(297,361,o),
(299,370,qs),
(303,393,o),
(328,431,o),
(348,458,o),
(348,464,q),
(347,466,o),
(330,488,o),
(304,516,o),
(279,536,o),
(272,535,qs),
(263,535,o),
(228,506,o),
(213,477,qs),
(210,471,o),
(207,465,o),
(203,459,q),
(203,459,o),
(186,489,o),
(175,504,qs),
(161,520,o),
(144,531,o),
(129,531,qs),
(113,531,o),
(105,525,qs),
(99,521,o),
(73,489,o),
(45,452,o),
(24,424,o),
(24,424,q),
(24,141,l),
(64,99,ls),
(97,63,o),
(118,47,o),
(125,47,qs),
(131,47,o),
(150,56,qs),
(173,66,o),
(189,94,o),
(193,94,q),
(194,95,o),
(195,73,o),
(195,49,o),
(195,46,qs),
(195,-11,o),
(187,-54,o),
(174,-57,qs),
(161,-59,o),
(152,-43,o),
(148,-17,o),
(143,10,o),
(134,19,qs),
(123,29,o),
(87,28,o),
(58,2,o),
(56,-23,qs),
(54,-58,o),
(65,-83,o),
(78,-97,qs),
(117,-140,o),
(164,-165,o),
(195,-148,o),
(210,-130,qs)
);
},
{
closed = 1;
nodes = (
(141,118,o),
(133,224,o),
(134,312,qs),
(135,367,o),
(137,418,o),
(143,432,o),
(149,432,qs),
(155,432,o),
(179,408,o),
(185,392,qs),
(188,383,o),
(191,362,o),
(192,318,o),
(192,233,o),
(191,161,q),
(181,139,o),
(171,123,o),
(163,122,qs)
);
}
);
width = 372;
}
);
note = uni0067;
unicode = 103;
},
{
glyphname = uni0068;
lastChange = "2026-06-24 21:12:53 +0000";
layers = (
{
layerId = m01;
shapes = (
{
closed = 1;
nodes = (
(281,0,o),
(313,55,qs),
(327,80,o),
(337,103,o),
(333,119,o),
(326,134,qs),
(302,181,o),
(298,251,qs),
(295,300,o),
(310,364,o),
(327,403,o),
(327,414,qs),
(327,417,o),
(309,446,o),
(301,459,qs),
(275,497,o),
(249,527,o),
(233,527,o),
(222,522,qs),
(200,512,o),
(174,473,o),
(159,441,o),
(155,441,qs),
(151,441,o),
(153,491,qs),
(155,538,o),
(164,580,o),
(171,596,o),
(168,605,qs),
(167,608,o),
(151,634,o),
(130,665,o),
(113,688,o),
(111,689,qs),
(98,696,o),
(68,671,o),
(42,632,o),
(25,598,o),
(25,596,qs),
(25,592,o),
(35,568,o),
(46,538,o),
(48,525,qs),
(50,517,o),
(53,467,o),
(56,402,o),
(58,340,o),
(59,298,o),
(60,298,q),
(61,235,o),
(42,158,o),
(24,116,o),
(26,104,qs),
(26,102,o),
(41,66,o),
(65,25,o),
(92,-1,o),
(106,6,qs),
(114,10,o),
(141,48,o),
(163,95,o),
(163,112,qs),
(163,126,o),
(159,151,qs),
(152,193,o),
(147,249,o),
(147,311,o),
(148,360,q),
(160,383,ls),
(170,407,o),
(185,412,o),
(197,396,o),
(200,389,qs),
(207,376,o),
(210,323,o),
(208,257,o),
(202,191,o),
(197,139,o),
(197,128,qs),
(197,99,o),
(222,40,o),
(255,0,o),
(266,0,qs)
);
}
);
width = 360;
}
);
note = uni0068;
unicode = 104;
},
{
glyphname = uni0069;
lastChange = "2026-06-24 21:12:53 +0000";
layers = (
{
layerId = m01;
shapes = (
{
closed = 1;
nodes = (
(159,77,o),
(173,94,o),
(173,100,qs),
(173,104,o),
(164,129,o),
(164,129,q),
(149,169,o),
(139,245,o),
(141,291,qs),
(143,333,o),
(153,379,o),
(164,402,o),
(172,415,o),
(172,424,qs),
(172,431,o),
(162,446,qs),
(146,471,o),
(139,480,o),
(137,484,qs),
(109,529,o),
(76,517,o),
(50,475,q),
(35,455,o),
(25,435,o),
(29,416,o),
(37,398,qs),
(44,383,o),
(52,351,o),
(54,302,o),
(53,260,qs),
(52,222,o),
(49,178,o),
(42,148,o),
(35,132,qs),
(27,113,o),
(29,91,o),
(39,72,qs),
(76,7,o),
(118,-2,o),
(143,46,qs)
);
},
{
closed = 1;
nodes = (
(110,550,ls),
(123,557,o),
(148,589,o),
(164,618,o),
(164,623,qs),
(164,629,o),
(143,658,o),
(115,685,o),
(105,688,qs),
(91,691,o),
(59,666,o),
(36,631,o),
(36,621,qs),
(36,617,o),
(61,567,o),
(98,544,q)
);
}
);
width = 196;
}
);
note = uni0069;
unicode = 105;
},
{
glyphname = uni006A;
lastChange = "2026-06-24 21:12:53 +0000";
layers = (
{
layerId = m01;
shapes = (
{
closed = 1;
nodes = (
(125,-154,o),
(144,-138,o),
(165,-113,qs),
(173,-104,o),
(202,-78,o),
(215,-68,qs),
(234,-53,o),
(246,-41,o),
(247,-35,qs),
(247,-31,o),
(247,45,o),
(245,95,qs),
(245,128,o),
(244,201,o),
(243,266,o),
(244,285,qs),
(245,356,l),
(257,388,ls),
(262,401,o),
(270,423,o),
(270,425,qs),
(270,431,o),
(257,447,qs),
(252,453,o),
(237,476,o),
(231,486,qs),
(206,527,o),
(197,527,qs),
(194,527,o),
(187,522,qs),
(181,517,o),
(169,499,qs),
(156,481,o),
(145,467,qs),
(135,455,o),
(119,429,o),
(119,425,qs),
(119,424,o),
(125,409,o),
(129,400,qs),
(137,384,o),
(145,362,o),
(148,324,o),
(149,246,o),
(149,175,qs),
(148,90,o),
(147,-4,o),
(145,-44,o),
(142,-47,q),
(140,-52,o),
(120,-51,o),
(117,-46,qs),
(113,-41,o),
(109,-20,qs),
(100,18,o),
(85,26,qs),
(79,29,o),
(72,28,o),
(60,22,qs),
(8,-5,o),
(31,-74,qs),
(46,-119,o),
(92,-164,o),
(116,-157,qs)
);
},
{
closed = 1;
nodes = (
(204,545,o),
(237,575,o),
(251,598,qs),
(260,612,o),
(253,638,o),
(235,659,qs),
(218,679,o),
(193,689,o),
(179,681,qs),
(170,675,o),
(143,644,o),
(138,634,qs),
(129,614,o),
(145,591,qs),
(154,578,o),
(187,548,o),
(194,547,qs)
);
}
);
width = 294;
}
);
note = uni006A;
unicode = 106;
},
{
glyphname = uni006B;
lastChange = "2026-06-24 21:12:53 +0000";
layers = (
{
layerId = m01;
shapes = (
{
closed = 1;
nodes = (
(122,10,o),
(145,43,o),
(164,75,o),
(166,79,qs),
(173,93,o),
(167,120,o),
(154,166,o),
(151,212,qs),
(149,247,o),
(152,262,o),
(159,259,qs),
(163,258,o),
(185,212,o),
(194,185,qs),
(201,165,o),
(201,143,o),
(197,120,o),
(199,99,qs),
(200,84,o),
(220,44,o),
(250,10,o),
(280,-4,o),
(292,8,qs),
(297,13,o),
(314,41,o),
(331,73,o),
(343,100,o),
(343,103,qs),
(343,110,o),
(327,126,o),
(293,163,o),
(267,201,qs),
(252,222,o),
(222,265,o),
(201,294,o),
(201,294,q),
(201,296,o),
(211,306,o),
(244,335,o),
(279,365,qs),
(332,409,o),
(334,416,qs),
(335,419,o),
(320,456,o),
(297,501,o),
(275,535,o),
(268,535,qs),
(260,535,o),
(246,525,qs),
(221,506,o),
(199,470,o),
(189,449,q),
(194,416,o),
(197,392,o),
(197,378,qs),
(197,364,o),
(195,359,qs),
(194,355,o),
(179,331,o),
(160,311,o),
(155,315,q),
(154,315,o),
(151,353,o),
(149,413,o),
(149,481,o),
(155,544,o),
(162,565,qs),
(166,580,o),
(167,599,o),
(157,620,o),
(145,639,qs),
(126,669,o),
(105,688,o),
(95,684,qs),
(85,680,o),
(60,653,o),
(38,621,o),
(24,597,o),
(24,596,qs),
(24,594,o),
(32,572,o),
(36,563,qs),
(43,545,o),
(51,517,o),
(54,477,o),
(55,408,o),
(55,348,qs),
(55,283,o),
(54,213,o),
(53,196,qs),
(50,161,o),
(24,113,o),
(24,104,qs),
(24,102,o),
(42,65,o),
(69,22,o),
(100,-4,o),
(114,5,qs)
);
}
);
width = 368;
}
);
note = uni006B;
unicode = 107;
},
{
glyphname = uni006C;
lastChange = "2026-06-24 21:12:53 +0000";
layers = (
{
layerId = m01;
shapes = (
{
closed = 1;
nodes = (
(155,61,o),
(173,96,o),
(169,118,o),
(162,133,qs),
(153,152,o),
(144,199,o),
(141,284,o),
(141,362,qs),
(141,414,o),
(142,446,qs),
(142,495,o),
(149,543,o),
(158,562,o),
(166,574,o),
(167,587,qs),
(167,594,o),
(150,627,o),
(125,663,o),
(100,687,o),
(93,686,qs),
(86,685,o),
(64,662,o),
(40,629,o),
(24,599,o),
(24,592,qs),
(24,584,o),
(36,557,o),
(41,541,qs),
(43,534,o),
(46,520,o),
(48,490,o),
(49,427,o),
(50,370,qs),
(50,275,ls),
(50,222,o),
(44,167,o),
(37,146,qs),
(30,125,o),
(26,102,o),
(32,84,o),
(40,69,qs),
(73,10,o),
(112,-7,o),
(132,25,qs)
);
}
);
width = 197;
}
);
note = uni006C;
unicode = 108;
},
{
glyphname = uni006D;
lastChange = "2026-06-24 21:12:53 +0000";
layers = (
{
layerId = m01;
shapes = (
{
closed = 1;
nodes = (
(436,1,o),
(459,29,o),
(481,68,o),
(496,101,o),
(495,107,qs),
(494,115,o),
(471,147,o),
(450,214,o),
(450,275,qs),
(450,299,o),
(452,316,qs),
(455,340,o),
(474,381,o),
(491,412,o),
(491,420,qs),
(491,425,o),
(468,460,o),
(437,500,o),
(409,530,o),
(404,530,qs),
(397,530,o),
(369,503,o),
(339,468,o),
(317,441,o),
(316,441,qs),
(314,441,o),
(312,446,qs),
(311,449,o),
(298,474,o),
(278,504,o),
(259,527,o),
(253,529,qs),
(244,531,o),
(215,503,o),
(185,465,o),
(163,438,o),
(162,440,q),
(160,442,o),
(147,469,o),
(147,469,q),
(137,489,o),
(105,530,o),
(99,530,qs),
(94,530,o),
(69,500,o),
(43,461,o),
(24,430,o),
(24,430,q),
(41,397,o),
(55,368,o),
(60,357,o),
(62,350,qs),
(69,329,o),
(72,278,o),
(68,230,o),
(64,199,o),
(64,198,qs),
(59,177,o),
(41,138,o),
(27,108,o),
(27,103,qs),
(27,94,o),
(53,49,qs),
(68,24,o),
(96,-6,o),
(111,8,qs),
(120,16,o),
(144,51,o),
(161,80,o),
(162,80,q),
(167,91,o),
(168,106,o),
(162,127,o),
(156,164,o),
(154,198,qs),
(154,245,ls),
(154,304,o),
(158,362,o),
(165,387,o),
(170,398,qs),
(176,411,o),
(185,413,o),
(197,401,qs),
(205,393,o),
(216,371,o),
(222,320,o),
(221,269,qs),
(219,218,o),
(208,160,o),
(197,129,o),
(189,111,o),
(189,101,qs),
(189,97,o),
(206,61,o),
(232,20,o),
(261,-5,o),
(273,2,qs),
(279,5,o),
(299,32,o),
(315,57,o),
(316,57,q),
(326,75,o),
(334,94,o),
(330,114,o),
(324,132,qs),
(311,174,o),
(304,246,o),
(304,278,qs),
(304,301,o),
(306,338,o),
(310,352,qs),
(315,369,o),
(334,404,o),
(354,418,o),
(368,395,o),
(369,354,qs),
(371,324,o),
(368,242,o),
(362,164,o),
(357,112,o),
(357,111,qs),
(356,91,o),
(380,38,o),
(414,-1,o),
(429,1,qs)
);
}
);
width = 520;
}
);
note = uni006D;
unicode = 109;
},
{
glyphname = uni006E;
lastChange = "2026-06-24 21:12:53 +0000";
layers = (
{
layerId = m01;
shapes = (
{
closed = 1;
nodes = (
(102,0,o),
(119,18,o),
(132,35,o),
(132,36,q),
(148,61,o),
(162,87,o),
(161,114,o),
(158,140,qs),
(151,186,o),
(145,274,o),
(148,342,o),
(154,360,qs),
(155,363,o),
(167,392,o),
(183,414,o),
(191,406,qs),
(199,399,o),
(205,363,o),
(206,323,o),
(206,308,qs),
(206,248,o),
(199,171,o),
(194,121,o),
(197,101,qs),
(199,87,o),
(223,39,o),
(252,0,o),
(264,0,qs),
(273,0,o),
(296,31,o),
(318,72,o),
(333,104,o),
(333,104,q),
(319,130,o),
(299,180,o),
(289,247,o),
(292,299,qs),
(293,324,o),
(311,370,o),
(327,405,o),
(325,412,qs),
(324,416,o),
(302,450,o),
(273,493,o),
(249,525,o),
(246,527,qs),
(234,536,o),
(204,514,o),
(176,476,o),
(158,444,o),
(158,444,q),
(152,434,o),
(147,436,o),
(144,451,qs),
(142,462,o),
(122,501,o),
(100,532,o),
(95,532,qs),
(93,532,o),
(82,523,qs),
(69,513,o),
(43,469,o),
(24,432,o),
(24,432,q),
(39,399,o),
(60,338,o),
(65,257,o),
(56,195,qs),
(52,166,o),
(27,114,o),
(27,104,qs),
(27,102,o),
(41,70,o),
(63,30,o),
(86,0,o),
(95,0,qs)
);
}
);
width = 358;
}
);
note = uni006E;
unicode = 110;
},
{
glyphname = uni006F;
lastChange = "2026-06-24 21:12:53 +0000";
layers = (
{
layerId = m01;
shapes = (
{
closed = 1;
nodes = (
(187,0,o),
(213,30,qs),
(214,31,o),
(237,55,o),
(268,88,o),
(292,115,o),
(294,118,qs),
(297,123,o),
(299,157,o),
(298,201,o),
(296,237,o),
(296,244,qs),
(295,261,o),
(296,316,o),
(299,374,o),
(300,415,o),
(299,418,qs),
(297,422,o),
(266,454,o),
(225,494,o),
(191,526,o),
(185,530,q),
(164,540,o),
(127,519,o),
(87,479,qs),
(53,446,o),
(27,418,o),
(27,406,q),
(26,406,o),
(28,374,o),
(30,330,o),
(31,286,o),
(31,274,qs),
(31,226,o),
(28,192,qs),
(24,153,o),
(26,123,o),
(32,114,qs),
(41,103,o),
(68,74,o),
(89,53,o),
(89,53,q),
(114,28,o),
(139,5,o),
(153,0,o),
(164,0,qs)
);
},
{
closed = 1;
nodes = (
(172,100,o),
(155,100,o),
(134,133,q),
(133,270,ls),
(133,348,o),
(134,413,o),
(135,415,qs),
(138,423,o),
(154,438,o),
(160,438,qs),
(168,438,o),
(179,426,qs),
(186,420,o),
(192,409,o),
(193,385,o),
(193,358,qs),
(193,346,o),
(193,326,o),
(192,284,o),
(191,198,o),
(190,120,q)
);
}
);
width = 323;
}
);
note = uni006F;
unicode = 111;
},
{
glyphname = uni0070;
lastChange = "2026-06-24 21:12:53 +0000";
layers = (
{
layerId = m01;
shapes = (
{
closed = 1;
nodes = (
(126,-150,o),
(157,-113,o),
(182,-70,o),
(182,-58,qs),
(182,-52,o),
(175,-28,o),
(168,-8,o),
(168,-8,q),
(148,60,o),
(144,113,o),
(144,114,q),
(147,121,o),
(170,74,o),
(209,39,qs),
(227,21,o),
(249,16,o),
(274,44,o),
(297,77,qs),
(312,98,o),
(324,119,o),
(326,142,o),
(326,166,qs),
(326,246,ls),
(326,298,o),
(327,340,qs),
(328,373,o),
(330,396,o),
(331,404,o),
(330,414,qs),
(329,421,o),
(307,458,o),
(278,500,o),
(251,531,o),
(246,533,qs),
(233,537,o),
(203,512,o),
(176,476,o),
(158,447,o),
(157,447,qs),
(155,447,o),
(153,455,qs),
(145,491,o),
(107,532,o),
(100,532,qs),
(92,532,o),
(69,507,o),
(47,473,o),
(30,443,o),
(27,438,q),
(40,413,o),
(54,384,o),
(61,360,o),
(62,330,o),
(62,305,qs),
(63,278,o),
(62,195,o),
(59,110,o),
(55,45,o),
(53,35,qs),
(48,9,o),
(24,-26,o),
(24,-41,qs),
(24,-50,o),
(43,-91,o),
(72,-135,o),
(105,-162,o),
(119,-154,qs)
);
},
{
closed = 1;
nodes = (
(207,104,o),
(198,106,o),
(190,115,qs),
(179,126,o),
(167,153,o),
(162,207,o),
(161,305,o),
(162,386,q),
(173,408,o),
(183,427,o),
(187,432,o),
(189,433,qs),
(193,435,o),
(199,429,o),
(216,411,q),
(216,105,l)
);
}
);
width = 356;
}
);
note = uni0070;
unicode = 112;
},
{
glyphname = uni0071;
lastChange = "2026-06-24 21:12:53 +0000";
layers = (
{
layerId = m01;
shapes = (
{
closed = 1;
nodes = (
(282,-157,o),
(297,-137,o),
(311,-116,o),
(311,-114,q),
(311,-114,o),
(326,-89,o),
(341,-59,o),
(341,-52,qs),
(341,-47,o),
(331,-25,o),
(326,-16,qs),
(314,6,o),
(306,30,o),
(305,47,q),
(303,57,o),
(301,119,o),
(300,198,o),
(299,273,o),
(299,324,o),
(299,325,qs),
(299,362,o),
(301,381,qs),
(303,402,o),
(323,437,o),
(341,463,o),
(341,470,qs),
(341,471,o),
(330,493,o),
(310,521,o),
(286,541,o),
(274,541,qs),
(266,541,o),
(248,520,o),
(232,491,o),
(220,470,o),
(219,470,qs),
(218,470,o),
(207,483,o),
(197,496,o),
(197,496,q),
(171,527,o),
(137,544,o),
(111,530,o),
(97,514,q),
(97,514,o),
(77,491,o),
(49,461,o),
(27,435,o),
(24,432,q),
(24,282,ls),
(24,219,o),
(26,128,o),
(26,127,q),
(27,125,o),
(48,98,o),
(77,62,o),
(108,32,o),
(118,26,qs),
(122,23,o),
(139,35,qs),
(160,50,o),
(178,76,o),
(189,101,qs),
(196,117,o),
(202,116,o),
(202,99,o),
(202,91,qs),
(200,49,o),
(192,3,o),
(185,-21,o),
(179,-35,o),
(179,-45,qs),
(178,-55,o),
(201,-94,o),
(235,-136,o),
(269,-162,o),
(280,-158,qs)
);
},
{
closed = 1;
nodes = (
(166,113,o),
(140,125,o),
(136,165,qs),
(135,175,o),
(134,228,o),
(133,298,o),
(134,366,o),
(135,416,o),
(137,423,qs),
(139,429,o),
(153,440,o),
(159,441,qs),
(168,441,o),
(186,410,o),
(191,401,q),
(191,164,l),
(182,145,ls)
);
}
);
width = 366;
}
);
note = uni0071;
unicode = 113;
},
{
glyphname = uni0072;
lastChange = "2026-06-24 21:12:53 +0000";
layers = (
{
layerId = m01;
shapes = (
{
closed = 1;
nodes = (
(163,72,o),
(171,94,o),
(167,115,o),
(160,136,qs),
(140,193,o),
(136,291,o),
(146,351,o),
(146,352,q),
(152,370,o),
(177,399,o),
(181,394,qs),
(183,392,o),
(187,369,o),
(187,369,q),
(191,331,o),
(214,304,o),
(235,302,o),
(237,302,q),
(246,304,o),
(271,329,o),
(293,359,o),
(308,383,o),
(308,384,qs),
(308,386,o),
(296,398,qs),
(278,416,o),
(257,474,o),
(243,524,o),
(234,532,qs),
(228,537,o),
(206,522,o),
(182,494,o),
(162,464,o),
(158,454,qs),
(151,437,o),
(148,440,qs),
(147,441,o),
(139,466,o),
(126,498,o),
(108,525,o),
(87,533,o),
(75,520,qs),
(66,510,o),
(42,475,o),
(24,442,o),
(24,436,qs),
(24,432,o),
(32,413,o),
(34,408,qs),
(43,391,o),
(52,361,o),
(55,317,o),
(55,278,qs),
(55,248,o),
(54,208,o),
(49,174,o),
(38,134,o),
(27,102,q),
(58,35,o),
(97,-7,o),
(130,18,o),
(151,52,qs)
);
}
);
width = 332;
}
);
note = uni0072;
unicode = 114;
},
{
glyphname = uni0073;
lastChange = "2026-06-24 21:12:53 +0000";
layers = (
{
layerId = m01;
shapes = (
{
closed = 1;
nodes = (
(185,0,o),
(206,24,qs),
(219,39,o),
(246,62,o),
(246,62,q),
(266,80,o),
(284,101,o),
(290,117,o),
(292,129,qs),
(297,163,o),
(275,220,o),
(230,274,o),
(202,304,qs),
(172,334,o),
(145,367,o),
(137,392,o),
(137,408,qs),
(139,431,o),
(152,442,o),
(171,434,o),
(180,427,q),
(181,397,o),
(182,371,o),
(184,364,q),
(186,349,o),
(215,331,o),
(228,331,qs),
(245,331,o),
(272,369,o),
(289,419,o),
(292,438,q),
(292,438,o),
(263,466,o),
(220,503,o),
(178,532,o),
(165,535,qs),
(154,536,o),
(117,516,o),
(78,485,o),
(48,456,o),
(43,449,qs),
(39,443,o),
(31,418,o),
(31,412,qs),
(31,387,o),
(46,345,o),
(62,319,o),
(65,317,q),
(70,309,o),
(95,282,o),
(123,252,o),
(142,231,o),
(143,231,q),
(170,201,o),
(188,152,o),
(185,116,o),
(175,97,o),
(175,97,q),
(170,92,o),
(163,93,o),
(154,100,qs),
(142,110,o),
(137,125,o),
(138,155,qs),
(138,192,l),
(127,206,o),
(111,220,o),
(98,221,qs),
(78,221,o),
(54,192,o),
(48,182,qs),
(28,148,o),
(23,109,o),
(49,77,o),
(76,52,qs),
(101,30,o),
(129,7,o),
(146,0,o),
(157,0,qs)
);
}
);
width = 316;
}
);
note = uni0073;
unicode = 115;
},
{
glyphname = uni0074;
lastChange = "2026-06-24 21:12:53 +0000";
layers = (
{
layerId = m01;
shapes = (
{
closed = 1;
nodes = (
(146,1,o),
(170,26,o),
(191,60,o),
(206,88,o),
(206,91,q),
(208,101,o),
(194,135,o),
(189,160,qs),
(184,179,o),
(180,250,o),
(177,334,o),
(177,410,o),
(179,461,o),
(180,463,q),
(184,467,o),
(207,467,qs),
(229,467,o),
(240,477,o),
(241,494,qs),
(242,508,o),
(237,519,o),
(212,519,o),
(184,517,q),
(182,530,o),
(179,569,o),
(179,569,q),
(177,588,o),
(162,621,o),
(155,621,qs),
(152,621,o),
(146,617,o),
(123,598,o),
(96,575,qs),
(62,545,o),
(28,510,o),
(22,486,o),
(30,474,q),
(34,470,o),
(68,465,o),
(74,461,q),
(77,460,o),
(80,438,o),
(82,378,o),
(82,321,qs),
(83,255,o),
(78,183,o),
(70,145,o),
(63,119,o),
(63,100,qs),
(63,89,o),
(79,56,o),
(102,23,o),
(127,1,o),
(136,1,qs)
);
}
);
width = 265;
}
);
note = uni0074;
unicode = 116;
},
{
glyphname = uni0075;
lastChange = "2026-06-24 21:12:53 +0000";
layers = (
{
layerId = m01;
shapes = (
{
closed = 1;
nodes = (
(296,5,o),
(314,31,o),
(335,65,o),
(350,91,o),
(350,93,qs),
(350,95,o),
(337,119,o),
(322,150,o),
(318,164,qs),
(312,183,o),
(308,240,o),
(309,295,o),
(311,333,o),
(312,334,q),
(314,365,o),
(336,404,o),
(340,422,qs),
(342,431,o),
(324,468,o),
(298,509,o),
(275,538,o),
(271,538,qs),
(264,538,o),
(238,510,o),
(212,470,o),
(193,433,o),
(193,425,qs),
(193,416,o),
(205,395,o),
(211,376,qs),
(215,364,o),
(219,313,o),
(219,252,o),
(217,196,o),
(214,178,qs),
(209,144,o),
(189,116,o),
(170,117,o),
(164,127,qs),
(160,134,o),
(155,181,o),
(153,242,o),
(152,300,o),
(152,318,qs),
(154,350,o),
(158,380,o),
(164,392,o),
(170,403,o),
(172,416,qs),
(173,425,o),
(158,463,o),
(134,504,o),
(109,534,o),
(102,535,qs),
(91,536,o),
(65,504,o),
(40,460,o),
(24,426,o),
(24,426,q),
(43,390,o),
(55,349,o),
(55,324,qs),
(55,164,l),
(46,133,o),
(36,102,q),
(48,77,o),
(83,23,o),
(119,-6,o),
(135,6,qs),
(142,12,o),
(168,43,o),
(192,75,o),
(196,83,qs),
(201,93,o),
(208,95,o),
(214,78,qs),
(230,31,o),
(276,-11,o),
(293,3,qs)
);
}
);
width = 374;
}
);
note = uni0075;
unicode = 117;
},
{
glyphname = uni0076;
lastChange = "2026-06-24 21:12:53 +0000";
layers = (
{
layerId = m01;
shapes = (
{
closed = 1;
nodes = (
(211,3,o),
(236,50,o),
(250,110,qs),
(264,171,o),
(274,209,qs),
(293,285,o),
(328,366,o),
(350,406,o),
(350,418,qs),
(350,421,o),
(336,455,o),
(314,498,o),
(292,532,o),
(283,534,qs),
(273,537,o),
(238,504,o),
(209,449,o),
(209,418,qs),
(209,399,o),
(211,362,qs),
(219,220,o),
(196,206,qs),
(184,199,o),
(176,228,qs),
(171,250,o),
(170,314,o),
(174,377,o),
(178,419,o),
(178,420,qs),
(178,440,o),
(145,491,qs),
(124,525,o),
(95,540,o),
(66,506,o),
(45,465,qs),
(35,445,o),
(30,433,o),
(24,418,q),
(41,380,o),
(60,338,o),
(71,309,o),
(79,291,qs),
(95,249,o),
(112,186,o),
(126,120,o),
(139,75,qs),
(149,41,o),
(163,10,o),
(181,2,o),
(197,3,qs)
);
}
);
width = 375;
}
);
note = uni0076;
unicode = 118;
},
{
glyphname = uni0077;
lastChange = "2026-06-24 21:12:53 +0000";
layers = (
{
layerId = m01;
shapes = (
{
closed = 1;
nodes = (
(403,18,o),
(421,136,qs),
(431,211,o),
(476,318,o),
(514,386,o),
(514,403,qs),
(514,410,o),
(503,438,o),
(492,462,o),
(492,463,q),
(461,524,o),
(419,544,o),
(385,487,qs),
(363,448,o),
(360,394,o),
(367,361,qs),
(371,342,o),
(372,281,o),
(368,230,o),
(368,225,qs),
(365,192,o),
(355,173,o),
(346,180,o),
(345,185,qs),
(336,221,o),
(332,248,qs),
(326,290,o),
(325,338,o),
(331,365,o),
(338,389,o),
(339,408,qs),
(339,421,o),
(324,464,o),
(301,506,o),
(277,535,o),
(270,535,qs),
(262,535,o),
(237,502,o),
(212,455,o),
(205,434,qs),
(199,417,o),
(206,379,o),
(218,340,o),
(218,321,qs),
(218,306,o),
(214,268,o),
(209,238,o),
(209,236,qs),
(203,198,o),
(194,171,o),
(188,173,o),
(185,179,qs),
(175,198,o),
(171,260,o),
(171,276,qs),
(171,308,o),
(175,348,o),
(181,378,qs),
(185,398,o),
(184,423,o),
(174,447,qs),
(150,501,o),
(114,542,o),
(84,532,o),
(55,483,o),
(38,447,qs),
(29,426,o),
(24,404,o),
(36,372,o),
(53,337,qs),
(72,296,o),
(96,233,o),
(110,168,o),
(116,127,qs),
(119,110,o),
(130,56,o),
(147,9,o),
(158,3,q),
(194,-11,o),
(227,70,o),
(248,170,qs),
(262,236,o),
(269,237,qs),
(273,237,o),
(282,197,o),
(292,137,o),
(307,71,o),
(327,17,o),
(356,-9,o),
(376,2,qs)
);
}
);
width = 538;
}
);
note = uni0077;
unicode = 119;
},
{
glyphname = uni0078;
lastChange = "2026-06-24 21:12:53 +0000";
layers = (
{
layerId = m01;
shapes = (
{
closed = 1;
nodes = (
(96,-6,o),
(113,14,o),
(129,40,o),
(140,60,o),
(140,61,q),
(149,80,o),
(141,136,o),
(143,168,qs),
(144,177,o),
(151,209,o),
(161,233,o),
(171,233,o),
(175,210,qs),
(179,180,o),
(183,118,o),
(185,103,qs),
(189,72,o),
(216,23,o),
(245,-6,o),
(253,-6,qs),
(270,-6,o),
(307,73,qs),
(313,88,o),
(315,104,o),
(303,122,o),
(287,141,qs),
(279,150,o),
(252,187,o),
(225,230,o),
(206,265,o),
(206,271,qs),
(206,275,o),
(213,289,qs),
(225,316,o),
(262,375,o),
(292,412,qs),
(302,424,o),
(302,436,o),
(293,454,qs),
(271,498,o),
(249,533,o),
(239,539,o),
(235,538,q),
(235,537,o),
(214,523,o),
(187,491,o),
(178,464,qs),
(176,458,o),
(176,446,o),
(183,416,o),
(192,381,q),
(183,343,o),
(180,330,o),
(180,330,q),
(179,329,o),
(173,324,o),
(164,333,o),
(160,354,qs),
(154,381,o),
(152,435,o),
(150,455,qs),
(147,470,o),
(124,507,o),
(98,535,o),
(93,535,qs),
(86,535,o),
(66,508,o),
(45,470,o),
(31,439,o),
(31,434,qs),
(31,428,o),
(41,410,o),
(65,377,qs),
(77,361,o),
(105,314,o),
(125,278,o),
(125,277,q),
(128,272,o),
(124,259,o),
(113,237,qs),
(86,183,o),
(45,133,o),
(23,113,o),
(25,103,qs),
(27,93,o),
(41,57,o),
(60,20,o),
(81,-6,o),
(89,-6,qs)
);
}
);
width = 339;
}
);
note = uni0078;
unicode = 120;
},
{
glyphname = uni0079;
lastChange = "2026-06-24 21:12:53 +0000";
layers = (
{
layerId = m01;
shapes = (
{
closed = 1;
nodes = (
(165,-122,o),
(198,-89,o),
(219,-75,qs),
(239,-61,o),
(255,-45,o),
(258,-16,o),
(258,15,qs),
(258,47,o),
(261,87,o),
(265,107,qs),
(274,156,o),
(294,229,o),
(320,294,o),
(353,362,o),
(375,405,q),
(364,439,o),
(335,495,o),
(310,529,o),
(307,531,qs),
(298,535,o),
(274,514,o),
(250,480,o),
(232,448,o),
(229,440,qs),
(224,425,o),
(229,377,o),
(236,318,o),
(235,257,o),
(225,229,qs),
(217,207,o),
(203,212,o),
(195,249,qs),
(192,262,o),
(190,294,o),
(190,326,qs),
(190,355,o),
(191,409,qs),
(192,425,o),
(174,466,o),
(149,505,o),
(127,531,o),
(125,532,qs),
(118,537,o),
(92,508,o),
(65,462,o),
(47,420,o),
(47,412,qs),
(47,407,o),
(50,396,o),
(65,365,o),
(83,329,qs),
(101,293,o),
(130,197,o),
(150,111,o),
(154,88,qs),
(163,44,o),
(160,-15,o),
(151,-44,o),
(150,-44,q),
(138,-57,o),
(128,-39,o),
(120,-4,o),
(105,27,o),
(88,27,qs),
(59,27,o),
(41,-13,qs),
(27,-43,o),
(35,-71,o),
(50,-95,qs),
(86,-150,o),
(124,-168,o),
(146,-143,qs)
);
}
);
width = 392;
}
);
note = uni0079;
unicode = 121;
},
{
glyphname = uni007A;
lastChange = "2026-06-24 21:12:53 +0000";
layers = (
{
layerId = m01;
shapes = (
{
closed = 1;
nodes = (
(250,-2,o),
(277,25,o),
(304,59,o),
(322,88,o),
(322,94,qs),
(322,99,o),
(317,114,qs),
(299,162,o),
(275,200,o),
(259,205,o),
(252,203,qs),
(226,196,o),
(218,160,o),
(218,146,qs),
(218,130,o),
(212,104,o),
(193,104,qs),
(183,104,o),
(162,111,o),
(161,118,q),
(159,123,o),
(175,171,o),
(203,240,o),
(238,315,o),
(274,380,o),
(289,399,qs),
(301,416,o),
(309,434,o),
(302,457,o),
(291,482,qs),
(270,527,o),
(247,532,o),
(224,500,qs),
(213,484,o),
(200,473,o),
(182,484,o),
(163,501,qs),
(141,520,o),
(117,534,o),
(96,529,qs),
(87,527,o),
(52,496,o),
(24,457,o),
(26,441,qs),
(26,434,o),
(39,402,o),
(58,368,o),
(76,343,o),
(82,343,qs),
(91,343,o),
(106,365,o),
(117,395,o),
(127,419,o),
(130,421,qs),
(134,423,o),
(163,420,o),
(167,416,qs),
(169,414,o),
(168,402,o),
(155,364,o),
(140,325,qs),
(106,240,o),
(58,150,o),
(30,110,o),
(27,100,qs),
(25,94,o),
(36,62,o),
(54,26,o),
(73,0,o),
(79,0,qs),
(81,0,o),
(101,16,o),
(122,34,o),
(127,37,qs),
(141,44,o),
(175,33,o),
(208,11,o),
(235,-6,o),
(242,-4,qs)
);
}
);
width = 345;
}
);
note = uni007A;
unicode = 122;
},
{
glyphname = uni00AA;
lastChange = "2026-06-24 21:12:53 +0000";
layers = (
{
layerId = m01;
shapes = (
{
closed = 1;
nodes = (
(71,326,o),
(86,344,o),
(96,363,o),
(96,363,q),
(99,363,o),
(101,347,o),
(113,334,qs),
(126,322,o),
(140,329,o),
(164,357,q),
(155,370,o),
(145,389,o),
(141,414,o),
(141,438,qs),
(141,470,o),
(148,495,o),
(148,507,qs),
(148,510,o),
(133,529,o),
(110,551,o),
(86,565,o),
(78,562,qs),
(72,559,o),
(46,537,o),
(24,515,o),
(24,512,qs),
(24,507,o),
(32,494,qs),
(48,464,o),
(75,471,o),
(75,497,qs),
(75,514,o),
(82,521,o),
(91,515,o),
(92,514,qs),
(97,509,o),
(97,486,o),
(93,465,o),
(93,465,q),
(90,460,o),
(64,452,o),
(38,440,o),
(34,430,qs),
(30,422,o),
(25,386,o),
(25,382,qs),
(24,370,o),
(41,345,o),
(61,327,o),
(64,327,qs)
);
},
{
closed = 1;
nodes = (
(77,367,o),
(73,395,qs),
(70,414,o),
(80,438,o),
(90,438,qs),
(94,438,o),
(96,435,o),
(96,427,qs),
(96,411,o),
(91,377,o),
(88,375,qs)
);
}
);
width = 188;
}
);
note = uni00AA;
unicode = 170;
},
{
glyphname = uni00BA;
lastChange = "2026-06-24 21:12:53 +0000";
layers = (
{
layerId = m01;
shapes = (
{
closed = 1;
nodes = (
(83,325,o),
(94,327,o),
(119,350,o),
(146,379,q),
(146,435,ls),
(146,459,o),
(147,483,o),
(148,499,o),
(149,510,q),
(128,531,o),
(105,554,o),
(97,560,qs),
(90,564,o),
(78,562,o),
(54,539,o),
(28,512,q),
(28,459,ls),
(28,433,o),
(27,406,o),
(25,391,o),
(24,382,q),
(45,359,o),
(65,338,o),
(73,332,o),
(77,330,q)
);
},
{
closed = 1;
nodes = (
(76,381,o),
(74,402,o),
(74,435,qs),
(73,472,o),
(73,488,qs),
(73,503,o),
(75,513,o),
(78,515,q),
(84,521,o),
(93,516,o),
(99,510,q),
(99,400,ls),
(99,372,o),
(85,371,o),
(80,376,qs)
);
}
);
width = 174;
}
);
note = uni00BA;
unicode = 186;
},
{
glyphname = uni00C0;
lastChange = "2026-06-24 21:12:53 +0000";
layers = (
{
layerId = m01;
shapes = (
{
closed = 1;
nodes = (
(344,-2,o),
(374,27,o),
(399,70,o),
(414,107,o),
(414,114,qs),
(414,126,o),
(384,186,o),
(371,219,qs),
(357,254,o),
(344,337,o),
(339,405,o),
(339,418,qs),
(338,457,o),
(346,503,o),
(357,528,o),
(366,544,o),
(366,555,qs),
(366,558,o),
(352,574,qs),
(248,688,o),
(226,688,qs),
(215,688,o),
(180,658,o),
(138,618,o),
(118,604,qs),
(90,583,o),
(73,565,o),
(73,560,qs),
(73,557,o),
(79,536,o),
(86,516,o),
(86,515,q),
(92,497,o),
(97,473,o),
(98,442,o),
(97,413,qs),
(97,267,o),
(43,162,qs),
(31,140,o),
(24,114,o),
(33,85,o),
(45,60,qs),
(60,30,o),
(87,3,o),
(105,3,qs),
(122,3,o),
(146,20,o),
(165,43,qs),
(186,70,o),
(202,104,o),
(199,138,o),
(193,166,qs),
(189,188,o),
(180,241,o),
(174,291,o),
(176,308,q),
(262,310,l),
(260,268,ls),
(257,220,o),
(237,133,o),
(237,114,qs),
(238,100,o),
(258,62,o),
(288,26,o),
(318,1,o),
(330,0,qs)
);
},
{
closed = 1;
nodes = (
(178,370,o),
(178,372,qs),
(178,373,o),
(183,406,o),
(190,457,o),
(196,509,o),
(201,547,o),
(201,552,qs),
(201,560,o),
(205,570,o),
(216,568,qs),
(222,567,o),
(230,559,o),
(236,530,o),
(245,463,o),
(252,403,qs),
(254,386,o),
(255,383,qs),
(257,377,o),
(254,376,q),
(249,373,o),
(222,371,o),
(199,370,o),
(199,370,q)
);
},
{
closed = 1;
nodes = (
(268,717,o),
(249,758,qs),
(226,808,o),
(198,857,o),
(180,857,qs),
(171,857,o),
(166,859,qs),
(155,862,o),
(124,839,o),
(100,809,o),
(101,800,qs),
(101,792,o),
(136,765,o),
(181,737,o),
(216,719,o),
(216,719,q),
(245,703,o),
(268,697,o),
(271,702,o),
(271,706,q)
);
}
);
width = 437;
}
);
note = uni00C0;
unicode = 192;
},
{
glyphname = uni00C1;
lastChange = "2026-06-24 21:12:53 +0000";
layers = (
{
layerId = m01;
shapes = (
{
closed = 1;
nodes = (
(128,6,o),
(154,30,o),
(174,57,qs),
(195,86,o),
(204,116,o),
(197,140,qs),
(188,177,o),
(179,222,o),
(176,257,qs),
(173,286,o),
(173,304,o),
(177,306,q),
(179,308,o),
(204,309,o),
(220,309,qs),
(257,308,l),
(257,269,ls),
(256,229,o),
(246,181,qs),
(239,146,o),
(238,102,o),
(254,66,o),
(272,43,qs),
(320,-18,o),
(356,7,qs),
(368,15,o),
(401,69,o),
(410,93,qs),
(418,118,l),
(399,155,ls),
(383,186,o),
(362,240,o),
(349,298,o),
(344,336,qs),
(327,461,o),
(359,531,qs),
(365,545,o),
(367,556,o),
(364,561,qs),
(361,566,o),
(334,596,o),
(297,634,o),
(263,667,o),
(254,674,qs),
(238,686,o),
(220,689,o),
(206,680,qs),
(201,676,o),
(174,654,o),
(160,642,qs),
(147,630,o),
(112,600,o),
(102,592,qs),
(90,583,o),
(74,566,o),
(73,563,qs),
(71,554,o),
(83,517,qs),
(90,499,o),
(95,478,o),
(96,446,o),
(95,413,qs),
(95,385,o),
(94,348,o),
(89,317,o),
(85,297,qs),
(76,251,o),
(55,187,o),
(39,154,qs),
(27,130,o),
(23,116,o),
(26,104,qs),
(30,92,o),
(45,58,o),
(63,27,o),
(69,20,qs),
(88,-1,o),
(115,4,qs)
);
},
{
closed = 1;
nodes = (
(177,374,o),
(182,414,o),
(186,441,qs),
(189,468,o),
(196,523,o),
(197,535,qs),
(199,546,o),
(201,564,o),
(202,566,qs),
(204,570,o),
(222,567,o),
(226,562,qs),
(232,555,o),
(234,542,qs),
(236,532,o),
(242,479,o),
(247,418,o),
(250,375,o),
(250,374,q),
(248,373,o),
(226,371,o),
(198,370,o),
(177,371,o),
(177,372,qs)
);
},
{
closed = 1;
nodes = (
(186,694,o),
(212,706,o),
(256,732,qs),
(293,754,o),
(329,777,o),
(342,790,o),
(344,795,qs),
(346,804,o),
(330,834,o),
(317,845,qs),
(308,853,o),
(296,857,o),
(281,857,qs),
(266,857,o),
(255,853,o),
(246,845,qs),
(238,838,o),
(222,807,o),
(206,768,qs),
(196,741,o),
(182,701,o),
(183,699,qs)
);
}
);
width = 443;
}
);
note = uni00C1;
unicode = 193;
},
{
glyphname = uni00C2;
lastChange = "2026-06-24 21:12:53 +0000";
layers = (
{
layerId = m01;
shapes = (
{
closed = 1;
nodes = (
(350,0,o),
(365,15,qs),
(388,39,o),
(411,90,o),
(422,119,q),
(403,158,o),
(382,202,o),
(370,234,o),
(364,253,qs),
(355,284,o),
(345,360,o),
(342,431,o),
(344,453,qs),
(346,485,o),
(362,528,o),
(374,554,o),
(372,562,q),
(370,566,o),
(353,584,qs),
(311,627,o),
(261,673,o),
(234,689,o),
(219,685,o),
(210,680,q),
(210,680,o),
(176,651,o),
(131,612,o),
(112,598,qs),
(97,587,o),
(79,570,o),
(77,567,qs),
(75,563,o),
(78,545,o),
(86,519,qs),
(102,475,o),
(104,388,o),
(93,315,o),
(88,291,qs),
(76,237,o),
(54,178,o),
(35,150,o),
(24,135,o),
(24,125,qs),
(24,124,o),
(35,88,o),
(57,40,o),
(88,5,o),
(109,7,qs),
(126,8,o),
(165,42,o),
(195,86,o),
(199,102,qs),
(204,122,o),
(193,188,o),
(179,261,o),
(179,291,qs),
(179,309,l),
(199,311,o),
(220,314,o),
(241,313,o),
(260,312,q),
(260,268,ls),
(259,218,o),
(240,137,o),
(240,119,qs),
(240,110,o),
(260,71,o),
(291,29,o),
(326,0,o),
(341,0,qs)
);
},
{
closed = 1;
nodes = (
(183,375,o),
(183,377,q),
(183,377,o),
(187,407,o),
(192,446,o),
(197,479,o),
(197,484,qs),
(202,530,o),
(207,563,o),
(209,565,qs),
(213,570,o),
(232,566,o),
(235,560,qs),
(238,554,o),
(244,515,o),
(250,463,o),
(254,413,o),
(257,380,o),
(257,379,q),
(254,377,o),
(223,376,o),
(194,375,o),
(194,375,q)
);
},
{
closed = 1;
nodes = (
(305,683,o),
(321,705,o),
(338,735,o),
(349,758,o),
(349,760,qs),
(349,761,o),
(344,766,q),
(344,766,o),
(309,794,o),
(275,825,qs),
(236,862,o),
(225,862,qs),
(219,862,o),
(198,847,o),
(175,826,qs),
(140,794,o),
(109,769,o),
(100,763,o),
(100,759,qs),
(100,756,o),
(111,733,o),
(127,705,o),
(143,684,o),
(148,684,qs),
(151,684,o),
(188,723,o),
(220,758,q),
(260,718,o),
(296,683,o),
(301,683,qs)
);
}
);
width = 447;
}
);
note = uni00C2;
unicode = 194;
},
{
glyphname = uni00C3;
lastChange = "2026-06-24 21:12:53 +0000";
layers = (
{
layerId = m01;
shapes = (
{
closed = 1;
nodes = (
(350,4,o),
(375,33,o),
(397,71,o),
(410,104,o),
(410,110,qs),
(410,116,o),
(399,143,o),
(388,167,o),
(388,168,q),
(374,199,o),
(338,321,o),
(338,423,qs),
(338,461,o),
(347,505,o),
(358,529,o),
(367,544,o),
(367,553,qs),
(367,554,o),
(343,583,o),
(305,623,o),
(265,662,o),
(232,688,o),
(225,688,qs),
(219,687,o),
(193,667,o),
(159,639,o),
(126,611,o),
(114,603,qs),
(95,590,o),
(68,565,o),
(68,561,qs),
(68,559,o),
(73,545,qs),
(83,510,o),
(96,466,o),
(101,432,o),
(101,394,o),
(98,367,qs),
(93,306,o),
(69,221,o),
(43,165,o),
(24,130,o),
(24,120,qs),
(24,111,o),
(36,74,o),
(58,34,o),
(84,4,o),
(99,2,qs),
(114,-1,o),
(151,26,o),
(181,63,o),
(188,76,qs),
(200,97,o),
(198,149,o),
(185,208,o),
(174,270,o),
(176,302,qs),
(176,304,o),
(190,306,o),
(217,306,qs),
(257,305,l),
(257,264,ls),
(256,216,o),
(237,134,o),
(237,114,qs),
(237,101,o),
(257,61,o),
(289,21,o),
(324,-3,o),
(339,1,qs)
);
},
{
closed = 1;
nodes = (
(183,370,o),
(181,379,o),
(183,395,q),
(183,395,o),
(187,428,o),
(193,471,o),
(195,487,qs),
(199,528,o),
(204,562,o),
(209,569,o),
(214,568,qs),
(221,567,o),
(230,558,o),
(238,522,o),
(248,443,o),
(255,372,qs),
(255,371,o),
(231,369,o),
(207,369,o),
(207,369,q),
(187,369,l)
);
},
{
closed = 1;
nodes = (
(151,702,o),
(160,742,o),
(167,750,q),
(172,758,o),
(203,740,o),
(241,713,o),
(259,707,qs),
(262,706,o),
(284,705,o),
(314,718,o),
(343,756,o),
(354,794,qs),
(364,827,o),
(342,857,o),
(317,850,qs),
(305,847,o),
(288,823,o),
(275,801,o),
(270,801,qs),
(267,801,o),
(251,809,o),
(236,817,o),
(236,817,q),
(198,839,o),
(177,840,qs),
(154,841,o),
(115,808,o),
(91,764,o),
(91,750,qs),
(91,732,o),
(107,702,o),
(130,688,o),
(139,695,qs)
);
}
);
width = 434;
}
);
note = uni00C3;
unicode = 195;
},
{
glyphname = uni00C4;
lastChange = "2026-06-24 21:13:04 +0000";
layers = (
{
layerId = m01;
shapes = (
{
closed = 1;
nodes = (
(139,14,o),
(177,55,o),
(189,75,qs),
(199,92,o),
(200,132,o),
(193,165,qs),
(184,200,o),
(173,273,o),
(174,287,qs),
(175,304,l),
(258,304,l),
(258,266,ls),
(258,245,o),
(252,203,o),
(245,170,qs),
(232,111,l),
(246,83,ls),
(251,72,o),
(272,43,o),
(280,33,qs),
(332,-24,o),
(367,18,qs),
(373,25,o),
(390,57,o),
(406,91,o),
(410,102,qs),
(412,110,o),
(412,121,o),
(403,142,o),
(392,166,qs),
(375,201,o),
(358,247,o),
(348,298,o),
(344,340,qs),
(339,387,o),
(338,452,o),
(348,501,o),
(359,525,qs),
(363,534,o),
(368,550,o),
(368,553,qs),
(368,556,o),
(346,580,o),
(313,615,o),
(277,650,o),
(248,676,o),
(242,679,qs),
(228,688,l),
(215,680,ls),
(209,677,o),
(185,657,o),
(173,647,qs),
(161,636,o),
(126,608,o),
(113,598,qs),
(100,588,o),
(79,571,o),
(77,569,qs),
(72,562,o),
(74,539,o),
(84,509,qs),
(89,494,o),
(97,455,o),
(98,443,qs),
(101,412,o),
(94,327,o),
(78,244,o),
(67,215,qs),
(63,204,o),
(47,170,o),
(40,156,qs),
(27,131,o),
(23,118,o),
(27,105,qs),
(32,84,o),
(60,29,o),
(71,19,qs),
(95,-6,o),
(125,8,qs)
);
},
{
closed = 1;
nodes = (
(207,367,o),
(185,368,o),
(184,369,qs),
(183,370,o),
(187,419,o),
(190,452,qs),
(194,485,o),
(200,541,o),
(200,548,qs),
(200,564,o),
(211,571,o),
(224,562,qs),
(229,559,o),
(236,539,o),
(243,494,o),
(247,452,qs),
(249,428,o),
(254,387,o),
(254,382,q),
(257,371,l),
(222,368,ls)
);
},
{
closed = 1;
nodes = (
(208,734,o),
(209,763,qs),
(209,776,o),
(182,818,o),
(166,829,qs),
(155,837,o),
(145,838,o),
(136,832,qs),
(116,819,o),
(84,774,o),
(84,760,qs),
(84,751,o),
(105,712,o),
(118,700,qs),
(136,682,o),
(154,681,o),
(170,698,qs)
);
},
{
closed = 1;
nodes = (
(320,692,o),
(344,720,o),
(361,752,o),
(361,763,qs),
(361,778,o),
(337,816,o),
(320,828,qs),
(308,837,o),
(294,837,o),
(281,828,qs),
(261,812,o),
(236,767,o),
(241,753,qs),
(253,708,o),
(286,688,qs),
(294,683,o),
(302,683,o),
(308,686,qs)
);
}
);
width = 437;
}
);
note = uni00C4;
unicode = 196;
},
{
glyphname = uni00C5;
lastChange = "2026-06-24 21:12:53 +0000";
layers = (
{
layerId = m01;
shapes = (
{
closed = 1;
nodes = (
(356,4,o),
(382,35,o),
(404,74,o),
(417,106,o),
(417,111,qs),
(417,117,o),
(403,149,o),
(383,192,o),
(375,214,qs),
(363,243,o),
(349,315,o),
(342,386,o),
(341,442,o),
(342,456,qs),
(344,491,o),
(360,532,o),
(372,554,o),
(370,562,qs),
(369,566,o),
(348,588,o),
(329,608,o),
(329,608,q),
(296,640,o),
(258,674,o),
(238,688,o),
(225,688,o),
(217,686,qs),
(201,682,o),
(155,632,o),
(114,604,qs),
(78,577,o),
(75,567,qs),
(74,563,o),
(76,553,o),
(86,520,o),
(98,481,q),
(98,409,ls),
(98,330,o),
(76,230,o),
(46,169,o),
(24,133,o),
(24,119,qs),
(24,110,o),
(32,91,qs),
(52,39,o),
(92,-1,o),
(130,4,o),
(164,37,o),
(178,58,qs),
(194,81,o),
(203,109,o),
(202,124,qs),
(201,129,o),
(195,167,o),
(186,217,o),
(179,267,o),
(176,303,o),
(178,306,qs),
(179,307,o),
(199,309,o),
(219,309,o),
(219,309,q),
(243,309,o),
(260,307,o),
(262,304,qs),
(265,297,o),
(262,254,o),
(255,201,o),
(246,150,o),
(240,116,o),
(240,115,qs),
(240,103,o),
(261,63,o),
(293,22,o),
(329,-3,o),
(344,1,qs)
);
},
{
closed = 1;
nodes = (
(181,374,o),
(186,416,o),
(195,475,o),
(202,529,o),
(202,542,qs),
(202,562,o),
(211,572,o),
(211,572,q),
(211,572,o),
(233,562,o),
(236,547,qs),
(243,518,o),
(250,450,o),
(255,391,o),
(260,375,q),
(225,372,o),
(185,371,o),
(183,373,q)
);
},
{
closed = 1;
nodes = (
(335,738,o),
(330,819,qs),
(328,853,o),
(301,892,o),
(267,911,o),
(253,915,qs),
(213,925,o),
(147,897,o),
(110,838,o),
(115,766,o),
(145,731,qs),
(199,671,o),
(268,705,qs)
);
},
{
closed = 1;
nodes = (
(202,767,o),
(191,802,o),
(195,838,o),
(217,853,o),
(239,839,qs),
(252,831,o),
(251,783,o),
(237,769,qs),
(229,761,o),
(222,759,o),
(215,762,qs)
);
}
);
width = 442;
}
);
note = uni00C5;
unicode = 197;
},
{
glyphname = uni00C6;
lastChange = "2026-06-24 21:12:53 +0000";
layers = (
{
layerId = m01;
shapes = (
{
closed = 1;
nodes = (
(431,14,o),
(476,56,o),
(512,81,qs),
(540,103,o),
(555,120,o),
(555,130,qs),
(555,134,o),
(545,176,o),
(526,225,o),
(496,260,o),
(476,257,qs),
(463,255,o),
(432,236,o),
(417,197,o),
(427,164,qs),
(430,157,o),
(434,134,o),
(421,116,o),
(398,116,qs),
(388,116,o),
(380,123,o),
(363,142,q),
(363,196,ls),
(363,223,o),
(366,286,o),
(369,332,o),
(371,334,qs),
(372,335,o),
(398,324,o),
(426,310,o),
(431,309,qs),
(443,307,o),
(469,333,o),
(472,376,o),
(449,399,q),
(438,406,o),
(411,387,o),
(383,366,o),
(372,371,qs),
(367,373,o),
(363,413,o),
(362,461,o),
(362,475,qs),
(361,561,l),
(383,583,l),
(395,577,o),
(410,565,o),
(415,555,q),
(421,537,o),
(422,487,o),
(425,478,qs),
(427,471,o),
(447,454,o),
(458,451,qs),
(479,445,o),
(514,470,o),
(535,514,qs),
(550,544,o),
(555,566,o),
(550,574,qs),
(547,578,o),
(509,609,o),
(459,648,o),
(418,678,o),
(413,681,qs),
(404,686,o),
(389,685,o),
(360,662,o),
(328,633,q),
(302,658,o),
(280,679,o),
(274,683,o),
(272,683,qs),
(264,683,o),
(221,649,o),
(164,601,o),
(137,581,qs),
(109,562,o),
(86,535,o),
(94,502,o),
(112,471,qs),
(118,460,o),
(119,422,o),
(111,380,qs),
(98,319,o),
(72,236,o),
(42,168,o),
(24,131,q),
(32,109,ls),
(46,66,o),
(82,26,o),
(117,17,o),
(141,22,o),
(143,23,qs),
(151,28,o),
(180,58,o),
(190,74,qs),
(204,98,o),
(205,154,o),
(194,214,o),
(182,274,o),
(182,301,qs),
(182,306,o),
(188,307,qs),
(191,307,o),
(228,305,o),
(263,301,o),
(264,300,qs),
(270,295,o),
(264,252,o),
(250,196,o),
(238,148,o),
(238,138,qs),
(238,126,o),
(261,101,o),
(299,71,qs),
(311,61,o),
(324,51,qs),
(334,42,o),
(342,33,o),
(352,24,o),
(363,16,qs),
(385,0,o),
(404,1,o),
(412,5,qs)
);
},
{
closed = 1;
nodes = (
(189,365,ls),
(189,366,o),
(196,403,o),
(207,459,o),
(219,515,o),
(229,555,o),
(232,557,qs),
(234,559,o),
(247,555,o),
(251,543,qs),
(253,536,o),
(258,496,o),
(263,443,o),
(266,393,o),
(266,360,o),
(264,359,qs),
(263,358,o),
(243,356,o),
(224,356,o),
(224,356,q),
(189,356,l)
);
}
);
width = 579;
}
);
note = uni00C6;
unicode = 198;
},
{
glyphname = uni00C7;
lastChange = "2026-06-24 21:12:53 +0000";
layers = (
{
layerId = m01;
shapes = (
{
closed = 1;
nodes = (
(245,-181,o),
(307,-120,o),
(304,-79,qs),
(302,-52,o),
(278,-21,o),
(249,-6,o),
(227,-2,o),
(227,-2,q),
(214,-2,o),
(213,2,qs),
(212,5,o),
(237,29,o),
(282,64,qs),
(290,70,o),
(322,97,o),
(349,123,o),
(350,130,qs),
(352,141,o),
(345,183,o),
(334,227,o),
(325,259,o),
(325,259,q),
(314,295,o),
(287,336,o),
(256,323,qs),
(226,310,o),
(212,263,o),
(219,207,o),
(228,153,o),
(222,133,qs),
(218,118,o),
(191,114,o),
(163,133,o),
(158,152,qs),
(157,157,o),
(155,201,o),
(154,260,o),
(153,318,o),
(153,357,o),
(153,358,qs),
(153,465,ls),
(153,508,o),
(154,547,o),
(157,558,o),
(159,561,qs),
(169,577,o),
(189,578,o),
(206,563,o),
(216,546,o),
(217,543,qs),
(219,534,o),
(215,472,o),
(215,441,qs),
(215,428,o),
(217,423,q),
(220,408,o),
(254,387,o),
(263,387,qs),
(281,385,o),
(312,420,o),
(335,473,o),
(348,522,o),
(347,534,qs),
(346,553,o),
(306,605,o),
(252,655,o),
(202,688,o),
(192,688,qs),
(177,688,o),
(129,648,qs),
(86,613,o),
(40,573,o),
(24,547,o),
(27,521,o),
(33,501,qs),
(42,469,o),
(46,380,o),
(44,294,o),
(43,266,qs),
(41,216,o),
(26,153,o),
(26,140,qs),
(26,131,o),
(30,125,qs),
(35,117,o),
(64,92,o),
(95,65,o),
(119,46,o),
(119,46,q),
(142,27,o),
(157,8,o),
(159,-3,qs),
(162,-18,o),
(163,-23,o),
(163,-23,q),
(165,-34,o),
(201,-56,o),
(208,-69,qs),
(213,-80,o),
(206,-106,o),
(193,-124,o),
(188,-124,qs),
(186,-124,o),
(161,-105,o),
(135,-86,o),
(131,-87,qs),
(125,-88,o),
(108,-114,o),
(108,-122,qs),
(108,-129,o),
(126,-157,o),
(165,-181,o),
(195,-181,qs)
);
}
);
width = 374;
}
);
note = uni00C7;
unicode = 199;
},
{
glyphname = uni00C8;
lastChange = "2026-06-24 21:12:53 +0000";
layers = (
{
layerId = m01;
shapes = (
{
closed = 1;
nodes = (
(228,20,o),
(275,60,o),
(306,82,qs),
(317,90,o),
(341,109,o),
(342,112,qs),
(346,120,o),
(342,165,o),
(325,217,o),
(297,254,o),
(277,254,qs),
(260,254,o),
(225,227,o),
(221,211,qs),
(216,191,o),
(228,150,o),
(228,143,qs),
(228,135,o),
(209,115,o),
(183,111,o),
(171,128,qs),
(163,140,o),
(163,167,qs),
(163,228,ls),
(163,282,o),
(166,321,o),
(166,322,q),
(169,326,o),
(189,322,o),
(215,312,qs),
(243,301,o),
(263,322,qs),
(286,345,o),
(271,374,qs),
(261,394,o),
(235,398,o),
(208,384,o),
(184,365,o),
(167,356,o),
(165,364,q),
(164,366,o),
(163,401,o),
(161,450,o),
(160,499,o),
(160,532,o),
(160,533,qs),
(160,551,o),
(167,576,o),
(187,576,qs),
(201,576,o),
(212,559,o),
(219,516,qs),
(226,475,o),
(240,451,o),
(255,450,qs),
(279,448,o),
(317,482,o),
(337,528,qs),
(349,554,o),
(344,574,o),
(323,592,qs),
(273,635,o),
(221,677,o),
(198,689,o),
(192,687,qs),
(190,686,o),
(183,681,o),
(158,663,o),
(130,641,qs),
(90,610,o),
(47,576,o),
(28,559,o),
(24,550,o),
(24,544,qs),
(24,538,o),
(32,513,o),
(37,500,qs),
(46,480,o),
(55,445,o),
(58,399,o),
(58,363,qs),
(58,327,o),
(54,270,o),
(45,216,o),
(37,181,qs),
(30,152,o),
(25,127,o),
(31,115,o),
(40,107,qs),
(51,96,o),
(65,84,o),
(81,71,o),
(95,60,qs),
(140,19,o),
(187,-8,o),
(212,9,qs)
);
},
{
closed = 1;
nodes = (
(245,695,o),
(230,729,o),
(208,774,o),
(192,810,o),
(192,812,qs),
(192,815,o),
(181,831,qs),
(164,855,o),
(124,858,o),
(89,837,o),
(69,806,o),
(70,795,q),
(72,788,o),
(107,762,o),
(157,732,o),
(207,707,o),
(242,692,o),
(244,694,qs)
);
}
);
width = 372;
}
);
note = uni00C8;
unicode = 200;
},
{
glyphname = uni00C9;
lastChange = "2026-06-24 21:12:53 +0000";
layers = (
{
layerId = m01;
shapes = (
{
closed = 1;
nodes = (
(195,-1,o),
(210,5,o),
(247,33,o),
(287,65,qs),
(318,89,o),
(344,113,o),
(349,129,o),
(349,140,qs),
(349,158,o),
(337,197,o),
(325,226,o),
(325,226,q),
(309,253,o),
(251,257,o),
(235,232,qs),
(228,220,o),
(224,199,o),
(229,164,o),
(235,132,q),
(212,113,o),
(190,112,o),
(166,136,q),
(166,232,ls),
(166,275,o),
(167,316,o),
(171,327,o),
(176,327,qs),
(187,326,o),
(222,313,o),
(237,313,qs),
(253,312,o),
(279,333,o),
(284,369,o),
(270,389,qs),
(261,403,o),
(243,406,o),
(229,396,qs),
(202,377,o),
(178,361,o),
(170,362,o),
(168,368,q),
(168,369,o),
(167,403,o),
(166,455,o),
(165,508,o),
(165,528,qs),
(165,548,o),
(166,556,qs),
(166,564,o),
(190,583,o),
(197,580,qs),
(206,577,o),
(218,547,o),
(223,518,o),
(224,514,qs),
(229,485,o),
(238,460,o),
(251,455,o),
(265,455,qs),
(289,455,o),
(321,485,o),
(339,526,qs),
(348,549,o),
(350,572,o),
(337,589,o),
(324,600,qs),
(282,636,o),
(233,674,o),
(206,688,o),
(192,686,o),
(186,683,qs),
(179,679,o),
(146,654,o),
(105,620,o),
(84,605,qs),
(49,580,o),
(24,555,o),
(24,546,qs),
(24,543,o),
(31,521,o),
(39,501,o),
(39,501,q),
(52,468,o),
(61,411,o),
(61,363,qs),
(61,274,o),
(38,185,qs),
(30,156,o),
(28,128,o),
(41,111,o),
(57,99,q),
(57,99,o),
(83,77,o),
(111,53,o),
(115,49,qs),
(165,6,o),
(189,1,qs)
);
},
{
closed = 1;
nodes = (
(151,682,o),
(249,742,qs),
(320,784,o),
(320,802,qs),
(320,812,o),
(307,829,qs),
(288,851,o),
(251,861,o),
(220,849,o),
(212,837,qs),
(208,832,o),
(189,791,o),
(167,741,o),
(151,705,o),
(151,704,qs)
);
}
);
width = 374;
}
);
note = uni00C9;
unicode = 201;
},
{
glyphname = uni00CA;
lastChange = "2026-06-24 21:12:53 +0000";
layers = (
{
layerId = m01;
shapes = (
{
closed = 1;
nodes = (
(210,4,o),
(249,33,o),
(288,64,o),
(298,70,qs),
(316,82,o),
(332,98,qs),
(343,108,o),
(348,120,o),
(348,135,qs),
(348,169,o),
(321,235,o),
(304,246,qs),
(286,256,o),
(248,245,o),
(221,215,o),
(221,195,qs),
(221,178,o),
(227,157,qs),
(228,151,o),
(230,132,o),
(220,116,o),
(204,115,qs),
(191,114,o),
(175,124,o),
(160,136,q),
(160,140,o),
(163,175,o),
(167,223,o),
(169,271,o),
(169,289,qs),
(169,323,o),
(172,323,qs),
(180,323,o),
(208,312,o),
(233,312,qs),
(248,312,o),
(254,314,q),
(254,314,o),
(271,327,o),
(280,353,o),
(269,375,qs),
(250,414,o),
(213,385,qs),
(175,354,o),
(169,364,qs),
(168,366,o),
(166,398,o),
(164,444,o),
(163,490,o),
(162,524,o),
(162,526,qs),
(162,543,o),
(168,573,o),
(185,576,qs),
(201,577,o),
(216,551,o),
(222,513,o),
(225,477,o),
(231,469,q),
(235,461,o),
(255,452,o),
(273,448,o),
(273,448,q),
(290,448,o),
(323,489,o),
(336,516,qs),
(349,541,o),
(351,564,o),
(341,577,qs),
(338,582,o),
(309,608,o),
(270,640,o),
(231,669,o),
(202,688,o),
(199,688,qs),
(196,688,o),
(167,666,o),
(128,634,o),
(90,603,o),
(77,595,qs),
(45,573,o),
(24,551,o),
(24,543,qs),
(24,535,o),
(37,503,o),
(37,503,q),
(47,477,o),
(57,444,o),
(59,401,o),
(59,360,qs),
(59,318,o),
(56,262,o),
(46,211,o),
(36,177,qs),
(29,150,o),
(25,125,o),
(36,111,o),
(51,99,qs),
(53,97,o),
(78,76,o),
(101,57,o),
(101,57,q),
(139,26,o),
(184,-5,o),
(202,1,qs)
);
},
{
closed = 1;
nodes = (
(288,700,o),
(299,717,o),
(302,723,o),
(306,732,o),
(315,744,qs),
(322,754,o),
(315,765,o),
(293,777,qs),
(279,785,o),
(241,819,o),
(209,850,o),
(205,852,qs),
(193,860,o),
(164,841,o),
(142,817,o),
(142,817,q),
(116,787,o),
(74,763,o),
(77,751,qs),
(78,745,o),
(90,718,o),
(106,690,o),
(112,685,qs),
(120,680,o),
(143,697,o),
(167,725,o),
(185,747,o),
(188,747,qs),
(195,747,o),
(230,709,o),
(272,680,q)
);
}
);
width = 375;
}
);
note = uni00CA;
unicode = 202;
},
{
glyphname = uni00CB;
lastChange = "2026-06-24 21:12:53 +0000";
layers = (
{
layerId = m01;
shapes = (
{
closed = 1;
nodes = (
(200,0,o),
(237,31,qs),
(256,47,o),
(295,76,o),
(295,76,q),
(320,95,o),
(345,122,o),
(347,135,q),
(347,145,o),
(338,179,o),
(328,208,o),
(328,208,q),
(322,223,o),
(304,251,o),
(275,260,o),
(252,248,qs),
(226,236,o),
(215,201,o),
(224,164,o),
(230,132,o),
(220,123,qs),
(205,108,o),
(175,126,o),
(163,137,q),
(164,219,o),
(166,298,o),
(167,323,o),
(168,324,qs),
(169,325,o),
(197,317,o),
(227,308,o),
(230,308,qs),
(240,308,o),
(260,324,o),
(275,343,o),
(275,350,qs),
(275,354,o),
(264,379,o),
(247,401,o),
(240,401,qs),
(234,401,o),
(210,386,o),
(190,370,o),
(190,370,q),
(178,361,o),
(165,364,o),
(161,416,o),
(161,478,qs),
(161,537,ls),
(161,555,o),
(163,561,qs),
(164,563,o),
(173,576,o),
(188,581,o),
(198,572,qs),
(209,561,o),
(218,526,o),
(223,489,o),
(230,474,qs),
(235,464,o),
(256,449,o),
(286,452,o),
(303,470,qs),
(308,475,o),
(328,512,o),
(347,552,o),
(349,560,qs),
(350,565,o),
(341,579,o),
(309,609,o),
(276,637,qs),
(244,664,o),
(212,687,o),
(195,688,o),
(185,683,qs),
(175,679,o),
(140,650,o),
(96,613,o),
(73,596,qs),
(40,571,o),
(24,552,o),
(26,541,qs),
(29,524,o),
(47,478,o),
(52,454,qs),
(61,415,o),
(61,328,o),
(51,244,o),
(38,174,o),
(28,131,o),
(28,129,qs),
(28,119,o),
(61,90,o),
(105,55,o),
(122,38,qs),
(164,0,o),
(184,0,qs)
);
},
{
closed = 1;
nodes = (
(121,691,o),
(150,719,o),
(176,756,o),
(177,769,qs),
(177,780,o),
(154,816,o),
(126,843,o),
(119,843,qs),
(115,843,o),
(106,837,qs),
(73,816,o),
(55,773,o),
(66,736,o),
(91,707,o),
(113,691,o),
(114,691,qs)
);
},
{
closed = 1;
nodes = (
(276,691,o),
(316,732,o),
(328,759,qs),
(333,770,o),
(318,798,o),
(293,825,o),
(270,843,o),
(266,843,qs),
(257,843,o),
(228,818,o),
(206,784,o),
(206,770,qs),
(206,754,o),
(230,717,o),
(258,691,o),
(263,691,qs)
);
}
);
width = 372;
}
);
note = uni00CB;
unicode = 203;
},
{
glyphname = uni00CC;
lastChange = "2026-06-24 21:12:53 +0000";
layers = (
{
layerId = m01;
shapes = (
{
closed = 1;
nodes = (
(153,-6,o),
(193,8,o),
(224,44,o),
(244,87,o),
(255,119,o),
(255,119,q),
(255,125,o),
(249,146,o),
(242,163,o),
(242,163,q),
(227,205,o),
(215,267,o),
(212,327,o),
(212,367,qs),
(212,417,o),
(214,444,qs),
(216,480,o),
(230,525,o),
(244,553,o),
(244,564,qs),
(244,567,o),
(226,605,o),
(198,651,o),
(168,686,o),
(157,686,qs),
(143,686,o),
(89,616,o),
(67,564,q),
(80,525,o),
(95,476,o),
(101,440,o),
(102,398,o),
(102,366,qs),
(102,318,o),
(100,286,qs),
(95,233,o),
(75,169,o),
(58,131,o),
(61,118,qs),
(62,107,o),
(84,62,o),
(114,17,o),
(128,9,qs)
);
},
{
closed = 1;
nodes = (
(199,711,o),
(190,733,qs),
(169,780,o),
(143,832,o),
(124,854,o),
(106,859,o),
(93,860,qs),
(74,860,o),
(54,849,o),
(43,837,qs),
(26,819,o),
(28,801,o),
(35,793,qs),
(43,784,o),
(81,757,o),
(127,729,o),
(171,707,o),
(199,700,o),
(199,708,qs)
);
}
);
width = 278;
}
);
note = uni00CC;
unicode = 204;
},
{
glyphname = uni00CD;
lastChange = "2026-06-24 21:12:53 +0000";
layers = (
{
layerId = m01;
shapes = (
{
closed = 1;
nodes = (
(137,-5,o),
(175,25,o),
(198,70,qs),
(210,93,o),
(219,117,o),
(214,142,o),
(205,166,qs),
(195,194,o),
(183,245,o),
(177,306,o),
(175,349,qs),
(173,406,o),
(180,476,o),
(192,514,o),
(203,535,o),
(210,552,o),
(208,565,qs),
(207,574,o),
(187,613,o),
(159,656,o),
(131,686,o),
(121,686,qs),
(113,686,o),
(86,659,o),
(58,620,o),
(36,583,o),
(33,573,qs),
(31,563,o),
(46,516,qs),
(61,471,o),
(71,375,o),
(66,306,qs),
(62,244,o),
(42,172,o),
(24,135,o),
(24,124,qs),
(24,121,o),
(30,108,qs),
(49,61,o),
(81,18,o),
(104,4,o),
(112,2,qs)
);
},
{
closed = 1;
nodes = (
(91,698,o),
(136,717,o),
(193,752,o),
(244,788,o),
(255,799,q),
(239,832,o),
(217,857,o),
(192,855,qs),
(170,855,o),
(148,846,o),
(128,809,o),
(110,766,qs),
(100,744,o),
(85,706,o),
(86,705,qs)
);
}
);
width = 279;
}
);
note = uni00CD;
unicode = 205;
},
{
glyphname = uni00CE;
lastChange = "2026-06-24 21:12:53 +0000";
layers = (
{
layerId = m01;
shapes = (
{
closed = 1;
nodes = (
(105,19,o),
(146,-5,o),
(181,8,o),
(211,43,o),
(232,83,o),
(244,115,o),
(244,118,qs),
(244,122,o),
(238,140,o),
(232,157,o),
(232,157,q),
(204,237,o),
(197,385,o),
(202,433,qs),
(206,474,o),
(225,521,o),
(237,552,o),
(232,568,qs),
(226,584,o),
(203,624,o),
(175,662,o),
(152,686,o),
(146,686,qs),
(139,686,o),
(111,656,o),
(81,612,o),
(60,570,o),
(60,558,qs),
(60,554,o),
(67,528,o),
(76,502,qs),
(82,483,o),
(89,462,o),
(92,436,o),
(95,409,q),
(98,327,o),
(88,230,o),
(73,179,o),
(68,167,qs),
(65,157,o),
(58,131,o),
(58,124,qs),
(58,115,o),
(71,84,o),
(84,58,o),
(84,58,q)
);
},
{
closed = 1;
nodes = (
(248,717,o),
(270,762,o),
(270,763,q),
(261,769,o),
(254,773,o),
(249,776,qs),
(238,782,o),
(206,810,o),
(173,840,o),
(149,861,o),
(146,861,qs),
(139,861,o),
(104,830,o),
(81,809,qs),
(54,784,o),
(30,765,o),
(24,763,o),
(24,763,q),
(24,762,o),
(35,740,o),
(51,711,o),
(68,689,o),
(75,688,qs),
(80,687,o),
(100,705,o),
(121,730,o),
(138,750,o),
(141,750,qs),
(143,750,o),
(169,727,o),
(206,694,o),
(223,681,q)
);
}
);
width = 295;
}
);
note = uni00CE;
unicode = 206;
},
{
glyphname = uni00CF;
lastChange = "2026-06-24 21:12:53 +0000";
layers = (
{
layerId = m01;
shapes = (
{
closed = 1;
nodes = (
(184,0,o),
(217,33,o),
(242,78,o),
(256,113,o),
(256,116,qs),
(256,120,o),
(250,139,o),
(243,156,o),
(243,156,q),
(229,192,o),
(214,272,o),
(209,342,o),
(209,386,o),
(210,387,q),
(212,438,o),
(225,501,o),
(238,537,o),
(245,559,o),
(242,570,q),
(238,579,o),
(220,616,o),
(196,657,o),
(172,686,o),
(163,686,qs),
(156,686,o),
(120,650,o),
(84,599,o),
(75,575,qs),
(71,563,o),
(82,527,o),
(98,481,o),
(102,453,qs),
(112,382,o),
(104,268,o),
(84,184,o),
(68,131,o),
(69,122,qs),
(69,117,o),
(82,80,o),
(106,34,o),
(142,0,o),
(165,0,qs)
);
},
{
closed = 1;
nodes = (
(92,688,o),
(134,730,o),
(155,771,q),
(128,820,o),
(97,842,o),
(96,842,q),
(82,846,o),
(49,820,o),
(24,784,o),
(24,772,qs),
(24,754,o),
(51,713,o),
(84,685,o),
(91,688,q)
);
},
{
closed = 1;
nodes = (
(250,694,o),
(276,722,o),
(297,754,o),
(299,762,qs),
(302,776,o),
(277,815,o),
(243,842,o),
(233,841,qs),
(227,840,o),
(203,820,o),
(182,794,o),
(179,784,qs),
(174,770,o),
(188,737,o),
(211,708,o),
(234,690,o),
(239,691,qs)
);
}
);
width = 324;
}
);
note = uni00CF;
unicode = 207;
},
{
glyphname = uni00D0;
lastChange = "2026-06-24 21:12:53 +0000";
layers = (
{
layerId = m01;
shapes = (
{
closed = 1;
nodes = (
(257,5,o),
(275,21,o),
(324,72,o),
(374,124,q),
(371,142,l),
(371,150,o),
(368,169,qs),
(363,201,o),
(357,240,o),
(355,275,o),
(354,323,o),
(354,364,qs),
(354,415,o),
(355,441,qs),
(355,478,o),
(361,508,o),
(368,523,o),
(369,540,qs),
(369,553,o),
(340,601,o),
(300,651,o),
(267,686,o),
(263,686,qs),
(261,686,o),
(234,667,o),
(204,633,o),
(196,611,qs),
(185,583,o),
(177,593,o),
(173,612,qs),
(166,643,o),
(136,679,o),
(123,679,qs),
(112,679,o),
(84,649,o),
(57,608,o),
(40,573,o),
(40,569,qs),
(40,565,o),
(52,539,o),
(52,539,q),
(62,519,o),
(73,488,o),
(77,451,o),
(77,423,qs),
(78,373,l),
(49,371,o),
(26,367,o),
(25,349,o),
(31,329,q),
(79,329,l),
(79,307,ls),
(79,262,o),
(68,202,o),
(47,149,o),
(32,116,q),
(49,83,o),
(66,48,o),
(77,31,o),
(82,24,qs),
(98,4,o),
(126,1,o),
(148,21,o),
(163,49,o),
(168,61,qs),
(171,70,o),
(180,65,o),
(188,52,o),
(189,49,q),
(193,42,o),
(216,16,o),
(244,-2,o),
(254,3,qs)
);
},
{
closed = 1;
nodes = (
(217,109,o),
(202,124,qs),
(192,134,o),
(184,151,o),
(182,196,o),
(182,248,qs),
(182,332,l),
(201,333,o),
(219,334,q),
(219,346,ls),
(219,357,o),
(210,364,o),
(182,375,q),
(182,423,l),
(182,423,o),
(182,453,o),
(184,495,o),
(187,534,o),
(189,544,qs),
(192,555,o),
(208,572,o),
(214,572,qs),
(221,572,o),
(231,561,qs),
(238,553,o),
(244,543,o),
(245,525,o),
(245,506,qs),
(245,428,ls),
(245,285,o),
(241,119,o),
(241,117,q),
(238,109,o),
(227,109,qs)
);
}
);
width = 396;
}
);
note = uni00D0;
unicode = 208;
},
{
glyphname = uni00D1;
lastChange = "2026-06-24 21:12:53 +0000";
layers = (
{
layerId = m01;
shapes = (
{
closed = 1;
nodes = (
(121,-5,o),
(160,24,o),
(187,69,o),
(201,106,o),
(201,107,qs),
(201,108,o),
(191,132,o),
(179,163,o),
(169,187,o),
(169,187,q),
(163,204,o),
(156,267,o),
(152,341,o),
(150,409,o),
(150,454,o),
(150,456,qs),
(150,484,o),
(159,487,o),
(160,486,q),
(161,486,o),
(170,449,o),
(183,396,o),
(196,342,o),
(205,306,o),
(205,305,q),
(216,264,o),
(228,216,o),
(233,175,o),
(235,147,qs),
(236,131,o),
(243,87,o),
(266,39,o),
(291,18,qs),
(322,-8,o),
(364,13,o),
(395,77,o),
(410,116,q),
(391,153,o),
(369,204,o),
(360,251,o),
(358,310,o),
(358,355,qs),
(358,394,o),
(359,418,qs),
(359,459,o),
(374,502,o),
(392,533,o),
(398,557,qs),
(402,571,o),
(385,613,o),
(357,654,o),
(330,681,o),
(323,681,qs),
(306,681,o),
(294,668,qs),
(284,658,o),
(256,615,o),
(235,575,o),
(235,569,qs),
(235,559,o),
(257,512,o),
(264,476,qs),
(267,459,o),
(273,399,o),
(277,330,o),
(279,266,o),
(278,222,o),
(275,219,q),
(272,214,o),
(271,216,q),
(270,216,o),
(255,268,o),
(235,347,o),
(215,431,o),
(201,498,o),
(201,511,qs),
(201,523,o),
(212,541,o),
(212,549,qs),
(212,559,o),
(193,601,o),
(165,648,o),
(136,682,o),
(127,684,qs),
(113,686,o),
(84,661,o),
(58,622,o),
(38,583,o),
(35,572,qs),
(33,563,o),
(36,545,o),
(52,509,o),
(68,475,q),
(67,370,ls),
(67,307,o),
(65,271,qs),
(62,221,o),
(45,170,o),
(28,138,o),
(26,118,qs),
(24,107,o),
(38,58,o),
(70,10,o),
(96,2,qs)
);
},
{
closed = 1;
nodes = (
(296,716,o),
(326,752,o),
(348,800,o),
(353,843,o),
(331,866,o),
(302,859,qs),
(296,857,o),
(282,831,o),
(269,807,o),
(263,807,qs),
(258,807,o),
(229,824,o),
(218,831,qs),
(162,866,o),
(118,823,qs),
(88,792,o),
(83,740,o),
(107,708,o),
(137,702,o),
(144,718,qs),
(157,749,o),
(164,764,o),
(166,764,qs),
(167,764,o),
(181,755,o),
(193,745,o),
(193,745,q),
(200,740,o),
(230,721,o),
(266,708,o),
(283,713,qs)
);
}
);
width = 433;
}
);
note = uni00D1;
unicode = 209;
},
{
glyphname = uni00D2;
lastChange = "2026-06-24 21:12:53 +0000";
layers = (
{
layerId = m01;
shapes = (
{
closed = 1;
nodes = (
(219,14,o),
(278,68,o),
(338,123,qs),
(344,129,o),
(348,142,o),
(345,174,o),
(340,209,qs),
(338,222,o),
(334,257,o),
(331,315,o),
(331,362,qs),
(332,399,o),
(332,420,qs),
(332,450,o),
(336,479,o),
(342,499,qs),
(343,503,o),
(351,538,o),
(350,544,qs),
(349,547,o),
(322,577,o),
(280,618,o),
(235,659,o),
(197,686,o),
(189,687,qs),
(176,687,o),
(121,631,o),
(75,598,qs),
(49,579,o),
(28,560,o),
(25,545,o),
(26,532,qs),
(26,523,o),
(29,504,qs),
(36,459,o),
(44,403,o),
(47,359,o),
(44,310,o),
(41,272,qs),
(40,265,o),
(35,222,o),
(29,172,o),
(24,135,o),
(24,134,q),
(77,82,o),
(140,22,o),
(176,-2,o),
(199,1,o),
(213,10,qs)
);
},
{
closed = 1;
nodes = (
(212,118,o),
(185,118,o),
(160,140,o),
(155,152,q),
(155,153,o),
(153,209,o),
(151,300,o),
(151,354,qs),
(149,545,l),
(162,559,o),
(182,572,o),
(199,563,qs),
(211,557,o),
(220,544,o),
(222,502,o),
(222,454,qs),
(222,342,ls),
(223,238,o),
(221,146,o),
(219,140,qs)
);
},
{
closed = 1;
nodes = (
(233,707,o),
(215,748,o),
(191,799,o),
(169,838,o),
(166,841,qs),
(155,852,o),
(124,854,o),
(100,849,o),
(100,849,q),
(94,846,o),
(76,828,o),
(62,809,o),
(62,803,qs),
(62,796,o),
(97,766,o),
(148,732,o),
(198,705,o),
(233,695,o),
(233,703,qs)
);
}
);
width = 375;
}
);
note = uni00D2;
unicode = 210;
},
{
glyphname = uni00D3;
lastChange = "2026-06-24 21:12:53 +0000";
layers = (
{
layerId = m01;
shapes = (
{
closed = 1;
nodes = (
(198,0,o),
(227,20,o),
(283,71,o),
(332,118,qs),
(341,126,o),
(349,141,o),
(346,170,o),
(340,202,qs),
(337,218,o),
(333,250,o),
(332,304,o),
(332,355,qs),
(332,418,ls),
(332,448,o),
(336,481,o),
(342,502,qs),
(350,529,o),
(351,543,o),
(346,552,qs),
(343,557,o),
(308,591,o),
(264,633,o),
(224,666,o),
(216,671,qs),
(200,683,o),
(181,688,o),
(155,669,o),
(129,646,qs),
(121,638,o),
(89,611,o),
(55,583,o),
(30,561,o),
(28,558,qs),
(21,546,o),
(32,496,o),
(47,409,o),
(47,341,qs),
(46,306,o),
(42,261,o),
(36,222,o),
(28,174,o),
(24,136,q),
(76,85,o),
(134,29,o),
(163,5,o),
(180,0,o),
(190,0,qs)
);
},
{
closed = 1;
nodes = (
(183,119,o),
(160,136,o),
(156,148,qs),
(155,150,o),
(153,194,o),
(152,261,o),
(150,335,o),
(149,401,o),
(149,443,o),
(149,444,qs),
(149,518,ls),
(149,547,o),
(150,550,qs),
(152,555,o),
(179,573,o),
(185,573,qs),
(191,573,o),
(201,565,qs),
(209,559,o),
(218,542,o),
(222,501,o),
(223,415,o),
(223,340,qs),
(222,144,l),
(212,130,o),
(200,119,o),
(192,119,qs)
);
},
{
closed = 1;
nodes = (
(156,696,o),
(186,712,o),
(229,737,o),
(273,764,o),
(305,787,o),
(308,793,q),
(309,797,o),
(302,828,o),
(274,856,o),
(246,856,qs),
(228,855,o),
(206,844,o),
(187,807,o),
(172,768,qs),
(152,723,o),
(146,696,o),
(154,696,qs)
);
}
);
width = 375;
}
);
note = uni00D3;
unicode = 211;
},
{
glyphname = uni00D4;
lastChange = "2026-06-24 21:12:53 +0000";
layers = (
{
layerId = m01;
shapes = (
{
closed = 1;
nodes = (
(208,4,o),
(247,37,o),
(293,79,o),
(326,111,o),
(328,112,q),
(338,122,o),
(347,139,o),
(345,171,o),
(339,206,qs),
(326,275,o),
(324,392,o),
(337,482,o),
(344,510,qs),
(349,529,o),
(348,550,o),
(322,580,o),
(290,612,qs),
(256,645,o),
(215,681,o),
(187,688,o),
(158,670,o),
(135,651,qs),
(131,647,o),
(123,639,o),
(102,622,o),
(78,602,qs),
(52,581,o),
(29,561,o),
(24,548,o),
(24,538,qs),
(24,522,o),
(32,490,o),
(32,490,q),
(61,366,o),
(27,176,qs),
(22,151,o),
(27,135,o),
(36,125,q),
(40,118,o),
(65,94,o),
(93,67,o),
(113,48,o),
(113,48,q),
(125,36,o),
(154,11,o),
(185,-4,o),
(201,2,qs)
);
},
{
closed = 1;
nodes = (
(211,118,o),
(175,120,o),
(161,142,qs),
(158,146,o),
(154,164,o),
(151,207,o),
(150,288,o),
(150,354,qs),
(149,547,l),
(165,561,o),
(179,571,o),
(187,571,qs),
(194,571,o),
(208,559,o),
(220,546,q),
(222,344,l),
(222,221,ls),
(222,170,o),
(220,134,o),
(217,129,qs)
);
},
{
closed = 1;
nodes = (
(123,687,o),
(142,707,o),
(165,734,o),
(183,754,o),
(185,754,qs),
(187,754,o),
(206,738,o),
(223,721,o),
(223,721,q),
(251,694,o),
(272,683,o),
(277,689,qs),
(282,695,o),
(298,729,o),
(312,761,o),
(312,763,q),
(310,767,o),
(296,774,qs),
(289,777,o),
(263,801,o),
(241,822,o),
(241,822,q),
(199,862,o),
(191,862,qs),
(177,862,o),
(123,806,o),
(86,776,q),
(72,767,o),
(71,763,qs),
(69,759,o),
(80,735,o),
(98,707,o),
(115,687,o),
(119,687,qs)
);
}
);
width = 374;
}
);
note = uni00D4;
unicode = 212;
},
{
glyphname = uni00D5;
lastChange = "2026-06-24 21:12:53 +0000";
layers = (
{
layerId = m01;
shapes = (
{
closed = 1;
nodes = (
(193,-7,o),
(220,11,qs),
(225,15,o),
(235,23,o),
(258,44,o),
(308,91,o),
(352,133,q),
(351,154,ls),
(351,172,o),
(346,202,o),
(340,242,o),
(335,306,o),
(335,358,qs),
(335,426,o),
(346,507,o),
(356,547,o),
(352,554,qs),
(349,558,o),
(328,580,o),
(302,605,o),
(282,624,o),
(282,624,q),
(249,655,o),
(220,681,o),
(208,686,o),
(200,686,qs),
(184,686,o),
(171,679,qs),
(158,673,o),
(103,623,o),
(73,599,qs),
(44,575,o),
(28,560,o),
(27,555,qs),
(25,547,o),
(29,515,o),
(36,481,o),
(38,471,qs),
(42,452,o),
(46,423,o),
(47,390,o),
(47,362,qs),
(47,284,o),
(33,195,o),
(22,151,o),
(29,139,qs),
(34,130,o),
(73,88,o),
(122,41,o),
(161,6,o),
(165,4,qs)
);
},
{
closed = 1;
nodes = (
(199,118,o),
(169,131,o),
(158,147,qs),
(155,152,o),
(153,165,o),
(153,210,o),
(154,262,qs),
(154,359,o),
(154,466,o),
(153,510,o),
(152,516,o),
(152,507,o),
(152,508,qs),
(152,535,o),
(153,541,qs),
(155,556,o),
(176,578,o),
(186,578,qs),
(196,578,o),
(210,566,qs),
(219,559,o),
(226,548,o),
(228,523,o),
(228,496,qs),
(228,488,o),
(227,434,o),
(227,372,o),
(226,326,o),
(226,326,q),
(226,258,ls),
(226,227,o),
(227,212,qs),
(228,165,o),
(225,147,qs),
(222,127,o),
(202,118,o),
(202,118,q)
);
},
{
closed = 1;
nodes = (
(115,704,o),
(117,706,q),
(121,717,o),
(123,724,o),
(124,730,qs),
(132,760,o),
(143,763,qs),
(151,764,o),
(175,749,o),
(203,726,o),
(230,709,o),
(241,709,qs),
(259,709,o),
(282,729,qs),
(307,751,o),
(328,803,o),
(328,844,o),
(324,849,qs),
(320,855,o),
(288,860,o),
(278,855,q),
(271,853,o),
(260,830,o),
(249,810,o),
(243,810,qs),
(234,810,o),
(205,828,o),
(166,846,o),
(143,846,qs),
(128,846,o),
(121,844,qs),
(106,840,o),
(76,808,o),
(56,767,o),
(56,749,qs),
(56,746,o),
(64,725,o),
(84,705,o),
(101,704,qs)
);
}
);
width = 377;
}
);
note = uni00D5;
unicode = 213;
},
{
glyphname = uni00D6;
lastChange = "2026-06-24 21:12:53 +0000";
layers = (
{
layerId = m01;
shapes = (
{
closed = 1;
nodes = (
(196,0,o),
(213,12,qs),
(222,19,o),
(263,55,o),
(308,97,o),
(341,132,o),
(342,137,qs),
(344,144,o),
(334,215,o),
(322,315,o),
(322,366,qs),
(322,425,o),
(336,500,o),
(347,539,o),
(343,546,q),
(343,547,o),
(317,574,o),
(278,614,o),
(235,655,o),
(200,684,o),
(193,686,qs),
(185,687,o),
(148,662,o),
(103,623,o),
(59,582,o),
(29,552,o),
(28,549,q),
(25,544,o),
(24,531,o),
(30,497,o),
(39,461,qs),
(46,436,o),
(48,358,o),
(42,274,o),
(33,199,o),
(26,151,o),
(26,150,qs),
(26,136,o),
(31,126,o),
(45,113,q),
(59,103,o),
(96,65,o),
(135,27,o),
(170,0,o),
(183,0,qs)
);
},
{
closed = 1;
nodes = (
(152,146,o),
(150,177,o),
(149,263,o),
(148,346,qs),
(148,541,l),
(166,559,o),
(185,571,o),
(203,557,o),
(220,535,q),
(221,345,ls),
(221,344,o),
(221,305,o),
(221,247,o),
(220,188,o),
(219,146,o),
(218,144,q),
(213,121,o),
(186,117,o),
(158,134,o),
(153,143,q)
);
},
{
closed = 1;
nodes = (
(144,705,o),
(170,743,o),
(175,764,o),
(175,764,q),
(175,777,o),
(148,812,o),
(120,838,o),
(118,838,qs),
(115,838,o),
(100,828,q),
(70,804,o),
(52,769,o),
(57,744,o),
(62,736,qs),
(72,716,o),
(98,692,o),
(113,681,q)
);
},
{
closed = 1;
nodes = (
(273,688,o),
(303,715,o),
(325,751,o),
(325,763,qs),
(325,773,o),
(300,807,o),
(268,834,o),
(258,834,qs),
(252,834,o),
(212,799,o),
(204,772,qs),
(200,756,o),
(223,718,o),
(255,690,o),
(263,689,qs)
);
}
);
width = 369;
}
);
note = uni00D6;
unicode = 214;
},
{
glyphname = uni00D8;
lastChange = "2026-06-24 21:12:53 +0000";
layers = (
{
layerId = m01;
shapes = (
{
closed = 1;
nodes = (
(126,-2,o),
(144,11,o),
(153,31,o),
(153,37,qs),
(153,50,o),
(157,52,qs),
(160,53,o),
(182,36,o),
(209,19,o),
(220,19,qs),
(226,19,o),
(242,30,o),
(249,36,qs),
(253,40,o),
(281,65,o),
(314,95,o),
(338,118,o),
(338,118,q),
(358,136,o),
(365,147,o),
(365,158,qs),
(365,166,o),
(362,193,o),
(358,215,o),
(358,215,q),
(352,249,o),
(348,314,o),
(349,393,o),
(350,449,q),
(366,479,o),
(377,501,o),
(377,508,qs),
(377,519,o),
(349,553,o),
(328,577,q),
(328,622,ls),
(328,653,o),
(327,662,qs),
(324,678,o),
(298,691,o),
(274,669,o),
(274,634,qs),
(274,631,o),
(273,613,o),
(272,613,qs),
(268,613,o),
(250,628,o),
(224,644,o),
(196,651,o),
(184,643,qs),
(182,642,o),
(149,613,o),
(105,575,o),
(69,540,o),
(66,532,qs),
(61,521,o),
(67,491,o),
(78,438,o),
(81,394,qs),
(84,335,o),
(76,256,o),
(65,209,o),
(65,197,qs),
(64,180,o),
(79,151,o),
(96,127,o),
(98,118,q),
(98,112,o),
(108,102,qs),
(116,93,o),
(117,73,o),
(111,46,qs),
(103,18,o),
(104,4,o),
(113,1,qs)
);
},
{
closed = 1;
nodes = (
(73,19,o),
(84,44,o),
(92,77,o),
(96,104,o),
(96,105,qs),
(96,112,o),
(91,111,q),
(84,111,o),
(44,107,o),
(36,103,q),
(26,95,o),
(24,54,o),
(32,38,qs),
(35,32,o),
(59,19,o),
(67,19,qs)
);
},
{
closed = 1;
nodes = (
(241,135,o),
(221,123,o),
(198,123,o),
(181,144,o),
(181,170,qs),
(181,201,o),
(200,277,o),
(226,347,o),
(246,393,o),
(246,394,q),
(258,408,o),
(254,371,qs),
(253,360,o),
(252,319,o),
(251,277,o),
(251,247,o),
(251,247,q),
(250,199,o),
(249,158,o),
(247,147,o),
(246,143,q)
);
},
{
closed = 1;
nodes = (
(181,318,o),
(179,333,o),
(178,378,o),
(177,425,qs),
(177,530,l),
(191,543,o),
(203,552,o),
(207,552,qs),
(213,552,o),
(229,539,qs),
(244,528,o),
(249,515,o),
(248,507,qs),
(248,506,o),
(236,468,o),
(218,412,o),
(199,356,o),
(184,318,o),
(181,318,q)
);
},
{
closed = 1;
nodes = (
(415,597,o),
(408,644,qs),
(404,674,o),
(378,674,qs),
(360,674,o),
(352,645,o),
(352,636,qs),
(352,624,o),
(354,620,q),
(354,617,o),
(373,597,o),
(385,597,qs)
);
}
);
width = 433;
}
);
note = uni00D8;
unicode = 216;
},
{
glyphname = uni00D9;
lastChange = "2026-06-24 21:12:53 +0000";
layers = (
{
layerId = m01;
shapes = (
{
closed = 1;
nodes = (
(228,4,o),
(257,31,o),
(299,70,o),
(340,110,o),
(366,140,o),
(364,144,q),
(355,171,o),
(345,239,o),
(340,304,o),
(339,346,o),
(339,347,qs),
(339,412,o),
(352,486,o),
(368,525,o),
(381,548,o),
(381,562,qs),
(381,570,o),
(365,610,o),
(340,655,o),
(314,688,o),
(305,691,qs),
(294,693,o),
(269,673,o),
(245,643,o),
(230,620,o),
(230,620,q),
(216,598,o),
(209,569,o),
(217,536,o),
(228,508,qs),
(230,502,o),
(234,485,o),
(236,448,o),
(236,413,qs),
(236,314,ls),
(236,295,o),
(236,236,o),
(235,177,o),
(233,135,o),
(232,132,qs),
(228,119,o),
(202,115,o),
(190,120,qs),
(171,129,o),
(164,168,o),
(164,191,qs),
(164,275,ls),
(165,366,o),
(170,495,o),
(180,522,qs),
(197,570,o),
(176,613,qs),
(143,684,o),
(106,684,qs),
(78,684,o),
(45,617,qs),
(30,587,o),
(23,556,o),
(32,535,o),
(47,505,o),
(62,449,o),
(65,398,qs),
(68,316,o),
(54,209,o),
(39,148,o),
(44,136,qs),
(47,125,o),
(84,85,o),
(129,42,o),
(164,12,o),
(164,12,q),
(178,3,o),
(215,-2,o),
(228,4,q)
);
},
{
closed = 1;
nodes = (
(244,688,o),
(212,761,qs),
(197,794,o),
(180,826,o),
(166,840,o),
(156,845,qs),
(134,855,o),
(102,846,o),
(81,826,o),
(70,806,o),
(70,805,qs),
(67,792,o),
(74,782,qs),
(81,770,o),
(131,738,o),
(190,708,o),
(233,688,o),
(234,688,qs)
);
}
);
width = 405;
}
);
note = uni00D9;
unicode = 217;
},
{
glyphname = uni00DA;
lastChange = "2026-06-24 21:12:53 +0000";
layers = (
{
layerId = m01;
shapes = (
{
closed = 1;
nodes = (
(299,66,o),
(331,96,o),
(337,102,qs),
(358,121,o),
(367,131,o),
(367,133,q),
(368,136,o),
(365,156,o),
(360,176,o),
(360,176,q),
(338,270,o),
(341,368,qs),
(342,428,o),
(357,497,o),
(375,534,o),
(388,554,o),
(388,565,qs),
(388,568,o),
(371,606,o),
(346,654,o),
(319,690,o),
(309,691,qs),
(293,693,o),
(255,660,o),
(223,609,o),
(216,582,qs),
(214,573,o),
(215,558,o),
(225,527,o),
(237,495,q),
(237,313,ls),
(237,288,o),
(237,230,o),
(236,175,o),
(235,136,o),
(234,132,qs),
(229,117,o),
(196,115,o),
(181,129,q),
(176,135,o),
(170,149,o),
(167,185,o),
(167,259,o),
(169,388,o),
(171,491,q),
(183,526,o),
(193,558,o),
(192,572,qs),
(191,585,o),
(178,620,o),
(161,650,o),
(156,658,qs),
(147,670,o),
(119,691,o),
(112,691,qs),
(111,691,o),
(84,679,o),
(47,635,o),
(31,588,qs),
(24,568,l),
(55,504,o),
(67,404,o),
(69,370,qs),
(71,292,o),
(55,198,o),
(40,147,o),
(44,135,qs),
(46,131,o),
(64,110,o),
(86,88,o),
(103,71,o),
(103,71,q),
(144,32,o),
(196,-6,o),
(243,8,o),
(279,46,qs)
);
},
{
closed = 1;
nodes = (
(168,691,o),
(193,701,o),
(230,722,o),
(268,744,o),
(282,750,qs),
(332,776,o),
(332,792,qs),
(332,801,o),
(324,815,qs),
(309,842,o),
(283,851,o),
(271,851,qs),
(251,852,o),
(226,842,o),
(207,806,o),
(194,770,qs),
(191,760,o),
(178,726,o),
(168,698,o),
(168,697,qs)
);
}
);
width = 413;
}
);
note = uni00DA;
unicode = 218;
},
{
glyphname = uni00DB;
lastChange = "2026-06-24 21:12:53 +0000";
layers = (
{
layerId = m01;
shapes = (
{
closed = 1;
nodes = (
(231,0,o),
(240,6,qs),
(241,7,o),
(315,76,o),
(370,131,q),
(372,134,o),
(365,162,o),
(365,162,q),
(355,200,o),
(344,302,o),
(345,356,qs),
(345,395,o),
(350,447,o),
(361,489,o),
(379,532,o),
(392,561,q),
(388,574,o),
(372,616,o),
(349,661,o),
(321,691,o),
(304,691,qs),
(297,691,o),
(297,694,qs),
(297,696,o),
(316,726,o),
(334,757,o),
(334,761,q),
(333,764,o),
(317,775,o),
(302,785,o),
(302,785,q),
(290,793,o),
(255,822,o),
(243,834,qs),
(225,851,o),
(202,863,o),
(174,847,o),
(147,820,qs),
(122,797,o),
(77,762,o),
(77,760,qs),
(77,757,o),
(90,735,o),
(110,709,o),
(130,692,o),
(137,695,qs),
(141,697,o),
(160,716,o),
(181,739,o),
(198,756,o),
(201,756,qs),
(203,756,o),
(217,743,o),
(232,729,o),
(234,727,qs),
(279,683,o),
(289,689,qs),
(293,691,o),
(293,688,qs),
(293,685,o),
(281,678,qs),
(271,671,o),
(240,629,o),
(216,581,o),
(216,565,qs),
(216,551,o),
(226,525,o),
(238,499,q),
(238,411,o),
(239,299,o),
(239,237,o),
(240,208,o),
(240,199,o),
(240,197,qs),
(239,157,o),
(236,125,o),
(224,118,o),
(212,118,qs),
(181,118,o),
(171,152,qs),
(168,164,o),
(168,229,qs),
(168,322,o),
(174,445,o),
(175,451,qs),
(177,490,o),
(188,531,o),
(195,557,o),
(193,576,qs),
(191,596,o),
(164,649,o),
(129,687,o),
(116,687,qs),
(80,687,o),
(43,613,qs),
(32,590,o),
(24,568,o),
(28,551,o),
(34,536,qs),
(57,487,o),
(71,383,o),
(67,320,qs),
(65,262,o),
(54,195,o),
(43,159,o),
(38,141,o),
(45,127,o),
(57,114,qs),
(97,71,o),
(148,24,o),
(179,4,o),
(199,0,o),
(208,0,qs)
);
}
);
width = 416;
}
);
note = uni00DB;
unicode = 219;
},
{
glyphname = uni00DC;
lastChange = "2026-06-24 21:12:53 +0000";
layers = (
{
layerId = m01;
shapes = (
{
closed = 1;
nodes = (
(245,8,o),
(283,44,o),
(327,86,o),
(359,118,o),
(360,119,qs),
(372,131,o),
(376,143,o),
(370,162,qs),
(363,185,o),
(354,244,o),
(350,303,o),
(349,349,o),
(349,359,qs),
(349,398,o),
(354,461,o),
(361,486,qs),
(368,511,o),
(385,544,o),
(390,559,qs),
(394,572,o),
(381,614,o),
(357,657,o),
(330,691,o),
(322,696,qs),
(319,698,o),
(294,694,o),
(254,656,o),
(230,608,qs),
(218,583,o),
(227,543,o),
(243,503,q),
(244,328,l),
(244,215,ls),
(244,179,o),
(241,135,o),
(237,128,qs),
(230,116,o),
(193,122,o),
(184,131,qs),
(180,135,o),
(175,147,o),
(172,181,o),
(172,256,o),
(174,388,o),
(175,492,q),
(186,522,o),
(198,569,o),
(191,612,o),
(158,661,o),
(123,694,q),
(154,713,o),
(185,752,o),
(194,778,o),
(194,779,qs),
(194,787,o),
(174,817,o),
(150,845,o),
(143,848,qs),
(132,854,o),
(108,841,o),
(85,819,o),
(71,800,o),
(71,800,q),
(62,781,o),
(73,746,o),
(99,715,o),
(112,702,q),
(95,689,ls),
(77,675,o),
(48,630,o),
(29,588,o),
(24,577,q),
(37,546,o),
(49,518,o),
(54,505,o),
(57,498,q),
(69,457,o),
(74,353,o),
(66,251,o),
(52,172,o),
(47,158,qs),
(44,149,o),
(47,140,qs),
(49,130,o),
(86,89,o),
(132,45,o),
(170,11,o),
(175,8,qs),
(189,1,o),
(228,-1,o),
(238,4,qs)
);
},
{
closed = 1;
nodes = (
(298,700,o),
(332,731,o),
(352,774,o),
(348,787,qs),
(344,800,o),
(318,832,o),
(291,854,o),
(284,854,qs),
(281,854,o),
(252,833,o),
(224,801,o),
(220,787,qs),
(217,777,o),
(238,740,o),
(269,707,o),
(281,704,qs)
);
}
);
width = 416;
}
);
note = uni00DC;
unicode = 220;
},
{
glyphname = uni00DD;
lastChange = "2026-06-24 21:12:53 +0000";
layers = (
{
layerId = m01;
shapes = (
{
closed = 1;
nodes = (
(231,9,o),
(256,37,o),
(270,65,qs),
(281,87,o),
(289,111,o),
(283,133,o),
(274,152,qs),
(257,187,o),
(246,236,o),
(246,272,qs),
(246,301,o),
(248,315,qs),
(252,345,o),
(280,414,o),
(313,475,o),
(337,513,o),
(337,514,q),
(354,540,o),
(366,570,o),
(357,601,o),
(343,630,qs),
(324,668,o),
(301,693,o),
(289,690,qs),
(281,688,o),
(254,666,o),
(230,636,o),
(224,624,qs),
(213,602,o),
(210,574,o),
(217,551,o),
(225,525,o),
(225,506,qs),
(225,498,o),
(220,458,o),
(213,413,o),
(207,381,o),
(205,380,q),
(201,375,o),
(193,389,o),
(186,411,o),
(184,419,qs),
(176,446,o),
(165,513,o),
(177,548,qs),
(183,566,o),
(184,577,qs),
(185,588,o),
(169,626,o),
(142,665,o),
(112,692,o),
(99,692,qs),
(91,692,o),
(65,662,o),
(38,618,o),
(23,576,o),
(27,564,q),
(35,548,o),
(55,514,o),
(70,489,o),
(70,489,q),
(106,428,o),
(136,360,o),
(142,323,o),
(142,309,qs),
(145,252,o),
(121,175,o),
(95,128,o),
(95,116,q),
(95,116,o),
(104,88,o),
(122,50,o),
(150,14,o),
(188,-4,o),
(212,3,qs)
);
},
{
closed = 1;
nodes = (
(162,695,o),
(168,698,o),
(192,710,o),
(221,726,qs),
(271,753,o),
(316,780,o),
(320,801,o),
(311,818,qs),
(296,847,o),
(254,857,o),
(218,842,o),
(211,833,qs),
(202,821,o),
(188,783,qs),
(187,780,o),
(184,774,o),
(175,752,o),
(164,726,q),
(147,695,o),
(160,695,qs)
);
}
);
width = 386;
}
);
note = uni00DD;
unicode = 221;
},
